<mxfile host="65bd71144e">
    <diagram id="BOMTQP_7rqF_28g2GLTV" name="Page-1">
        <mxGraphModel dx="675" dy="579" grid="1" gridSize="10" guides="1" tooltips="1" connect="1" arrows="1" fold="1" page="1" pageScale="1" pageWidth="1920" pageHeight="1200" math="0" shadow="0">
            <root>
                <mxCell id="0"/>
                <mxCell id="1" parent="0"/>
                <mxCell id="2" value="" style="shape=image;imageAspect=0;aspect=fixed;verticalLabelPosition=bottom;verticalAlign=top;image=data:image/png,iVBORw0KGgoAAAANSUhEUgAAAggAAAHDCAYAAABBO+KJAAAgAElEQVR4XuydBXRdVfq3n+s37i5NUnd3pwaFlgruboPMDDD4wMAMQ0eYGbyDfczgFClSCnWlmrqlSZO0cbebXL/f2ocpfwotbdIkTZp3s7raVc7ZZ+9n7+b8zrtf0fl8Ph/ShIAQEAJCQAgIASHwIwI6EQiyH4SAEBACQkAICIGfEhCBIHtCCAgBISAEhIAQ+BkBEQiyKYSAEBACQkAICAERCLIHhIAQEAJCQAgIgZMTEAvCyRnJFUJACAgBISAEOhwBEQgdbsllwkJACAgBISAETk5ABMLJGckVQkAICAEhIAQ6HAERCB1uyWXCQkAICAEhIAROTkAEwskZyRVCQAgIASEgBDocAREIHW7JZcJCQAgIASEgBE5OQATCyRnJFUJACAgBISAEOhwBEQgdbsllwkJACAgBISAETk5ABMLJGckVQkAICAEhIAQ6HAERCB1uyWXCQkAICAEhIAROTkAEwskZyRVCQAgIASEgBDocAREIHW7JZcJCQAgIASEgBE5OQATCyRnJFUJACAgBISAEOhwBEQgdbsllwkJACAgBISAETk5ABMLJGckVQkAICAEhIAQ6HAERCB1uyWXCQkAICAEhIAROTkAEwskZyRVCQAgIASEgBDocAREIHW7JZcJCQAgIASEgBE5OQATCyRnJFUJACAgBISAEOhyBdisQvD4fDq8bo96ASafvcAsnExYCQkAICAEh0JIE2pVA8OHDg1cTBntsJbx0ZCOTw7swM7IngUYzenQtyUr6FgJCQAgIASHQYQi0G4GghEG1z8YOZw5LqzPYXl6On8+CzeVhbmQ/ZkT1IMoUgE6nw+fzoVP/iV7oMBtZJioEhIAQEALNS6BNCgSv10tpaan2so+OjsaJmxXOHXzgWEWpuw5rTRS2eijyVaJzWAkxm3mp81waDpZSVu2i3hiG3m0nwmgjJiqczp07N46az4etqpra4lIsFjOGwAACI8LR6+Uoo3Eg5WohIASEgBBorwTapECw2+28+OKLmM1mbr/zDnbVZ/FQzstYXWZuip1LYlASKypy+Kb8AEF6Hzv1a7mz0wyeGf8IpaX+WPpdhKcyF8euT5k9fSILPni3Uevjqq1j88LP2frpJyRGJ+DfpTtDrpxLWHSUiIRGkZSLhYAQEAJCoL0SaJMCob6+ngcffJCosGjOv2QOL697g+L/txlPhQ7d2H74TxiOf2IkoVFGjHsO8e5r/8B2RyKeVZ3QZfXCnZeOIW4ABk8DM3rq+e+zD5+yd4KnwUHW54vJ/G4NpdTgZzBirfJh6d2X3jOmEpeWisFgaK/rLeMWAkJACAgBIXBKBNqkQDh48CDjxo3j3K4XMLXXhZQfzmVJwHacNieBeXY83bvhGTiYhlgDeftXkff159i7urFMHoP3i1Co06OzhhDkLubOOSN4+K7rTk0g+HzUZOex5cX51AV7OFRYQLDVRJTZH8++GgJnT6b75HEkJSefEly5SAgIASEgBIRAeyXQqgLB7XZTXV1NeHi45l9wvKb8Dz7+8BNeeeJVJoVPYVDcEDwJYSyKz+DghjUE7y5GNyCM+omDMJfE4+psZW/ehxTlrEF/STz6V530i72RhsIMevoXcedttzBixIhTWh+f10tNZjY7nv8Pjkgj+dX5hAWH4l/lw3mglOjrZuFKiKBz1y5ERclxwylBlYuEgBAQAkKgXRJoVYGQn5/P+++/zz333IPRaDyhQPjXMy+Q+flhzo+bQak9h9SEYRwqy2VrxWaye2ZTOdJEXf9QApydCcuJpzAxg1q/XTj8PaRs6MJs2yBiqgoZMq4/XUcNRneqRwI+H/aySva/+iH5B7PYXptHYkw8nbyBhCbF0/nyGdSYfGRmZZKYmEhaWtoJhU673A0yaCEgBISAEBAC/yPQqgJh685N3PfoXTzywOOcM+pc9MdJcOT1+vjg7Q/40yNPMylyGtO7nE+htZplRbshMpYD03fi7WxFZwzEkWYm+kAXjA1m/HoVcrgqG+u3k0ksN3GTNZekQC/RIwcQPrQfpxrz6PN4qdh1gJyvV7P288Uoq8KQiWPpe/1cglITwWigsLCQw4cPayIhKSlJNpMQEAJCQAgIgbOOQKsJBLfHxWcr3+avr/2eiSOnct81fyIiJOa4X+Dq5fvkk0/isntxhYYRuLecktwqgoNSOByTRfGcCAxjUgjcGU7y4YF4epnQhVVxaI+NziXRVJkjSXRVMc5YwnB9GQnnjiGkX/dTXjyv20N9YSmfv/Q6q1au4PJf/4rxF1+I7kdhjkVFRWRnZxMZGUmXLl3EknDKdOVCISAEhEDbJqCOuiWsHVpFIDicdhaseJ3Faz9j46p0ugxIYOSgCcwedy190gb/bKcczYNQ43DxxZFsPjq4iPCviwjdq8ObOI7iqEqI0JHs7EVJ6V68l4VTba7EvaE3ccFRuMwB1BSUMdd1gBG2bJImDydx1mR0ZlOjduU3Xy/m979/jDvuvJNrr732mHtVMiaVq2H//v0kJCQ0PtdCo0YiFwsBISAEhEBrEFBh9u+88w6XXXYZAQEBrfHINvuMVhEI9fZatuxfwwsfPs2BvQdJSotl0vALmDXmKlLie5zw67uqzsdby+v5OPMgdcnfoCveCwtDSAoahVlvYbhnC12Nubx2vYX8TcVcXjmR5dGT8Vn9uCe1logjmeizs4keNYDEmRPRWSyNWoh9+/Zx9913M2rUKB5++GEsP7nf4/FQUVFBeno6/v7+jB49WpvLiRwwG/VwuVgICAEhIARanYD6QFVWbHV83NFD2ltFIKivbXXEsG77Mn775+sZ0HUUzz/xFlazPwb9sTkFPF4PDoeTnEInH600U1RpID4Svs0upS5lO5W9vyStyMfMrW5GF5Rj83cRUe3h452HmTb7VmqcfkSPHUx8uB/2vRnU5xWRdPF5BHZOOmU/hKM7UgmAW265haqqKubPn68dJxyvNTQ0kJWVxZo1azRrQv/+/YmLi8NkMolYaPV/3vJAISAEhIAQaA4CrSIQjg50y5bNjBo3kqmTp/Ll54t+Nn71Qs7OP8RXq78iO99HYc1EdMYuDOxmZt1eN9G9Kigethb/yh1ctjQXX3YV9UU1TPD4sae6hmHPz6dyVw4Vm3ehNxkwhwSRfOl5BHVLQ2doWprkP//5zyxbtow33niD5F/If6BCOB0OB0eOHGHLli1aKOeYMWMIDg5ujnWSPoSAEBACQkAItCqBVhUImzZvY/T4c5k8+QIWfPga/pb/K6hUU1fN5ysWsjdrN0aDic5J3dmfW0J2cS/KKiNJtm7hkd9exKr01ezPySCozs7grdvo4nJxMCmFvE4pXHbTLQRYLNhLKnBX1+GfGIMpPOTUwxyPg/6TTz5h3rx5vPXWW/To0eOki6NEjhIKOTk51NTUaKJCWRPk2OGk6OQCISAEhIAQaEMEWk0gOF0+vlhVxK8eXUintD7ccdUgpg63Ehuux+5o4L+fv8mOAzu49sLr6NdzIBaThbp6B+n783nny9fww8SsCRMpLSpla3o6FoOBQ4sWMW7gQML79+eCW27B6ufX7Gi//vprLaLipZde0o4OGuPZqnwYtm7dypQpUySxUrOvjHQoBISAEBACLUmgVQSCywM7Mpz88Y08Nm/+kpCQBnr0mMWIfoncPNOfzJzNfLzkQy6adgl9u/XXxIFyFHF73NqvvYf28vqH8zE2mFj9zToGDRxETEwMq1as4KmnnmLCxIkYTY2LUDhVqMq34L777mP69OlcfPHFhIaGnuqt2hycTqeWHGrSpEla3gSxJJwyPrlQCAgBISAEziCBFhcIPh/kl3l44s1ywiJ2su7Ab0gclAIFwzA4r+TS0THoXMvYvHsdN190G8lxKdqLdX/2XjJyM3C7XVTWVPLdjnUM6zuCm+beitHwfRZG5fzYGlEDjz/+ODt37tSOGrp169bo5VL+CUuXLtUyLzbl/kY/UG4QAkJACAgBIXCaBFpcIHh9cCjfxdMLDpE6YhF7Kz/HVhxCeFooVXunMqfLFEzOleTk7+e62TcRFxmHy+1k8dqv+W77OpxOBw6Xg5KKEob2Gc49V/8Wk7FlrAUnYqmcFK+66iqUP8LIkSObhFz5JnzwwQdaXYiUlJRGHVU06YFykxAQAkJACAiB0yDQ4gJBWRDKqj288W0ROxzvUt3wBWZ/E4HhXQmsPo+rB0zGXruZxasXcu3sG+mR2lNLwWyz26i11eD1eMgtzOX9Re8xYehEZk+e2+pm+uLiYi0i4YEHHuDKK6/Erwm+DsrakZGRQW5urhYu2alTJyIiIk5j6eRWISAEhIAQEAItR6DFBYIautcLOUUe3lqWxfqK1wmOdhDvHc+UlGlMHuxHdU0h73z5Hy1vwPkTZpISn6odI7jcLsqrSvl06SfU2Gq4ZNrlpCamthyNE/Ssjjz69u2rWQ+eeeaZE+ZDOJWBqeOGTZs2ab4JISEhDBw48FRuk2uEgBAQAkJACLQqgVYRCGpGypKwYlMGd/z+Ka66/jIm9B/MwNQYAqw6zZdgV8YOPlv2CUEBQSTGJtMpvhOHCw9TWJpPRVUFsybPpV+3/q1uPfh+7D5uvvlmbDYbf//734mPjz+tRVLiQNVxUJYJlcpT+SaEhYWdVp9ysxAQAkJACAiB5iTQagJBDVq9EL/44itmz7mY8LCgnxVYLCwpYNfBnazbthqny0WAnz8Dew6mX/eBJMWeuaqJSiC8/PLLvPjii5ofQvfup1746ZcWS+X8VrUcVN6Ezp07n5Zlojk3hfQlBISAEBACQqBVBYIyr9fV1Z0wVFC9iG0NNgpLC6ipqyE0OITo8FgC/QPPiOXg6PY4KhBUFMPixYvp2bNns+0claZZJVU6ePAgQ4cO1ZIqNaq5wf16Ob4yF8YbI9DFtq4DZ6PGKhcLASEgBIRAuyHQqgKhMVS8Pq/mrNgWWksKBDU/deRQXV2t+SYo8ZGamnqMIFL/f/Wq1WTu3EPlrmwy83IpsFczvv8ELjFOJ2FHCN4CF4ZRgZh+G4WupxVMuraATsYgBISAEBAC7ZRAmxUIbYlnSwuEo3NVQuDLL79k4sSJx/gklJWVMXf2HOwZBTzf62K2VuTwQs5Krki6lKs8c4k7JwXvLge+bAem+2Mw3hwOfm1DXLWldZSxCAEhIASEwKkTEIFwCqyUQHj11Vd5+umntRd4nz59TuGupl2i6jeo9M4qPbMq+KSaraqaz34zj4QjtfiFeQhwBlBfpyPXv4FQXRx9c0YRWBnGssE7Gf/36QQmBWM0y1FD01ZA7hICQkAItD0C6ohelZ9uzWy8IhBOcR/s2LGDq6++mnvvvZdrr732FO9q2mXbt2+ntraWfv36ERISTF11Hptf+CMJh80YzT4sHguFJU6WeMvp0X0wafkx2Cs9/H7nfEx9I7jyqiuZNnXqDwKjaaOQu4SAEBACQuBMElAfpyrJnt1pZ8umLQwaNKhVKwSLQDjF1VcLpZIlqV/KWbElm1KKSiSo3wcP6U1u1assWflXCpZHMcE2DI9fJfsGriQ17QYGdruVQL0/nz38JAdqqllWfBi7o56br7+e22+/XcstIU0ICAEhIATaHwGH00FpeTGFJfl8/eU33HDdTSQmJLbaREQgNAL1tGnTtMRGKllSSzeVnGn37l3s2reChsDX2L2rCFuNHzqdi0gjpPR1ERU5kNIdncnfVUBVWT39x1+ILz6Z9WtXc3D3DubOmsmdd96pmaWkCQEhIASEQPsgoD5IG+z15BceojB3E/k5u9EHpDJg8DmkJXfFZLK0ykREIDQC80MPPYTyEVD5EFqjVVZWcPvdVxDdfyMOmxVzSTDlkSUEBHro1dmN/rAFw85gwgK6EzL2KnSBEWTtO0DK8PHs37kdk8vG3Xf+SgRCayyWPEMICAEh0EwEPB43JWVFZO1bxq7v3qbe7qZT12Ek95xEWmpfIsJi0LVClJ8IhEYs6Ouvv65lUtyzZ0+rOIqozI0vz/8HmzL+TnSaDrvdiMPnxE/nIjkCEosDKdwWRE1sX4KmjaOLfyLmmlqqdf6UlVVz1603YjZ+X/lSmhAQAkJACLQPAh6vh+LSfL5b/v9I3/ANsQmpdOl3DpExnema1oeQ4PBWeQeJQGjEfmltgaCcUw4c2M/7779FZfVnRMTbIbQSW40d7yEr+tIgVjVYKLmgO2HDYulvj2NIeQQFS9czeNzlzL3o4kbMTi4VAkJACAiBtkJgxcoV7Nq7jciAMozeSgKiBtKj9zg6JXXB2EoffiIQGrEbWlsgHB2asiS89cLfKM1YjCGolCVbijFV+eg+KJqNQ1Ko7R1Pot5IaSd/+u8uped2K/c98G/MFr9GzE4uFQJCQAgIgbZCYM2aNVpF47TOyYCHgIBQoiJisVqsrTZEEQiNQL106VLuu+8+tm3b1irmnR8PrbK8gpVfLmL5m2/hqqzFRT1JXV24e4ewaXAnypPDiM0vxrSimEcuepLBwyai14tzYiOWVy4VAkJACLQ5Am6PG+WTYDKa0etbNwGeCIRGbIeqqiqtquOll17K+eefj59f636hqzoWC958i2X/fR9TvZ2oIB3B4fUcnhxBabwfDWuL6G8czmNP/Z2AwMBGzEwuFQJCQAgIASFwLAERCI3cEf/5z3/4y1/+wpIlSxpfWKmRzzre5aUlpWxYswZfg51OcfGk7/iOnJpssvJy2L4ti3ff/JTevXtL5EIzsJYuhIAQEAIdmYAIhEauflFREYmJifzpT3/i/vvvb3WTjxquypGg4mRVfgNVKtrtduJyubVfkZGRrX780UiEcrkQEAJCQAi0AwIiEBq5SMrMr/wQ3A4X8599Dn29B12kP1gknLCRKOVyISAEhIAQaMMERCA0cnEaGhp4+bkXsR8sYvaoKVj8rCR2SsScGgXRgWBoXSeSRg5fLhcCQkAICAEhcEoERCCcEqYfXeTx4ttXSsbmXVz7zL3UOOv55OW36BYYiy41Al1CSGN7lOuFgBAQAkJACLQ5AiIQGrskdU68W4/gCLfw9Z71LHn7U66ffgkDuvbCFB2MrncMGMWK0Fiscr0QEAJCQAi0LQIiEBq7Hg0uvJuPaMcJDZEWtn27BltWET0S04jslULA0FTQ6xrbq1wvBISAEBACQqBNERCB0NjlUEcM+4vx1TjQd46i1lHPO8+9SpfQOGxhBobNnqJFEkiZ5caCleuFgBAQAkKgLREQgdCU1fCBL78Kiurweb3YvE6+2bGef/xnviYOpk+fzuzZs4mOjm5K73KPEBACQkAICIEzTkAEQlOXwOuFOie+Oie6cD9qXXY2bdrEG2+8wc6dO5k5cyZXXnklXbp0wWw2N/Upcp8QEAJCQAgIgTNCQARCM2M/ePAgn376KcuXL9esCWPGjOHcc8/Vkiu1VgWuZp6SdCcEhIAQEAIdkIAIhBZY9NraWvLy8tizZw8bN25k3759REVFaTUclFiQJgSEgBAQAkKgrRMQgdDCK7R//35U2U5VCVKlae7Tpw89e/bU6iV07dpVsyxIEwJCQAgIASHQ1giIQGiFFVF1E0pKSjSLwkcffaTVT1i1ahWBgYGkpKQwcOBA5syZo4kG1XS678Mk1e9H/9wKw5RHCAEhIASEgBD4gYAIhFbcDG63WxMKTqeTzMxMtm3bpjk2ZmRkoP6fEgxpaWmMHj0ai8WiCYchQ4a04gjlUUJACAgBISAEvicgAuEM7QQlCGw2GzU1NagCUIcOHdL8FVwuF8uWLdP+n7+//3HzKXTv3l0TD6qq41FLQ48ePejbty9+fn7a36k8DMopUq/XSxTFGVpjeawQEAJCoD0TEIHQhlbv6Av/6O9KOLzwwgtaaecft8LCQtatW0d2dvb/mYJ0Ojwej3atEgUTJkzQRERSUpIWbqn+TgkGVSL6p8cWPq8Pt8ONV+fDYPz+OmlCQAgIASHQsQmIQGjD669e9ioi4qdNCQF1TKGsED9uCxYsoLS0VBMJ6enpHDhwQBMGypqQmprKFVdcoR1ZKMdIJRRUfgavw0f22iLee3AhpcmH6DulOzfffpN23/Gaeq7kdWjDm0aGJgSEgBBoJgIiEJoJZFvo5qgFQY3l6J+VFeK7777Tkjdt3ryZrKwszRlSZXmcOGIy4RXxfPPURg6W7SXenIxxaANPLniAAKMByh0QaqbW6CA3/7AmKj7//HPNOhEeHq4lgVLWiFp3DRWucqx6K5HmaAw6Q1vAIWMQAkJACAiB0yAgAuE04LXHW1UCp48//ljzc6gvtXOO52J0Fh1l5SV0N/UjZVAC178wBeOmCmxfFGAdH8GqwL3c99zjWP39KC8vp6GhAeXz8Mabb2AOMLPJs47F5Z+T6t+FaxJuJN6ahB6paNke94eMWQgIASFwlIAIhA62F5R/g7IuqN+XL1/BxhWb0a8JoyyjGldIHcMvTWFKZT+WLK9mmSeQse5ydA0bcF4dRmWwg2EjhxMREcGTT/6BPcW7qe5aQuzYWAanTaW83kmPlFAu7XQRA4KHYNSJL0MH214yXSEgBM4iAiIQzqLFbMpUvG4vRXsqWLlgLV+tWIB1XxUDLNfxkcWC2RpNQmAQM1wVnP+bJPxmx0OwSXvMvox9vLrnRb7Wf0rDi7GM7jWPI9XA6IUMG2bkgR4PEWXuGMWqlM+H0+1Br9dhMrSf4xW7y8ehAjcOl4+UGCNhQWL1acq/IblHCJytBEQgnK0r28h5qfDKvRt2kPX8VjZvTGGjFYKMZozGBMY4q7n+zghCL0uACIvWs9PnZH7uc3yc9Sm7f90DnXkspkADhngb42eX84fzrqBzUGojR9H+LlcBJukHcsguLSMowI+h3VIIDwxo8xOps/vYdMDBtxvLaahvYGgPMzPGxBMcYOR/ebp+NgcVPaOOmFQLDQ0lPj7+hM6sbR6ADFAICIGTEhCBcFJEHegCpxfv7mqyntjOZ9k61rgCGW4vYWxYJdG/TSN5Rl/8QwM1IB48rClbyXMHXiT7kyHkr4jFZ3ATnxbPJZf4cfv0oYT7BZ/V8GodDr7evovF72yjIq8WU5qBIRO7MnvwILrFxrbZuVfVefl4rY11WzIx1m7EWLOZel8IPcb/jssmRtIp5liRoISBygC6cuVKLV24ajExMdxwww1abREVJSNNCAiBs4+ACISzb01Pb0YOL97FhRQuLGLr1kp0vlzSdRvYm1zB9b+6mYkTJ2pZHlWr89SypnwV/03/lg0Lkqk7GMyM8/343Y3j6RaefMIv0dMbYNu42+v18cXa7XyyYDNVW4uhpp6g5DjKOzUwZlJPbpt2DhGB34upttJURMvWrVtZv7OUtYfi8BUtItm4ghqbB3+Tndrg80lM7IKx/iDwfRIu1ZRTan19PXFxcQQHfy/6vvzyS82PZdiwYdx8882a06o0ISAEzi4CIhDOrvVsntnYPZBtw5NVQ2WAnVV5W3ngD48QFBTEn/70J+2r8WieBC9e0ivSWb/jAJ++uoaxfTvx5EMPNc842nAvLreXx15YQMaiIxjL7JgjDRgqg8mIKKQ+uY7Hr5jF7PHj2kQtDeUjUVBQwDPPPMPatWspbojFP3UWvQLXEu9ZwqGaVBICC8AQTLZjKFH+9eh13yfnUkcJAwYM0IRhp06dfsjUqdKEf/bZZ/zjH/9g+PDhzJo1i5tuuknLkSH1Q9rwxpWhCYFGEBCB0AhYHepS9X5QB+w6HQ6nQ/tifPzxx7UkTK+//rqWpfGoJcGHj6LSQua/Mh+3w8Mf//jHsx6Vy+3hrhdfY+GKjXTfb2ZYz7GkjYtlef1eFq39lvOT4njqvvvo1q1bq7FQ66Dj+0JfR5tKbPXpp5/yl7/8RYteUem7D+VVEzfsfvr36U6PwLXkbJ5Pgy6RyvDbuO+6waTE+aH/Xzfq+EBZDY6m8P5x39XV1ahqpffff7+WlEsJhX/+859aPRFpQkAItH8CIhDa/xq2ygyUefrrr7/m97//vZaNcd68eZqT2tGmsjqqM2p1Vq1Mzmd7kSk13/vnzeO1NesZGjOAif2H4Qhyk+UqgYICSjdv4nf33suUKVNa/Iva6XGyvTidbcXpxAclMDx+JKGmULwer5aS++6779aOCdSaqRLjdbYGjEGprN5nYfe+fdjK9hEd5sfVF09hcI9ILOZjRcbJNphKwKVEyPz585k2bRpz585l6NChWppvsSacjJ78fyHQdgmIQGi7a9PmRqZeiitWrODSSy/lrrvu4rHHHjumbkNZWZn2d2FhYTz11FNa5sWztakU2MOGD+fCiy7C2aUbm0v2EZaWy4V9xnJ+/ExeeOZFDh48yEMPPaSZ6Fuq2d0NfLz7fXbtWUUoAezTF3O4sJDAbaF4yn3s3btXM/8rYRcSEnLMmtQ1+NiVbcfu8NE9yUhchKnJL3S73a6l+VbWpRdffJGpU6fyxBNPaCLhRDVAWoqJ9CsEhEDzEBCB0DwcO0wvyqw8Z84cRo0apb10fuzBrpzW3nrrLVavXs29995Lnz59zlouap7qKEXN1RdgYnnJIr6of5aeIf2ZE3ULZAXy6COPcdFFF3HNNde0CAd13PNt9mLeX/f/6HPYQoIvhH16Hx9XLKaqwkbNJzYmjp/IG2+8oSW3Ol5zun3aSZLJqPvhWKGpg1XjycnJ4dVXX9WKjKn1V/tk0qRJmjOjEo6qnajOR1OfK/cJASHQMgREILQM17O2V3Wm/ec//xlVGEqVp1Zn2j9uuTk5/PMfz9KnZw+uvuYaTFZ/dCco/NSeIakv5SefepKXX34J3+ByVtd9RopfD/bVb8GoM3FJ+K9Z89p2li9bzpNPPqkVy1IWlaMvyeaYe727niWbFpC5eilFO8oIDfWjc3wc6brDrLfmc55hNjddeTMx0THN8bhT6kOJRHWc8dVXX/HSSy9RWVmp3af8H1JSUjTRcPHFF2vWDNUCAgIIDAzUHGBPu7Zr5lYAACAASURBVLl9WvExnVmHztS4Y5LTfrZ0IATOQgIiEM7CRW3JKSmB8Le//U37KlUFoH4qENTn6HvzX2Dblwu44sZb6DlxOpbQ778c20TzuOFoFUyjCZp4DKLCBVUZ7RmzZ3D5fTNYaf+IPbZN+BuC6e43kNlRt7Nr5X7mPf0XlPm9X79+REZGcvvtt2tmfPXLarVqRa+a2qrqq/hy0/tkrF9BUKGOAJOZ4KgQtloLaUgN5Mkp84j0j0KvO7MZEtUxhxKTykdFWVxUyKTD4dAsCcrCoPw0lN/CUX8FdSShHGDVr+M5Rx6Pl6/eiyPLgX1PPZZufli6W9EHnNl5N3Vd5T4h0FYIiEBoKyvRTsbxiwLB58NRXcm6d19n9+fv0qP/AHrPuoq4IWPRa8l0zvBXXW01vtxM3Edy0RlN6Dulok/pCubv8zo0pqkX3NEjhoVfLKTBWsXC8teINSUxNexy/AyBeNxerSjWwoUL2bNnD8rRU/lx2Gw27Xflm/DOO+9oX9GNbSrz5ZYtW3j7q/+wpeE7Rock090/Ec/QFLZW72JOr4uY3nlmk30KGjueX7r+aP0PZUVQ8961a5dWWVT9Wf2uIiDUvlKWB9VUvgWVV0HxGTNmjFZ5VImGEzWLx4J3pYuGjTaocmvcg+dEEDQtFL2//oxvu+ZkKX0JgdYkIAKhNWmfBc/6JYHgcdjJXbqQTZ++zYYde+gWEUREdDTTnnqZkMQUdIbWK96kHATVC0k1PT4CvW7CD2dRm11IlTESvcdJoKuK8OH9MfUZAH4BWkjnqTb1clNOeCoPQF5e3i8eHaizedXUeFRYoBILSji8//772v0qr0RCQsIpPVq9RNX9ynrzzTffoHxCJs+aCL18FDcUYDX5Mb3bTAbHDcVsMJ9Sn2fyIsVGCabdu3eTm5urDSU/P1+bn+KqMjeqiBgliJTQ+GkzYmSEZyiDnf1JGBaLqcyFXueH/bCX4NlhBF8YLpaEM7nA8ux2TUAEQrtevtYf/C8KBKeD6pwMCjYsZ9UnH+K0N5Dj0PHQa+8SndIZfQsLBPWFXlJSor1o1MtXmfZVCzMbGR1iZXB8V3YGDcIXnURsWAjm4mw65y8jaNI5GHr0A9Opv1AbIxCOt0rqq/myyy7Tvpwvv/xyLTIkOTn5h9wS6h6Hy8WuvHyVypA+aanai3PHjh1agiKV/viqq67SwgpjY2Oxu+0U2woJtYYTZA4648cKzbEzs7Oz+e6777RIDHWko5j/tFm9Vibax9LJE0dSYgQNNhexzgTMvgDtmCHmySQMUa0nTJtj3tKHEGgrBEQgtJWVaCfjOKkPgnqxVZVTuHk1e3Lz+eP8N7nx1tuPcUxr7qmqr1D1Vf3JJ5+wadMmzWSvvsjVGbeyCcT6XIwy+CgPHcy7e7MZkgw3jBuOo8aBKWcvftEhWGdfgS7k1H0lTlcgqCOKzMxMXnvtNe2Frxz4Zs6cSe/evQkICsLl87G7qpp312+gpqSEywcPJCt9K+pVN3XKFEaOHKnloTjb8wwctb6oPfPjPx/dQz6Hj7qvq6n6vBhvgIOiwnwC60Pw84YQMTeWkCvC0QedveG2zf1vSfoTAj8mIAJB9kOjCJyKQABlUlevZh+33nqbZk7/97//zfjx45s9N4I6h1fOb2vWrCErK0sLwVRf5t27d//hWb68HOyrl5NeHcn8jVuoz1zDlYMH0ysllWhHOfrQUIIuuwp96Kk7DJ6uQDgKXVk7VJZKlUOgoqKCw4cPU1lbiy4pmcN6E76aahxh4QQ5HVw/YihXzJhBcmJio9bsbL/YdcRJzeeVuDIb8BTZKC0upyK5nnHzJmGMMqkzJmlCQAg0gYAIhCZA68i3nJpA+D9C6uWtPNTVF68Kj+zbt2+z4FPHCcr577///S81NTVarQCV1liJg6MpoJ14KaKe6ooiYjdvpzrbxSZDLKs3LKIs7wjTR05iekAFQYMH4T9yDDo/v1Mem/InUPH+Kt/DK6+8wtVXX33K957oQmVSX79+PXn5+ViSklmbe4TNu3ZijozmjnOncvmoEcQEB5/1VoOmgHQddtKw2YY9q56FKxey0rmWJ+c/pVlmzuaEXU1hJfcIgVMlIALhVEnJdRqBxgoE5VimXqCqyJP6qv/Xv/5Fr169TvuHtjrDv+2227T4+fvuu0+rA3BUGKhx1rmdfOnKJhsbOo+HgHobYzbmEHfYTnaDnpIjmSRa9WytLuPyx58kKDauUU6K6hnq6/8Pf/iD9ruykjR3W3fwIG+uXkdieBj3TJtC2E9yTjT389p9f04fnnovB48c5OIrLmbs2LE8/fTTWsEpaUJACDSegAiExjPr0Hc0ViAoWOXl5ZrToHqZKgvC3//+99NOP6yOFG688Ubty/13v/vdMeLA5/Xycfl+DjaUM+iQAUutm8I4A/Ux9YzaW0RcXj1eHyzZtYMXVq1lwTdLiIlpfDIhZblQgmfRokWaM11ztzqHg9zSMgKtVhIjwjE0IsqiucfS3vp77rnntAJVN9xwg5bx85fCJNvb3GS8QqC1CIhAaC3SZ8lzmiIQ1NRVchyVnlh97atKkCoVb8+ePY95sZ8KImWR+Pzzz3nwwQc1K4T64a8iAI42d1UDhRsO8t/+dQy2RjPEFca6hgL26WooCnEz3hDJNHs4Fr2JUls9F8yZqx2BKGtEY780lUBQYYqLFy9uEYFwKjzkmuMTKC4u1hxjVeTHe++9p4VKSopn2S1CoHEERCA0jleHv7qpAkGBUzH7qiLkHXfcoWUVVF77f/3rXxt1pr59+3ZuvfVWVLEkZYmYMGHC/2Xb83ipXZlFYUUFn5xrYJx/In104azyFrDPVU6hvZbh5jhmWFIIMH6fHEl9ZSprhDoGOdVcBEc3gSpOpawYBQUFWsIfaW2HgIp4UKGgqrJoVVUVzz//vCZMz/aoj7azAjKSs4GACISzYRVbcQ5KICizuopKUDH5P0u1/AtjUT+0lSVBveRVlUOVCEdV+7vkkks0K4DZbNb6O2oOVpECy5cv18IBVflg9TJXvgcqPbEyHasvxGNS8brcVH22G6+/iU8n6ag2uJiaG4jncDUHg+3sDXMwyZDAiLhUDBaV2RHtxaH8I9auXUuXLl0aRVK9gJTvgyqEpASCmLEbha/FL1aOpMqR9f7779eE5LPPPvtDDYgWf7g8QAicBQREIJwFi9iaU1A/dFVoofoyW7p0qZYGt7FNCQV1VKAq/1133XVaIhx1XKDS6qp+VS4A1ZQJX72AlSOiukcVOlKFj1Qoo7r+Z1+DLg/VC3ejMxrwnZfG16YCdjrK0Nk9mF0+ztngZUBIPIEjUtBZvk+eo86qVYlqNaeuXbs2airKiqFKG6tICmWBUOOXL9RGIWzxi1UGRpXO+je/+Y1WVVOVIQ8ODm7x58oDhMDZQEAEwtmwiq08ByUSVNjiFVdcwT333NPkl6ISCerL+9tvv9VmoKwFKhXxTxPiqC8/lSdg0KBBmmBQlobjNo+PupWZuI5UEjSzN85QE9k6G0UeG6klBkLWFxHQOQprv3gwfB8cryoOKmtGUwSCSnakihApkaMKDqnjElWZUM66W3lDnuRxyup05513atYn5Wui/GBOuIfa1tBlNELgjBIQgXBG8bffh6uKjurl+MEHH5zWC1GJhKM59tXvKhpA1VFQTZnsVXlgFfmg/qy+zk/28vXVO7Gtz8VTVY+5cwS6QAvu0jo8xXWY4oPx6xePzu/74wXV0tPTOe+88/joo48YN27cCRdERUZ43G506NCbvh+LakosqWOKt99+m8TERC1So3///u13Yc/CkSvBqQTm3XffrQlQ5cOijqh+HBZ7Fk5bpiQETpuACITTRtgxO/jPf/6j+QSos/vGev+3ODEv1K06iDOnAp1WztmHpXMk/iNTf5ZVTyVcUpUDVbik8kU4ngBxO5zUVFRSX12t/f/AiHACQ0LQG79P4asKKKk0zyqy4uWXX+aCCy5o8SnKAxpPQBWEeuCBB7TiUGrvqmqRYkloPEe5o+MQEIHQcda6WWdaWVmpmfvnzZunRSO0uWx1bg+earv2yxDqhyHEDww/r9aonCanT5+uffWrkMWfCgS7rZ6i7FxKcg5jMpnxuNyayIjv2pnY1GT0/ytDrEoYqy9T9ZWqsjn+tK1evVo7IlFHENLODAFlSVC1Oh599FGtMJYSdI31OzkzI5enCoEzQ0AEwpnh3u6fqr68VRRBamoq//znP9vtl5g6IlBWEOU/cDTU8ejxgaO+gcN79lNfXUtclxSCIsK1Y4ayIwWUHckjoWsaMV3SNFGhQh2VWFIOcMoR7qdNOTOq0E4VsSGOjGdu+6t9q8pkKwuYclpUOTCkCQEhcHwCIhBkZzSJgCql/MQTT/yQJOiYcMMm9Xhmb1JhlOqL8sILL/whXLGysJisbTuJ7pREcu8euBwOKvKLKDyYTUFmFkGR4QyfeR5mP6smEJQwUF+pSmgcrylHOWXiVlUY25zF5czib9Wnq+iTxx9/XAupVbU0VHSMNCEgBH5OQASC7IomEVAOhSrF8OWXX87WrVu1QkntuamXt/qyV5YEq9WqvejVsUJ+xiGSenYlKjmRzM3bSF+8nKriUs2SYPHzY8ylF9JlyACKSkpOKhA2bNigWVyioqJO6mzZnlm2h7GrIx9VbOv666/nnHPOaQ9DljEKgVYnIAKh1ZGfPQ/MyMjQHL1UCmV13PBD83rxVdRrZ/66ICv8z5mvLc9cOa0tWLCAFStWEBAQAD4fZXkF5O7eR1znVIxGA5u/XII1KID4rmkUZuVQmJGNXq9j/NUXQ6DfSQVCW55/RxubOmpQmThVdMztt9+uJd+SJgSEwLEERCDIjmgyASUQjjr3qfhy1Xy1dtzbsnGnHwafF2PPeEwTe8P/EhM1+WEtfKOygqjjhWeeeYbLLr1UK4xkr68na/tuPC4Xjrp6cnbsYcCUCfjwkfHtJqoOFWGvqGXAddPoe/5EzaKiilKpvA0q5FFa2ybw2WefaVlBlXOqErrShIAQEIEge6CZCCiBoLIeqiRB6uXoszlwLkzHW1iJcXhndF4f7g0H0adGY5raD52KJGijTX1RqgQ6y5Z+w7//9GvCdHVE9x5DWPJACjJzSP96KeVHCkns0RWz1UJoXTABz5VRaanG+lQfhlx6rnbU8qtf/UorIKUiI6S1bQIqQZdac5U2fMSIEW17sDI6IXAGCIgF4QxAP1seqRIaqURG6ofrymUr8GYWU/rlCqpTjFi6JhBZH4JpfzmefQVYLhmBYWCnHzIYtjUGqsbE5wveZ8WH/6STNYCaUgu9hyQyavYcIruPJu9ANtu+WYG3zk0fW1f8t3modlbhn6MjYEIi8fPGsqM6Qztq+fWvf62FO0pr2wRUqnDlpKiyaY4aNUqiS9r2csnozgABEQhnAPrZ8siKigrNRKusB6++Mp8ephC2ffUem8L2EmAIZFRRL+JKAzHVerHcNBHT8M5g/D7FcVtrbkc92794jowNa/nkg0LqaxykJIcz/vwkBp03g86j5+K0O0lf8A32BUeIOxCEPcxDZGEQ1pHRhD4ygExzMbfccguzZ8/mt7/9bVubooznJwSUKFQ5K1QVT1XQSeVGkCYEhMD/ERCBILuhyQSUp78KGVN1Ge6979cMHBjPkkXPEx7XiTJfJQ22Ks43nU+vA2H43zoFffdY+F+K4iY/tIVudNgqWPPqYyx6/yDltW6qaw5jrAskPlnPhXfMYcJ192Kw+KGyKhZl5qDLseO9dz+mPqH4/6E3gd3j2LZjm+bw9vDDDzNr1qwmj9QH/DylU5O7kxt/gYCy+ISEhPDII49oESbShIAQEIEge6CZCKg0w6qGwaWXXcTMueNZveFdbHn5OBz1hOnCGKEfRo8ZczB2iUP3vxLLzfToZu3GZatmx8J/aFkTVy6upji/HKPBRpe+UIqehvDeDBg8THNm69m9O7r8enI/WoejrJqKIA+uxAjyfeUcyM7gmXnzmpw46ojTxlcVRwg2mpgckkC0ydqs85TOjiUgAkF2hBA4MQGxIMjuOC0CqpyuyiFw6NAhlixZQkHxAdZv/4TAzHqGWoYROnIghl4JbdZy8MPkfV5qiw6xZ/ErHMmqZP+2crr0CqXfxKHUBnTmi2/XaBkXd+3cxdMP/560SoMW2hg6qAfv7D3M6vR9jPLWM/Wi8cyYNUMLf2xMU1aDSreDT/IzeH9/OvqQAG7qMoiZEZ2w6AxiUWgMzEZcKwKhEbDk0g5HQARCO1lyVU3Q3dBAfVUlJj9//EJD0enP/Hm+2+3WHL1ULYKvvvoK9G5cLgelBUU4nT6SU1IJaCf1BxTjhqoS9ix6AXt1MWGd+tFl7GVYgiO1xElKBD3y4EMYMkoZFJ3KgdRgiq2h7K70YnW7sFusPDC+L1dfMQN/6wlKUp9gv3nw8XVVPgsyd7B92UoC+nSjU2oqT3UeTidzIMY2ejTTTv75nHCYpyMQ1J7IO3JEK1YWFBTU9kVwe18sGX+rExCB0OrIG/9An8dD5cEDZH+3lt2b1xCV2IUhM2YT1av3/6oVNr7P5rpD/ZB87733tPwBzz33HL2HD+VIRRkvz/sb65Yu087iH3vsMfRYydpjJzBET2KaBf33hRDbTMvPz0dl11PHJbHREXhcDkyWAHQG4zFjPHL4MN+9/glVu7PZHmvG3X0g+7fsx44ej9XKPReM4fILRmFqpHhTAqHW42J1VQH/2b2J8OgopvjHMCWxC8EGs6oPJa0FCPzud7/TxK1KlKXKijemORoa+OOtNzJr8iQGX3Qp+AWISGgMQLm2zRNodwKhvsFNRYUdfz8jYWHWturz1mwLr75q6wsK2Pb5+6w6uIIcXymdXVGM7TKe/pdeRUBs7Bm3JKgUwnfddRfX33orseOGsaPoCCveep+tn32Fq87G14u+xt87gKXvNxAcoefye6KITjj2xdtswJrYkQp5U0clKnW0clhTGfaO15QgqtyfS+43GwntnowhLpK7P1xGWVUt5yRFc++V5xKSHNPEUUC91823NYVEGi0M9A8nQN+2ODV5Ym30RpXYSokElQ104sSJpz5Khx13Xi7L/voUfRITiZ08HUdMPP7JqaCVGJcmBNo/gXYlEDweHzt2lbFx0xEsZg/Tz+tOTHTwWS0SvC4nR1av4rNFr/Ce/26i6s2M1CfRxx7PoIuuIn7kKPTmxpmzm3vbHsjI4C///AcBPTvjiQrDa9Rj9vdj84cL2fv1Cq6c/BRhhnFYzEFkbK9n/IXBzL4lgoiYtvODVCV9evrpp6mpqeGDDz7AZDL9IqbKA4c5vGwzzmobB+0OSIxmxKi+pPVOa2680l8LEmiyQCjKx730SzL37aWoqpph0eHUJaYRfeUNYPVvwRFL10Kg9Qi0G4HgcHjIOlTJ519sJjMrB5M5hHFj+jHpnM5ER7XdDH2nu5Rel4sja1byycIXeCdoF5EuP0bpOjGgPp7BF11F3IgzLxBKSkqY/+YbfLH5O/rPmIYlLASzTk83vyAqjhRg9PSnYEk4YQH+HEhvYPT5wVzyq3Ai44xtRtw5HA5U6l0lDNSxiCrh/IvNB3V5JVRn5aM3GQjpmoR/tFQFPN393tr3N1kg2OrwZu4nd9FCbCVFdD9nCr6Urph79RMLQmsvojyvxQi0I4HgZdfuI3zw0Trsdi9mcxDjx/Vi5IgkoiLP3lAwdcRQl5fH1s/eYdXh1eRRSW99IqOSR9Nr1kUExCec8SMGlXBGvVwf/P2jTP/1HTQE+ZEcEUpctxhsZi9uh5eDK7x4FiWQHB3MlXdGkdLdijrebyu+d6o6ZXFxsSYMoqOjTzmrns/l0ZIW6NpBQaoW+ynSjjtW1iKVJEmlyFbJrU5mOfrxVL32Bg4veIfqgnz6XXYNusRk2pxzTTteGxn6mSfQbgSCzwcOh4v9GWWkbysnPs6fMaMT8fczc7KPvTOP+TRH4PNRX1xE1ppVrPjwPQZOmsag2XMIiI5pM2/Y/fv38+ijj7Jq/Tr8usYx5LdzmDZsHD10caz/eAXlxloqAwLxdQnkuuAejOs1+DShyO1C4PQJqGyg06ZN04qOPf/88/j5NcIa6fPhrKvF6XAQGBoGJ/BbaeoovV43Lp8Tk96CXtd2juOaOh+5r/0RaDcC4ShaddRQU+vEYjEQFGhuM1+gLb30Pq8He3UNlYWFBEVGEBgZdcYtBz+ec2lpqZbT/t+fvUvKnJH4Gcyk5UbStWwg9lwfFZSwTL8A/eRozp9zIQ8OnEOQoRE/jFsasPTfIQl4PB7Gjh2LimLZsWOHFrJ4Ks3r9OAsb8DgZ8IUbIZG5r042TOqGorYcnghmeVb6B49kpEpF2M1Bp3sNvn/QqBZCbQ7gdCss5fOmo2A+kH79ddfc+cLTzB44mjOX2nGnBHL+roKsr3Z9DF68OnzWJGso/+8y/jdkLn08I9rtudLR0KgKQRUVMo333yjVeBcsGCBVqb7l/xPvA0eStcfpnJ7ER67Gzw+rAlBxJ/XBWtMIDpD4xJkqTGrMaiEY3l5eaxcuYLFqxdg7ZRHn2ozPfcFcuRcI3HjJjCt7134mUPQSdqspiy13NMEAiIQmgBNbjk+gS3b0vnz+68wsyaJcYtMWLxu3vSsoSq2jqh6F2ZXAHqPjf23jaDfhdO5tee58qNONlObIKD8D1Qky+uvv05MzPHDVH0eHwVfHaR4RQ6BXcKIGpmIvbyeio35OErr6fnAGPziAhtdSEPVM/nyyy956qmnMPn7OHdWPAnby0ndEUBpXQOp1iCyZjgIvmQ8M4Y9rIkEaUKgNQiIQGgNyh3kGYcyM1nz1P8jIVOHviSIRLsDm7eMNfrteA2dMHhq8FFE9qRkLBeO48+z7xSB0EH2RlufpsqD8Pjjj/PHP/6RSy655Ge1NLwOL0XLDlG1s5jEGV3xTw5FbzHg8/rw1DkoWX2Yim1FdL1lMH5JwSedrnKKraqq4ttvv+Xdd9/V/qzycPQb2pXtW1/H/ME+wu2xVDYUEVHmoyCphpzborhj0n8ItkadtH+5QAg0BwERCM1BUfrQCGQdyuLJV/9JyiEvl+1KRF/r5S/Vy/jOlcd5gYEkWCIpiRvL/tvcdKrzMe/uh9Gjx6QzidlU9tAZJaDCXG+99VbtS37btm0kJSUdM57ag5Xkf3GAwLRQ4qd3RW82aEcMR48ZnOX1ZL+zi5BeUSTN7YXOeOKjhiNHjpCTk8O8efNQvjvnnHOOlqBLZXKsdZSxaN+/WP7FYrouhuH1kVRNiOCzxFWEhfbkscveITQw+oyykod3HAIiEDrOWrf4TFWtgnseuZ86XNzmHYF+VwRfVOxlT902BvjFkRjfg5yLDSRNTeW6gcMp91YQYYgg1ZiGAfHSbvEFkgeckID6oleptq+66ipeffVVzjvvvGOurdpeTOE3mUQMiyNiXCzofdTuq6VqeynuOidelxdbdhX+SSF0vWUIer+f59FQdUvq6+s1S4ESIiqttyoNPmzYMFSUlmoq7HdPyQo+WvcX8j/bTR93d6wTQtlDLjs+0rPg3S+IihSBIFu5dQiIQGgdzh3iKXV1dVqa4s3b05ny0A00NKRiXOeHIbOEeksdh0dmM+XcwQzpFEu6ZwPbnFvpaurGudbzSTGmYtWdvfksOsQGaOeTVFk0Bw4cyG233ablRvhxq9pVQuGKA5j62fD1OYLHa0N/JBbdvkT0DX54HB5qD5QT0jOatJsGaBaGnzZVzOyvf/0rKrRy7ty53HfffXg9FrIz7VSVu4mKNZOUYiEgUEdu1U4+WfcCXksNSVE9CasdzIVTL2H58hWMHDmynZOW4bcXAiIQ2stKtZNxPv3nP2tVHW94+q+sDkkls7qaTvk7yDm4kuo9+7jlvNk0nF9LpiGDoebhLG34lv7mAVwbeANJhuR2MksZ5tlIQDkLDhgwgCmzZ3HH/fcRExhMlL8/ep0OW1EZuVtWUWfZQ1jfBEwWK/WuIoKMnYm0jMBbYiFz/jZizkkhdurP020XFBRoNR/U8cXtt9/OLbfcittlYP2qarasr0GPDrOfnr6DAhgxNpiAQAOvvPYCvft1Z3C/EdTXObRjjwcffFCLuNC1lQxjZ+NGkDn9QEAEQjveDA6nC2W2tFrMGNpIgRjlBf7uNysIufwe/FK6cqTeDcVZ7H72Mep3bKJHv87c/Mr1lCUX48WD3etgjHUsoyxjiNBHtuPVkKG3ZwIq1DB92zauuucedFEpDJt2HiMGd2dcajI9wiOptR3gcMkXuA/4Exc1AUsnPXWmAxTWLiXaMxn9pq405NeRNLcn/sk/d1L817/+xWuvvcY999zDRRddhNUazOZ1NaxfVcPIccFERpvYudVGziE7E6aGEptYw333/5oLLriA2bNna2GQIhDa8w5rn2MXgdAO1+3w4cPsO5BBRV0tDfYGUhITGTVsOFaL5YzPZs2aNTzz/96jeui5dB0xjtwGLz0DdHx27w3U7snEYg7gsYduYPz1w9jp3k5vY18GmAdqzorShMCZIuD2eHho/iusPZSP7VAQeoePlKFhjJ7en2Hx8fQKK6W0bhXGg2k495mxR2TiTSrGGVCM+UgqEXnTiZvWFf/En4uDZcuWab4G/fr14+9//zvBwcGUlTj5978K6d47gHNnhJG+qY70TbXk5djp2TcAY+AGnn/xaa2M+pgxYzTfhdGjR3PllVdqfYkF4UztlI71XBEI7XC9v/rmW/77wQf0C68mKchFZchQuvYfx5ihgwkKDDgjM2poaCA7O5slS5bw9ttvM/SKm/FNvpQKp5eLTbXM++295OaUoTeYGD2iH7fdeSmD+3fBbDLhr/MXgXBGVk0eepRAvcvF3W99zPZ1uZRuy8QaGENouD/dzutKj4GxXN87nFr7cqy6BCx5XamvKaGG3dRF7CbGN5mkqOlYo1UOhGOjF5SYZ225pgAAIABJREFUV/4Mmzdv5m9/+xsXXnihZu0rL3Px6r8KSO3ix/lzIti/y8b2LXVkZdjp2cef6ORMvtu4RIusiI+PR/n33HvvvVRXV2thkSctJiZLKwSagYAIhGaA2Jpd1NTW8tUX73Ng+Rv0sRwhOkiPyy+GHa7ujL7gVoYOG93qPzzU182BAwew2+1YrVbNlBoZG8fMm+7ALyCQnK07+ddL77N9ezput53YxB7ccs0Mbr7qPPz9xDGxNfePPOv4BCrsdv7w+XIOrsknc1MGZr8AfCYzwQON9BmczG9GDiEh2kmZbQNujx1cOhrs5cREDCc8YAgW088reZaVlWn/Ft555x1uuOEGrr/++h9SOTudPvZsr2PJV5V06+VPbLyZfbtsmrPipPPD6ZTmw+W2ExYWpgkK9W/s2WefRVWf3LlzZ6v/G5d90zEJiEBoZ+teWl7Bhm//i27XmxQX5GMxG+gXC7sdScRNeoTxk2e2+g8Plcd+3bp1TJ8+ncDAQO1LKT09XcsM17lzZ8ora1i8ZCWPP/M69Q64cOogHr7vDuLjIjCc9ZW22tkG66DDdXg8vL97N+sO5pK3KI/MPdk4TQdJPm8ItiNHuLp3H+658w5srsOU2Tbh9toI8etNuLUfBr0SuT/Pe3A0hbPyIVCWAPWy/3Fzu3xs21zH6iVV1Na5iY4xM3JsML0HBGC2HHvkJgKhg27MMzxtEQhneAEa+3iHw8n671aTvmYhaXWriaGIdeXR5Fn6ctPtD9K3T7/Gdnla16tSz0uXLmXQoEHExsZqfSmBsHbtWu38tEePHtrfFZeUMvX8ywkIDuaOm67kqsvnntZz5WYh0JwEVBqCEpuN7wryWbR1HzWVNRSWZFKemcGRFasZN3CQ5iw4aNAAevTuBDoPZkMIXq8Bt8utDUU5DG/ZsgWVD0QdBagsiSpDonJQVLkOjtccdh8FeQ4qK9xERBmJjTNjsf7cH0f9O1P9KSdHJTZ+85vfNKo0dXOykr46DgERCO1wrdUPoo1bNpG+5E1MjjJKDEn0GzyJcyZM1BygWquprxplKQgICNDix4+24wkE8FFbW4YONxZrOCbTmXeobC1O8pz2Q8Dl83G4uor9FWVE6I1kbdzI/t172Lp1q2YlS0tL45VXXtHKQ6vIgjfffFMTACpEUkVCqIRL6ldERITmVHjxxRdrSZdOFmWkEiWdLHJR/btXERAqVFIJhLvuuuuk/bYf8jLStkhABEJbXJVTGJPmFJhziLq6WmJj44gIj9Rq2beW85Kq3qi+ltQPycGDB2vPPrFA8IErE+reB08VBMwEvzEg2RNPYaXlktYm4PZ6cXo8GHQ6XHY76utd+desWrWKF198EZXTwGKxaIJAOQ+qNM0qukD9nSodraxmShD4+/sTFBSk/d5cbc+ePdx4441asqVPP/2U3r17N1fX0o8Q+BkBEQjteFNoXys+n3aO39phTyqH/IoVK5g1a9bPCtscY0HongoNq8D2FeiDwBAEzjzwHwX+54O+9Swe7XipZehtgIASw6rio0rJrLIumkwmLSOi8rs5KpCVSDiZteB0pqL+zSthriwJI0aM4OWXX9asFdKEQEsQEIHQElQ7QJ/KO/vaa6897jnoMQIhzQ1lj0Lo9eA3EbwecOyA2vngfx4EXX1cB68OgFCmKASaRMBms6FyK6iMjFdffTVPPPGEFj0kTQg0NwERCM1NtIP0d8oCIfkI1LwF4b8DjGD7Apx7wV0M1kEQ8eT3fy9NCAiBUyKgjjYqKyu55ppr2L17N7/61a9+VjvilDqSi4TASQi0qkCorqrSEoZ079IPu9Mfi9VAXLwfJtOJS6PKCrZNAqcmEP5Mj9RqqPwnBF0D5t7gPgSOdLBvAv+JEHzTGREIGzduxOwXjdGSQGqSiQA/3UmdxNrmSsioOgIBh8NNWWkNRqOeiMhg7Xflj6DqMhiNRs1x8qdhlB2Bi8yxZQm0qkDYsmUrM86bxcM3PkqdPRG/hDSmzUylc6oFs1lEQssudfP0rr5eVD17Fb2g8sSrH04/bcccMXRLgKpnwWsHv9FgCAD7DvDWQvBVYExtnoE1ohc1hxtvupMG/SgsoVOYc24I44eZCQmSPdgIjHJpKxFwOd1s357Dlk1ZWKxGho3oRo8eCZpIUGWjVb6RefPmMWHChFYakTymoxBoNYHg8/rY+O1afn/TfQwKNBIQaMUTPwlzn0kMn9yNESNCCPCXfPxtfeMpj26VT/6WW245oXPUz8IcfS6wfQmOreBzgLkHBF58xhwUa20+3vwwnzUbKygsrsPol8blM4O54SJ/THLa0da3YIcaX1lZLRu/yyArq4iY2FDcTjfFxdV06RrHpMl92X9gj1ab4dJLL9WyNUoTAs1JoNUEgsfl4dsXPmLL669gc+Tj9XnoFBzKwYRb8es3mRtvTKRLmsTGN+fitkRfypNbpXsdPnw4Xbt2PW70xPHzILjBfRi8NjB1Bl3zhX41dp41dT4WLnWwfE0u23cfxuzXiatmx3HblUEiEBoLU65vMQJeL6xYvosVS3cy5+KRJCZFciS3lO/WH2DXjlxuv+tcLFY7Dz30EGPHjNVyI+gN8pHVYgvSATtuNYHgcnlZ8O/NpC9cRkzdlxQWlFCsT6Qq4Vri+47h9tsSGdDXT86B2/gmVOZ5lVp506ZNzJw58+RHDP/LpNjWpmWr9/Hel3aWrC6nMGcxf3xwBOPG9Glrw5TxdGACXo+Pd95eRfahEm68eTJ1tfWsWbOPzIxCzYpw8aWj6NEjjOf/8g/0Pj1zLp3L4FHDsPpLREMH3jbNOvVWEwgqU9iWdBtvvZpJT98KwiIcLN1vY2N2Jwb0j+B3vx1I/36dmnVy0lnLEfhlJ8V//C/V8p9+SLXcciNpes8V1T6KS93UVGbwzeJPefSRh1st0VTTRy13dhQC6memsh4sXbKTS64YQ1JSJEWFlWzakMGG9QeYO3sA1UU5rF65iqLSYnp278m4yRMYNm4EwWEhHQWTzLMFCbSaQFBzqKvzkr6thm+/yKW+wUNpdQ2btn6F3baWqVP68cQTvychIaEFpytdNxcBVdY5JSVFO2Y42pRJ9MABePZvm9i16wDz/jKF0WNiOY4fY3MNo9n6UXUj+vbty7Rp045rFWm2B0lHQqARBCrKa9m0MYvdu3KIiQnF4XRTXl5D756J2CtyqSwtoaCqmE2bN3HOmIkYPDpGTxlPv2EDsFjlyLYRqOXS4xBoVYGgnu/xQHauk0PZdqx+OmIia1m7ZjEvv/ySlp3swQcf5PLLLz8mda+sXNsjoJK17NixQ0svq+oweDx6dmz38dZLFeRmbqG4wktcp9H86tfBTJoMbb1oozo2+eCDD7jzzjt/lhmy7dGXEXUkAk6nm507cvj/7J0HeFbV/cc/78yb5M3emywSQkIg7CVTBERRC7j3rKPW0Vb/tqJ1VVuttWqdOKqiqIggQ2TJFsJe2Yvs9Wa9e9z/cy5ii1oJSiDjHh9Mnid3nPM95977Pb/x/W1YdxBfXwMTp2QRG+3PZ28vIq8gjx2Hd+Ov9iEjOQ1zm5kJM6cwefY0/AMUldK+tE66YqxnnCCIQYidptMpoVIjayBYLRa2bt0qVykTH54//OEPcpS8KAKktO6JgIhFEJXqRC726NFjKCxQ88JzEmnGrxkZvpCt1cEcaL4Fl5TIM89CRET3JgmNjY1yUR0hHy2kc5WmINCdEHA63bS32VBrVPj5GXA7nSx89V0WffQxRfVl3HX7nQwaMJCvV6znnOkTGTlpLAaf/9RH6U5jUfrScxA4KwThx+AR6XOiCMpzzz3H8uXLGTx4MM8//7xcQlhoniut+yFwvFjN4sWfY6rxxl2qZXS/VbR1mDCo3JSYRvBJ7iwmXJRPaFgrao3nu0GIAjYDBgyQXRR6vb5L9es7g5yQrn399ddZsGDBaS2u05l7K8coCJwMgbb2JkorD9LW3kx0WH8O7CvgtRdfxdVqZ2DGQAYNycbWYSEuKY7RU8YTHB56xuuznGwMyt97HgLdhiAch06k0YlqZWvWrJFJwm9/+1vOOeccRWu8G68tt0viyJ5avnptGWkh62kx1xMfZKTVM5KVxfO4+9Fk+iVyQiyCcCcJVU1BCkXKZEpKylkhCYLkiMqYv/nNbxg+fDjXX3+94mLoxmut73VNwmJt44PFT1FYvgeVpCG/oJjt66vwM0RxyexLGDFwKCX5hQzMGcSEGZPxMSqW1763TrpmxN2OIIhhCtO1UOq77bbb5JKqL7zwApMmTVJIQtesgdNy1Y52D2tW2ji4YiWjo5ZQ4TmftQXTOedcP669UYPX9+KlxLyK+vZ1dXWUlpbKwalJSUmnpS+nchFhufrHP/5BXl4e//znPxXrwamApxzbJQiICq2iOqvQ9XQ4LCz64jla25uYMfl61q1dxwsvP0pKRijXzp3PlImzsbnNNJir8fcJJMIvDq1asbh2ycT0wYt2S4Ig5kF8QNatW8f8+fOpra2VVcKEWlhycnIfnKaeMWS71cPnCw/x8XsHCIoYyNxrMhg1Toef30/3X5TQFZaEYcOGnXH/v7AeCKuBiHmZPHlyzwBa6WWvQ0ASGyO7jVqzmVaHA3+dnihfXxprDvPZyheYPO5yUhOHcvGl56D3NZOcEs3wETPJHDmTzY2rqGInAQZ/JoXOIdt/PL7aQI5RjJ7VhGVRxAOJDYMIgFba2UWg2xKE47CIxXL//fezadMm2dUgipOIxSP81krrfgisXPkl77zzKVdddQ0zZoxDo+lcHzdv3oy/vz+DBg3q3AnKUQoCvQQBQQ7aHQ42VB5lb0M9TrcHrVpNTlg4qRoLy1Y9z6ic80mMHcw1N51PcnoIBh8PwSnZ1AdFUNJYx5TsRIwB7VQ6DjAz8nqGBU3FoO55roZdu3bJ9SUEaY+Pj+8lM9xzh9HtCYKAVrgcXn31VTkNTWQ23H333XJhktDQ0J6LfC/t+VNP/YXly7+QzfUi/bGzTSEInUVKOa43ISDIgclmY0tNNeVtbQwMDiHUR89hUyWHGhsYFByDpWgjptojGFSRvPba64yfNJTgGH8OanxoQk2obxAtZjs5/f2xBG/ER+fNrUlP0s97YI+DSliLDx8+LG8UlPf72Z++HkEQBEwdHR1s3LiRJ598EpvNJlcSFC6HxMREJTbh7K+j73og5kdkobz44osKQehG86J0pXsi4HC7ya2vY1VZKdcPzCLUR8P2hlx2N+2j2txKbZuR6/tPw1n0DVu3LWfX7lxGDpvIr+bdxVt5qzlcV0yAOhY/gxfxCTZqvdfirfXhruRnSfZRrHHdc9Z7Tq96DEEQkFq+1UsQlgRRCyAzM5NLLrlEzl8XaXNKO/sI9GSC4Ha75aBJ4b5Sdi9nfy31hR50OBx8VVFOYUsLVw7ox4GW/XxW/jVNVg8Ot4dmRx3nRA7jjtSLOFpwiLvuvp0Z585h/iN/ZlPVZl7e9gEdFpgzZDwxkWq2NC8hzXcoMyKvI1gX2RcgVMbYhQj0KIJwHAdhhhJSv6IegMlkYvbs2XJFM4UkdOFK6eSlezJBaG9vZ9GiRURERMgWKqUpCHQ1AiL2QBCEAlMzQ6IdrK1dQ6JvFgGaWA6aCvimaRtOGnki517GRYxi4oSJ8kbp0UcfZfyU8Rxo3svmxuU0U4xR783woKmMCDqPQF14jwxS7Gq8leufGgI9kiCIIYqXuZD6FSlqIiXy6quv5qKLLpK1E5R29hD4OQShrKwM8S87O5ugoKCz1nmR8ijSHUWci5Itc9amoU/d2OnxsL+xgc+KCggwVlNl38/chIvx1vjwSekqttbvxqVq4/8G3cn06HP5/LPPeeLhv3LBeZdw011XERYfQIU1j3LLEYzaQDL8Rsk/e2IGQ5+a+B4y2B5LEI7jW1hYyMqVK2WiEBcXJ//MyMhQ1BfPwgIUlh0RQCqyEZ599ln558maSGcVkcuC8AmtC6UpCPQ1BCwuF3vq6/i0dCMV9m8YFJSFvzqJio46LOpDNDuq+FP2fWQGZtBhsvHJyxvQeLwZNDaJQefEo9JKuCUXavGfqpNpQ30NZGW8PwuBHk8QxKhF/YYVK1Zwzz33EBgYyO233y7XddB0NsfuZ0GnnPR9BIqLi2Xcc3JyeOaZZzoFkIhYrqioYMKECUqBrk4hphzUGxEQloR9jbV8VbWTjQ1folWDXqPGS+vg5tSrGBM2CpVDx45lJajVKlauWsHUsReSkBFKbI43Wl3P0zzojfPY28bUKwiC2IUKkrB371650JPQTrjpppu46667ZLENoUqmtK5HQOB+3333ERYWJhME9UlKOIp5E+6h+vp6OdBUaQoCfREBYT0TaqKJSam0OqwUWYrY274Xt+RkbPhIMgPTMWqM2M0S8+99mpljL6O8poC0xCz65QQTHK9H66W84/ri2unqMfcKgnAcJPHBqampkYvuvPLKK/Tr108u/jR06FBFWKmrV9K36pciBmH16tVymmNWVtb/vKvIGBDqiUJFUVgPtFrtGeihcgsFge6FgEjf/ujDj3jswce5KOESZg+5mJQZSYRODkbjp0an0f0nnkCCN15fwICYEdQXWtlbvYZH/vKgXBVXaQoCXYFAryIIAqDjFQZffvllWaZZBL6Jj5bwb59sR9sVAPe1a3Y2SPHo0aNyQa4rr7xSIW99bZEo4/0OARG38/fH/07FR9XMDb4Uj5ebxKhEkm/pR8AMP1Q+J1oG7DY7TU3N/POFFymrKGXhwg8UNBUEugyBXkcQjiMlzN3iA/TOO+/IPu7LLrtM1tsPCQlRdqtdtpyQydjJhJJEmta2bdtkV4QirdyFk6FcutsjUF9Uz4c3fYqqCt6N/Af6eSaGho5i5qabSc8aRPDcIHyDfE6IpxJaHSIIWJCLd99994yPUULChRO7ZMMqWdGr9HhhQKfSo+HnBUl63C6cThtanRcajVJs6oxP6v+4Ya8lCMfHKyLkRVzCnj17mDt3Lr/+9a8ZMGCAsmvtohXYGYIgXAuitoZQwlSagkBfRsBaaiP3wT18UfUxK+e9Qvx4fzQ6LRm7xxG2eAjh02I5b840mUwfb1VVVTIRF6m499577xmFzyHZaZYaaHDXcdRTQpOnAW98iNX0I0wTSZg6Cn9VwCn1ye120lBfTl11PlHR/QmNSEKt/nlE45RurBx8UgR6PUHweDyyr3vBggW89tprsk7CnXfeydSpUxVLwkmXx6kfIHY2IqPkb3/7249KLYv52LBhg1xwKy0t7dRvoJyhINCLEDCXWvjmjzvINaxj66ULsR/14J3lxqj2w/CPdHSacO754z2kpKTIoxaxO0Jy/rbbbmPp0qVn9BmySVbyXQfY49yOQ7Lho/IjVpOAydNEs6ceOw7iNImM1k8iRN05oSaPx01jfTlbNi6V5fQzMtKJT8whICgavd7Qi2a6Zw6l1xOE49PS3NzMqlWrZJIgTHN33HEH5513nvzgKbEJp2/xLlmyhPfff19+gU2ZMuUHFxYvuLfffpsbb7zx9N1UuVKvQUC4n0R8ilCzFCnLvb2ZmywcWZhPQHkgG5I+Ys3AtzG0+xP+Tg62ei8eeOf3xCTEfAeDcJ2KZ0vg88ILL5yxVO5Wj4ndzq1UuyvJ0GXLxMBfHYRwLnhwY5bMmDwNHHTuotZdzQTDeSRrBnwXYClnmlk7cLocGLx88PbylsfU1trMooX/wm5rR6vTEhLsT15BLUmpQ5g69TzCw8N7+xLo1uPrMwTh+CwsXryYhQsXsmzZMq677jpZM0FE2yupkKdnnQrXweOPPy7HfIiSrf/dnE6nrFQo0hp/jDycnh4oV+nJCGzdulXOghHuJ+EK7AtNsklYcm3s+HAbm7TLaDOZKT3UwIwbz+fqG66WU7WPN0GeRo0aJWu+CPfCmdjcOLCzw7GJItdhButGMkg3XBZl+rHWKplYb1uORepgkuF8ItWxMklwuZ3sz99Ddf1RMpIH0S82GbVKzeeff85TT/2ZGeeOYPaF51FT28wrbyymtraBmTNnMnLkSIYNG6bURjlLD0KfIwgCZ5EKKfL0halbMNR58+Zx1VVXnfAgnqX56PG3/SmC0NbWJpeBFi83pW5Gj5/qLhmAIAfCx37hhRfKAcV9prmhYV8j5XsrKO4oRhepYcw5Y4iMPLHg0pkmCCIY8airhM3OteToRpGhHXJSGWerZGGDfSUOrEzwmomqQ0VhWR55ZYeob6olNDCc9KRMzM127rrzLoTA2rlTJ/LWglfwNQZRVl4tB5ivXbtWltOfOHGibPEV5ePPBCHqM2uuEwPtkwRBmLtEJLAQ6XnooYdoamrimmuukU13sbGxnYBNOaSyslKOI/i+5eXQoUM88cQTcnqpiPUQdQ2ON0EQhFlUiCl5ex8zMSpNQeC/ERB+aPER6FMEUpJw2Z2YW8xotGo0ejMuexN671C8fCP4b6EDQRCEbshf//pXLr744i7/YFokMwedu6lwFzHFcCFBqpOTNuFyOOTcK8cqjNNPRd9o4OudX9Ha1oKX3kBFbRkxwQksfncp6zdslImg0K45//zzT3gYxLvk73//u2ztFVYEUcXXaDQqD8wZRKBPEoTj+IqAOZGSJ4J+RBW/+++7jztvvx0581ij5dgvP2wizUf8sS9rl/3+97/jsccex8tLL2NxvIkXvHh5lZeX88gjj8hiVaIJUiYsNgEBAXJqoyKMdAafcuVWZw8BScJRe5SmknzKG00MPvd8DD7/Ic2CGFTnVVK2qwhrhxm/EBuhCY2otU70BiOh/Sbj7ReP6tvUvw8//FAm4MLSEhUV1eXjMnka2epYiwo1Uw0XyjEH/92EhcEpOXBKTjQqjfwm8ACV7lK22NeSqRvKQPcQ6hqq2XlgO2WVxTSUNuIyefj6y83UmurxDfFj+YrlcsDl9zccQkhNvKNFjR2hjiuy0I4XdFOsCV0+/fRpgnD8wyWkTi88/3yCGk28OOMiouMTUI0fCUMy4Xtywe0eM7mOI3irDAzR98dLJT6Qfa89/eTdXHXlbKJix6DWnBhtLEpx/+lPf5IJwvTp078jCCKTRAlO7HtrpS+PuL6qhiPPPYpq/3p2mV1ct2g9QbHxxyCR4ODafexe+g1R6VEEx5pwmo9QX2bAYIwhdXQskucggVEjCIoehUqjl58p4bcX6dtd/YEUG6Gj7lI22JYz2Gskg7QjTphKN26229ZzxLmHDk87GrUWncpLJgpOnHR4WknTZTHTMA+NR8XqNV/ywVvv4YsRnwMhRDv7Ue4p5IBXLtOvnEnOsBzOPffcHywXm83GDTfcIBflEwX5/Pz8ZHVckTGl0ymaCV35fPV5gnAc3NwF/ybv1VcoOzeJpP7JnFftS/CkKaiGDQbNsYAci2Tj7fallDurUEtu0nSJXOk/S34o+krzuMzYrVUcObQJrc5AfHwcvgHp6PTC9Hgsd1kEmgn3wsMPPyyX4D5OxBSC0FdWiTJOgYCzoZGaJR9R9s5bSB1ObNQTN3EsiXc+ii6uPyU7C8nbdIiMCVkExflibtqA22VGox9B5f6DaPV1+AbX4RuUQGzm1Wi9AmWCINIbc3Nzu5wgiDFUuytYZ19GqjaDEfqJJ9hN97dtY6VpIa2YCDZE0epsxCW5iPFOJME3nQpPMYnaNAY2juDDdz5g24YtlBdWcoH/XKJtCTQ6GggOiaFV08gO3400e2q56sorZUvB9y0JIhZB1NYRejYJCQm0tLTw6quv/sAtoay804uAQhA8HjC10fKPl/ggqp0nxzqIMPhz2WEVt+zVo5l5Hs7UfjRrOvjYuZYQSctQm42mpo1sCwwBv3TuNM4jWB98ememm17N6Wiio2U/9fVtHDq0j5HDB2AMTCEgKPs7X6lwL4iHWYi7PPDAA6SmpsouBoUgdNNJVbp12hFwtdho+HQ7ps1f0lq+lKLaemK81fgHDCH54YdQ989g3RurCYkNY9y1kxHEu7ZgCR63k6CYyRzdv4PG8t0EhFvwC4slfvDNaL2CZIJQVlYmP0tdbUEQoLRJLex0bMIstTPN6yIMKh9ckpPtptVsaFzChJDZxPuk4qcJwmJpo9R8mK/aP8LfLxydLpi2zXbWvLIFd6qasJRwchYPQ1Wt5pOm97Bo7Ay74BoGjb0I6+qdvL7uQWKSInj++ecZO3YsHreErdWFy+HGy6ihoaUOq9VKa2urHDsmsqKEO1No2yiVe0/7EpYvqBAEtxsqqli64lXun6IiYEMltix/WuP8uO7dCgpf3crK1gaCpvcj/NJkruxoIirKm5UYcKaEYPVomVSUyh3Tf9c1M9Ttrirh8dhpadhG1dFi1m/KZ/zESxkyZNh3PRVkQKSTCguCUHybPXu2QhC63TwqHeoyBCSJ9t011H20n/Zoia+3vExc/hYGDLsWR/1AQmdnoR4TzZpXVjDmygmkjErHabNydN8y6ku203Q0gfZmLzyuRlJG1pMw+FzCks6VXXki+FdIxov07DORmi1SHItch9jn3MEUr9mEq6M42L6dr+oWMT50Ftn+Y9Gix1lhxrSoBLfKRfvFLv6texlVWwAlHzdSYasjOjEao01PaKMfjblNFDc1kjPpWgJzcggrV1OTCblL3sJWuYdXXvg7qan9aSoTpKkVyS2h99aSPDoUrUEjv0tEqrTQsBk4cCBvvPEGmZmZXTadffnCCkFwe5AaGil/+3UWj/LjxYRGvBwehhVbuXFFB6WGQMp9DTSnu6nrb2ZcdQfDw01sdHtTHa6jWRfAVZ7JTEucdUKwXu9eVB5slipaTA0sXfY1a9Zt49FHHz0hb10w/WuvvVZm9yJr4eDBgzgcDkaPHt27oVFGpyAgQfveGqoWHWS/zsMSk4tBLa2Mc9sxNELU3EzU46L46pUVjJgzlvTxA3E7XVQeKqSx7BskTx4OqwuX3U502mRissZh8Auho8MsayDrin9QAAAgAElEQVQI6firr776jBAEDx5qPVWss3/BAG02WdqhbGlazk7TWn4VfRuJ+gxsB1oofWgzNrUF1BI2rY0dN++jxeDC9oET+wETgTYDeo8WlZceda2EiPvyiopBn5mOJj6Z1jFR7Nv0KQEdZbz+4ou0lJupKiykvnktbslMROhEjN7pxGaF4RduwOVyyZYGodgqLJQCE1GQ77+zppSF+MsRUAjCMQc5rN9K3Ver+GScHxa3jev2qgkdMQYmjQO9Dit2Puz4knpXM6M0UTRXfcreoH7E+2Zwrd8sdPTNYBmhjCj8giJw6PvSyZ999hkffPCBLJwkcpqF1oS/v/8vX7U98QqSHJN2zGz33f964kCUPncGgdbyNrYsLOWrSi25HQ2ojOHMSjAyvuwIA67PRB3ny4YFa/AN8mXiDeei0R8rdy65XXSYSijZuY2jB9oYfvHFhCVGYXPY5Q+ieJ6EP/5MmtQlPBxw5bLVvo40TRY1zUW0O5u4OOJWfPfqqXp0J6WX1ZCbtBVni5XoAzHErAimOLUM11YPB9pLsYz2wm9UJMZ1gSQVJZLXsIsOVxPZAanyWOri/djiXM39D93PqOwRlO+tpL5hPYZgMx67AWuLh9CgqYTFRJMyJhaVRoVImxbvFRGLILIdRAD03XffraRCdmaBdvIYhSAcB8pmQ/pmN54lK5H0OjTjx6A6dwJ4/efD78bD622fsceeh06lZpwhm3nGc1H3UXJwHDph8pO/eaoTEz+FaqIQOElPT5cDi4RZtC/mMQtfqc1iR+XQy+ZR3yA9al1fTpLt5NupBx9mtsFHa0ys+6IcbWszTcEx+Pj58vglBhKzAhFChCU7C9i3ahej540nLDlSlhoWqdftTe3s/HSLTCTHXzcVb38fhAT1c889h0hz3L9//xmJP/hv+N242O3cRq5jE84OM1ZbCxcH30LAQg2ty4/ieD6I2tpSrB/Xod8noSsH+1A1zuwA3t29lHKphpj+sTRvqSW9JpMpugvkipC2KA1HS9ZiqSnDa2Ys97z0IPtyd9BWoychI5245DDMdTbaai2YW9pxq5sYNnsYeq9jqaICr507d3LrrbfKhOEvf/mLrMAoLAlnwgXTg5dop7quEIQTngIP2OwiMgMM3qD+4UvcgZMadyM6lZYIdfDPLm/aqdnp4QeJj+GDDz7Iiy++yMsvvyzLL+v1fSwtVKSy7S4gd90h9NWxSA6JiTcNJDzVB51RIQk9fIn/ZPeXfbGKtz7PRxV2PtG+aoZFlDL3stH4GH2OWQskiYp9pexcvBW9wYvQhHBsHRaajjaSNCyV9HMy8Q0+JgwkTPIiM0iowIqaMmciQPH7gxPuhhJXPtvt6ym3F+BPIAOWJ+P9kYvSR1pQa7UELVCj3mJFb9bjvjqMuGuGkhjZT5ZVPlp5lJf/8RLFBwsxmH2J0cZhC7LQrG0i2GVgrG4QhXE6iv3VTIzOQSsFEtHPl6Q4Cb1HRW1hFZW1S8gYM4L+gy5E9W3Fx+MaK6LGi1BgnDx5spwJMW7cuDNqaemNa1khCL1xVrvRmEpKSrjiiivk6GOhiiYe3r7UJA9U7bCSv7KZBnsVtmoV8YmxZF0WQli6/n+KcfUljHrrWIUFbdvuIpw+6QxOi2FQsgGD/kRSKGIPagurKdh0mA6TGa1eQ1xmAskj++Md8B9BJVGkSWgAiKwgEfx7tnbHgiQ0exrZ1bGR3eZNeB3VkbogmoDwCAKyI6hfXUj90TJ8dNGszcjHkBzIbeffRGJEAppvP+hCJ6W8pAyVWsXwkSNk4TS7w8VHa7/hqW2L8U9s55romWR5hnC0uAODto5gHytW50GO1nzEoFGXMXLSvaiFmN1/NYGRCIp+99135WBOkekgajkocQk//wlTCMLPx045sxMICBOg2PHMnz9fZvOPPfaYrK3eZwROPNCQZ6fhkJ2jRbU0lnYwcHwCiRP8CYjvm3ErnVg2veqQY7qrP90EUbB22NDpNHj5GoS/7gcfv1MhCJLTjaOxBbVBhy7Q7wfX+6UAi137ZtMX7G3dgqfGTr+Xw9BVapAsEqrEYLYPraDAU0GHpYNBSVlcN+1qUqOTZR0FySPhtjplC63WoMODREVbE/es+ZDcBqHvYCI+IotzzBMIrQzHoFaTnVWP07GRoiPLGT7xN2QOuxL1t4Tjv8dSXV0tEwThirHb7fz+97+XxdrOhOrkL8W0O56vEITuOCu9rE/iZbJixQr++Mc/yqZSsQMStS/6UrO3uTn8ZQOvv/IGf373LkJjAvrS8JWx/kIEvvzyS7mAlQj8FT72n2qOllaKvl5D2+FiQg2RhI4cTOCYQb+wBz883SO5qLSVUG7Ow1RSQ9EfdhIZ25+M+6ay5OBKyurKaWo3kZkwgGumXkFaTH+qdpXQWlCPubYFl8eDOsJA9OhkPBG+PLTpE7aV70fS1BPm68VEz2Sa92fh76vn5kt9qTz0Eh0d9Uy98C/4Byf8JOkRsu6ffPIJmzdv5je/+Y1cWfZsWV1OO/Bn8IIKQTiDYPflWwmS8NZbb8kZDcHBwbIlYcaMGX0GErddwtxq48OFi7ji2jkYA/9jPu4zICgD/dkIPP300zLBFiJJMdHRuFpbaVi2GN/+6fiPHPPddZ1NrRSvXc2ONQuxtDczKCaDuGgw5swmcNwUVNoTzfIn65DY3YvgbN23Kqk/drzDaWfFB5+x/4Ev8D93EL9+8152Fuzg5S9eJ9AYyLxRF1NTUIW7woKh2EFN4VFUgXraGlowaLxIn5RN+mWjOKIx89yBJZSUVTOkzUC2dxZ1TcHEBpWRmXAUl72KjCHzSBs0+7v4g//Vf/G+EVVBRSyCKJct3JuiLszZiN04Gcbd+e8KQejOs9PL+iZ0EETEsdgJBQQGMHnaJO6ZfyeR4VHo8EWHHoNa38fLYPWySVeGc1oQOE4Qig8dwr++mqq3X8dSXITGx4fIy68m7PyL0PoHkPvOG+xZ/xn7qgpJiVQxdaAWncOJ0dtI0LTH8cmchEp/8oqIghiUeapZ495Om8rCcHUGQ1UZGFU/rML6r2cWUvluB4HF+2lOOofoK8cxZLqH+oadhIWEsnPTTrYs+JKhxnTSJg8iLD4cv7BA7FYbRbvy2P/lTiZOmEjGlWMotbTyxYoCjlaqiUk2kBK5l4iAepJSh5DYfwoBIQmovy1c1Rlg9+7dy4W/msP4G+5m8pU3MCPah+jvxYF05jp99RiFIPTVmT9L4xa6CYLN7y74Bk26layZ2TR6C516NT5qP3J8s5geOAl/td9Z6qFyWwWB7ofAX595hmcffZRNXyzF88VntGz5Gr+hI2jZuhFjWgZJDz/OlvJK9rzwGh53FS7fdianNuIladDYjEREmfBOPZ+gWc+h8g5FcoPN5MJc68QQrMUnTPtd6q0LN0VSBf90fohZshCiDqLRY2KiZhjzNNPw/ZYkuF1uXv3bx5QsdZCkq8ByqJJdmnRiYqbQnFhPfssbDM+KwM/mhWtHE7+69lJcLhstuytxtVllYRBTUzM1ZTXERSfgHxuE3WKloc6KKjma7JtGk5CtRavx4BcYjZch4JRjKUQM1GOvvs1b2jQS09P5VUIgt8ZpULKMO7fGFYLQOZyUo04TAqJCXEldIYuPLMAR6GZF+27aLB3EBIQSFBKO3a1ifMAoLg+9iAhdmGJNOE24K5fpuQhILhcfPfYYZWvXMG3iRHw8LoSnoHn9V3iFRRB3xz0Yh43kqeefp+qLr5kWlYAjtoPQOEjQloGpBrfkYqtuOjc98joSOkyFNprybHK9AxFCGdhPT1imN2q9ivWenbzvWs5kzQjSSUDvdLLXksshfQNxXslcqZtJAEaWLVnPl8+YyEqtxE99ENNqB994ebCZBqIxZrPZewu+Pju4KKU/ObpUxt48HbekoWBVJZK5Cm8vEbKoxuV00VzWwJHCPMpcVYyPziE2M4mc+2cSkBz2iyau2i5x/zdVrFi5Au+IeBJHTWBaqJaHknUKSegEsgpB6ARIyiGnDwFBEPLsO1jU8AmLirdyrt9owut11FtLCQwMwlrixd4B1YSGh/FE/AP008edvpsrV1IQ6GkISBJ1K1aw+4tlvOXjz/BxE5hekodUmI9vRAh+2YMJPX826zdv4d///je33HQLfrVuOj5fg8ZLj58+H5t3IR9VWMhtDuKrrzbQdtRJ7c4OggZ4EZBowNXmpmaHGZ8IHQHZGp7UvEGLp40/62/HbipkV/m/aVVb2W+0UBUZwX3eNzNYnc7ypftw79+Iy1XOpo276Z8XT8TECEqPjKSsNoLcBBPVls+5NELDZWNnE3ZOBqW5biz15bjrLKhNFXLWhtBPcNmd7Kzaz1fNO5gTM4FR545j8G/PQx9wTDPi5zRBfeocEmuaPDxwqANb/i4S0gZyR0AL83LSMB4rPqu0n0BAIQjK8jijCAiCsNu2lWcrX+ZwQSUpuf5MmjkUr3AVpoZ2Vj6/BZPeg/pyP+7Nup0rIi7utlYESXLhsFZgt1bg4zcQrf6X7XbO6EQoN+sRCFiKi6lasoS9gcF8FpVIkJ+RifWVJG/9mqjRYwibNo369g4enj9fDsCbP//PLF9SzNZF2/lVqpr+OTH4jIzj5YUf8s3u/axeuZamfBtVZa34pmkwur2xlXroqHPi5acmbJqOx7z/xUBVEjPa49lbu5RNYTYO6erpUNlxqyQe1N/KuV7ncP1N/8BnTz8mTT6CSyrAuUpPiW8iJdYJeHXo2JvqprntS65KtTA7bgIdTm9cXnqMEf60V0q4zWa8ffYQlZVG6wEL6/ZsYsH2RVwSPIYrfncTA2+ciNb7l6UCuyRodsKiWjcLth3Aa9UCnrvrBkYOGfxjOng9Yk2cyU4qBOFMoq3cS+jHcch+iPvLHybKHcHAb+IpqykmZHwAthgt5joPK1d/RWuGlcS2GN475xViomK6n9iJ5MFuqaC6/HPa21sJCo4hMmEWOn14J7LelYWgINA5BMwlJexau4GvktIoObAfQ1wCXkFBpBceZhwuPDk5vP3OOyxatIibbr4Hq20wBw7WkpwYzJov8xg8OIo/PTKMr756j23b9/D2gsXUHDJjb3CjSnTjcnjwbvbGVQd6Xw2Rk7x52vc1TO4mLiv3xU8bjC5uFPnmPWx37yOPcm6xT2BS0GwunPswpfVTmSrpmDByN9Vft+Ao8abGdzBH4q3YBw3CUrGIuUMCmRU1loa8/ej6DcelDsMl2QlOqMZedQDaVag6EtCkBVJUlM/uN9Yw6fErmHXHpScXkOgEjMKSIIiCzeUGhw0fg+GUFBZFwKaIZRAETH1SRYtOdKgHHaIQhB40Wb2lq4W2Mh6onE+UwcBE34G0mdvYU1POxpZCzDor/gH+NFmbad9pwvloA2+//jYXXHBBt5JpdjlbqK9YyP6DjVRWFnDe1Ax8jPEER81Fpe5jctK9ZWF2w3E42toofPcd8mP6sSKhPxZTM8aD+xi5cTVv7djJzvp6+cMlSkDPu/Rmvlhew8aNZQzICGPVlwWMGxfF7feA03OItmYdE8bfTVWZA8ceNapgD54YJ4EuI85iFZGDfQnop+ffqi943/E5N9XEkKkbSL/Iaeyu/5xP2UgjLdzinMSQiNmcP+tG9pkm4q+JY3yRlXDJjyjXVpr6+WC5Yh4lNR04y99g5pShXDpsOvlvbsN/QCy2oAiqfZvosNbhX1yF4aCG8Kwk+s0dTO5zK1iw6F2GPXQB9/3f70/pQ94V0+eWPHQ47TTaOwgz+OGvM3x3G6GSKjY8sr6C0LUSBdkkzzEKoVZ3RXfO+DUVgnDGIVdu2ORq5vHqf1DlqOQPsVcRpAmh+rCJf73+Jhq9BuI17MkuZFzHUJreqyR3Z64smSpU0UTFSB+fn++XPF3oS5IDp72axqpVmFpaiYxMJCB0AlqvUPiJnPHTdX/lOn0EAUnC0dREyWdL2BYQgk2tJuPwflp8vKnx8SEmLo4JEybI5Fmn0+N0evhsyWGWr8xnzpxo/FMreLU5iMMVJu6Nq2X6wES89UNoKjXSXuhEY9Oi12kIHehNcKoBlQbMWNnk3s0HtsXo7FYSvdI44ikm3qplcksYGYFjiQgZznPP/pOVq9aiCr8Ynd9oIrQS/SuO4D5SiGXWZHLGm3nl5aeZPftC7rr1Ng4uWUPxpnpo8+AK8UbXZkUlCr1lxTHw4iGYv9hH7cZ8tniV8HHuCm779a9l4nO2nnez087msiNsrTiCXqcjOiySwWHxJOmCMdeaqS1sxG62ExjpT3CgGntNAy1FlWi8dARnJBKYFo93aM8WRFMIQh95z3SnYVolG5+bvmSFaS3Xhs0h2ycTP40Rt+RmxeZVPL/3XzQFtTG5eRQXps+QpVNFiVtRqEbkg0+ZMoXExMSzPiRJcsskwW4uxidgMBpt4Fnvk9KB3omAEEYybd+G22IlcNQoDFFRPzpQt1uirr4DSXKyo2IFW9U+vJqvxyc8nPNjdFwTkk9/Hx+Mhqm4LKDqUOMToENn1KD6r02vEEfa4znMYvNS2m21xJtV5FiCSfIfSnzUVDSa/+yk7U6Jdbs72HbAirrdTMqRnZj35FIQbmLx9pU88cIzzJ43j9yqOiqPNhC0+wjexY3oDTq0g/tRExpBfmUDcdvKGT17OJX+7cx/ZD7l5eVyBctzzz33jJIEIbLUbDKR21DGqiO5tOceIiUhifCcTFodThJLvPGUWtHqtWh1Ghr2FqEpy0er9hCbk4zH5cTW3E54Tn+S50zELy6ixy5KhSD02Knr2R03uVtZ2bKW5S1rGW0cRrp3ChaPjT3mA+xvP0TQai9iWsJIjE+ko6NDNuP961//wmQyMWvWLLm8a2pqKkY/P1xIsm9QvN9Opnnfs1FTet+nEfi2rPr36zT8GCb5xfm8mfcFq9QDKdmwg7gpE7CqdVwaUMxcYyuWpkxU0rEwflHMKDo6moiIiB/IEdvdHdS1HsLaUoC/XzJhwUPQav4jliSezdbWVlwuN1aHB5fLRXNVJYsffB3N4Tb8sqK5/KnbsMVHsq+9nfFh/qiL8mnNL8YYl4zH7kPhqoNUxAUQfEE2Mwck4KvTsnz5crl0s7AYCsth//79z9jUizHk7t3Nuwc2YW02UbvmG6JHZBGQnEiAOZCoSh9yRqeRNDSW9rIq9r/8KQ5JhzswmvG3TCEoykjd7nyKFq3HPzGKrNsvxhDsf8b6fzpvpBCE04mmcq1TQsAuOdjQtoXN7TtpdregQS1rH1wechEJXrFs27yN1atXy4WdBDFIT09ny5YtsoRqfX09F82Zw6ALZ2GJjUav0TDEx0iql7dMFJSmINAXEWhoaGDlypW8/e5bTJg5kJDxObxuSaPZ7Ga29hAjnSUU7W1m/ZcFeDwifA8iIyMJCQmRyyMLV15ycvIJvn+n00lxcRF6vRdJSUnfwSoseqKMu1ArFCqpotlsNiorK0mMjufuGTfgd1QE89poGBZHq6+eHKsHTaOFjnYzbVGBVNc0o/LWY5ycjivEl/HxEaSI4lIgB16K1E2xGZg2bdrJY5CODee07BKsTjvv7dpAXmkh2kPlaMKC8fGKxL7XgspoITUnFqPBSMvb62jXSvhfMg7rLhsGbw1tIXVotRpi3N74HWog4byRhFx0DtUeiNZpCNQI/Yee0RSC0DPmqdf20o2bZlcrFY4qvFVexOij8NcY5dRGETlcVFTExo0bKSwslHcq4gUldjy5+/ZywOVAM2I4cQOGEBQUQYq/N3OiQuin90LzvWp4vRZAZWAKAiA/GwcPHpTJgSiMFhsby513/pqMocGsbOugxtLBbGMbekcoNUc1uFwnwiY+8keOHMFgMDB+/HjZhSd20sLMLz74hw8flmsaDBgwQLbcicqs4rncsWMHQUFBcp2D48WQBKEfPXo0s2bOwlzZTPnGfA5oXLS220g8XIfe4QGR6jgkDnNcgEwQbG43Do+HkdGhZIcFyZ0TsuyiqJt45oX1MD4+/sfnWqQoNFihxQZaFYT5gL9erhb5c5tIxy5sqefLvF1UFhQS5u2PV6sR6742thStppkW0gISyCy0YY+MoibESLDND2dTPRt3fUyg0cjA+GSGBMZDRhyuq2ZSHx5Gsq+BbB8DUVq13NXu3hSC0N1nSOkfwicoCML+/ftl68GRvDx0SYkcSU3ElF9IbFsUkfFjcCfriBug5aawSKL1oqaD0hQEej8CbW1tciG0hQsXyrvsuXPnMnXqVCLjo9FoVWjVLbjdreh1oXhphD/8hzY28Yzt2bOHXbt2yR9mQTbEtcRHWZRNFh/8o0ePykTBarUSFhbG0KFDGTVqlEwmxHH/q1qiy+lhV00jRY0tjNZ7Exbgi9bPgF2jwin+eSRKW9qpaLdwTlw4McZjQciC9LzxxhuylULEIohMph8UW3J6oLQV6VDTtxMtgV6LKjsMYk9ec+KnVodHkihuqSO/rZ5WcwfqAjue3a20hbSw/eg+jCVt9C9x0C6KZ0WGQbuGYLuNmDAnBklFu6mVjqpG6tLjKRybhhTkR1RWNlEaFRPULgYmxHX7svcKQej9749eM0JhURAvqY2bN/NFZQWVsUkEFbpRmwNxhUUR6BOAFAn3TIxgaIiPYkXoNTOvDOSnEBD++ttuu42MjAweeugh+cO98+g+ckv3olFrGJUyjNHJOZ22vefl5cnWBEEQxO5dWBUECRBuvrq6Oqqrq+WgwezsbLy9f1i86cf62mCx8/XRWoK9vBgSEUyQ97FUYJdHotZsZWNFLf0C/RgWGYJe8x8CI0jCP//5T9mlKGISTshoMLvgcCNSow1Pgp9sNZCjKuqtSLUWVNmhEOED2p/vdBQaCHa3C4vDTnN+Mwe/OIIrTuJQewGu0npidtbSFGKgLSUUQ60f/WKimXPLRDxuNy0lVRR8sg4pI5nSc7LId7nwxoNUdITrx4wiOT7urKdxnuzJUgjCyRBS/t7tEDC1trK0tJgPyhvxOiKhb/XHpu3AoI7GEerhqqEqZg9Px0t3aqVtu91AlQ4pCJwEAWFREyXUt23bxu9+9zsuvHg220p2cbAqD6MxEJPTisvSwciEQUxMH4NWc3aeCbckUdlu4ZvqBvRqNVF+3vjrdVS2WWl3OAjzMTAoPIgArx9qiFRUVHDDDTfI8RH33nuvHC8ht6oO3FurqVN5sa3dgFqjZtRIXyJETaedteCrQzU8AvxOjy6JpcXKofWF5O8vpUxdjUXdRvSeWmg009wvEY3LyKxbp5I9bgBum4OyVdsp+XwTaTddgGlIOkecHsJtZkLaTaTHx8kum+7eFILQ3WdI6d+PItDmdvF2XQ07m9uR9lpxlnhRHWmi8JO/oi46xPsL3mTSxIkKeqcRAeGXbbLX0+psRgTUJxiT0alOz8v3NHazz1yqqalJdi0I/7ywHFxxxRVsLt7BhvztuNPS2Wx0obVYcFdVkFDVzJ0Tr2JkwuCzio/J5qDA1EaRqR23R8JXp2FwRDDx/r7ofkJcSBCETz75hNzc3GMZDUKUKN9E1fIqPi3S0uFjINXPxVC9hegQNXqPG5VWjfrCJIjwPW1jdtqc7Fudx4GN+dS3NuMwd+BX14xfawNROf3JuHgskt1J1aZ9uO0O0q+bSVh2Ch6dFqeEXCDq7FC0nweBQhB+Hm7KWWcZAbkQi8vJmtYW1pQ3g0PFhEAjjh1reei+e8nKzGT9+vVnuZe97/b7W3bxfskrxPsmcW3KHRg1PTN9qzfMzKpVq7j++usZOHCg7KdP7Z/KxzuWsab6IPkDk0iwSbhLi2lprEGy2Rk2Yirzh12K5ixG54jn1u5y0+F04fR48NFqZZKgPYnyYEFBgRzvIAjRhRdeKAcxt+9rov7zozTEBBM7NQJNh4OSdfU0V9gYFisREa5FPb0fBP9Hs+F0zLu1zU5jRTPFu8upq2nEL0xPhLWDxi0Hjl3e7cEQGkj6tecROrg/Gn1PogQnIqQQhNOxYpRrnBUExMvG6vHQ6HSiUqkJUmuQbBbWr1vH/fffz+TJk3nqqafkKGul/TIEzO4O1lWu4Ivij9m1dj/BGUZigxJ4YOzjJPunoRESfEo7owiINMA//elPPProo8yZMweNVsuTez/jm8IdzM2ZwajgZNram9lbfpBNJbvoGJrDsH6Duc+Yju4sJwOfakai0FvIyclBq9WyYcMGQkPDKNlqomhZEfvD2mj388e3Jpi6Qy58nG6uHC6RMSUEBoWBz38+0CIYU6RkinRMkb4pMjVERoa/v/8pmfw9bg9Oq0vWf1DrVGiQcLa0Y6lrQa3V4B0ehCE0QP69JzeFIPTk2VP6/qMIiGDGRx55hJdeeon/+7//45577vlh9LOC3Skh0Ops4e/LnmKjaRWxuiTMwSbighK4eeDdpAcMQqPqubukUwKimxwsPnIiaG/dunVypH9KSgpWyc0dpm20HthDQmM7o+IyaXJ0sKcqn8TEDIpSYmlTu/lnwAgiVad3V93VsLjd7u/SHgVRePvtd9mwsZUXPjiAKbwSf62GFJ8wLvREk+5xEJQTjN+MBFTCpv9tE+RA6ESI9Mwvv/ySb775hvz8fDkQ84knnuD888+XgzolJ2iEe0KnPi2aCl2NTVdeXyEIXYmucu2zhkBJSQl33nmnnPUgfLRDhgzpfhUhzxo6p35jEX9gsZvJazvA+6WvkRKQztyEawnyCkWrkINTB/QXntHe3s7NN98spyAK37zYBTd57NzdkkuaIxBjaSXl5XuwaF2UJUbQFhOJSe2hn8bIM/5DyNYF/8IenPnTxY7/uuuuY++efWzbvpPVe6t5dflBDO06CG6nw+7iZu84hsTHEDstCr/4E2u2CDLwt7/9TVZpFCRDCEMJjQeh5SAsCMNzhjO83yhcqwykTk4k7bJ4vMOO1afoq00hCH115vvAuIXS22WXXSanZ4nc8BtvvFGWlFXaz0egxTrRAt4AACAASURBVGnC6XbgkpyEeYWjVSpX/nwwf8GZYic8ceJEOaVR1CoRrd3l4eaiIvaV+RBvCyUzwM7YBInkWHCpPLxkzsMN/CNgOIEq3S+4+9k79Zln/sabLy/j5b8tp75GTa1XDUtKd6NXaUhTRXDh4BRGTg4mIOTY+MQ7QOg2CCLwhz/8QX4XXHrppdxww/XExcfLGiuiAuO2r7fz7K//SVbjKEzWZgYYBpF+aTLDHxiAvyAafVRURSEIZ2+tK3c+AwiIF4OIgBYiS8KiIPLFAwICur1AyRmARrlFD0ZAfPhE2p9Yz8KN5pbgYCPM3+GgUNXI4CAvaut8CNPp+ONYUBnNPN5xgFG6UO70TTurgYq/BPbn/vIW/36ugdSYmcSlBeEW3v+MWuJTNEzLTiAt1Q+9XiV/+EUK6IIFCyguLua9996T6zpcddVVMl7CDWlzWHE429DpvNDjy9cP7qFsWxVbjmxioDqH+MExTHlxGCEDe3ZFxl+Ct0IQfgl6yrk9AgGh/iaivDdt2iTvuO666y7Z5aA0BYGeioAQLBJWsTvuuEPeEVd2wCt7JSJ9JPRhpSxuqce3PZjCimj0QWbCh+YxxzeWa7yT0X5vO9zS0iILEYmKqcKMLz6kBoM3/eL6U1+hwmGTiOynwT9E1Zk6UV0Gqd0KL/6pkt17juBM/5Cplw/BpzWbwx+nMniMm7ThLXRYWmQxJ7PZLD/zQtRJqEAK+WehE5GZmYnb7SG/ooL65iKaOg4RGRpOv6gswv1SKP6wlvXPbaektIT7N91KlAhy7KPWAzGRCkHosuWsXLg7ISBMsq+//rrsfxQvjAceeIDQ0NDu1EWlLwoCnUZAfNR//etfy5oAQjyoxh3Aa/skRkdJDGvew8qNu9gcMJQ9hhQCQ+A3k9v5lTEa/X9lL4gPqSh+JoiBeD7ETxHTEBERib9vOHMmPYi9oIVAVTt+QzJJHhNKVKL6hLLQne7wLzxQ6G6Y6uDVx5sJHLcFXf88qotshCcEUrM2g8NfVWD3XkVtY6mcpSBUILOysmR8xIbguAKjxeYkr6Sew2Vb0XkXo1bp8Hg68DP6MGrA5XhZglkw/z1e+fcrrM1fSWRszy3V/Ashl09XCMLpQFG5Ro9AQLxURZDSBx98IJtmhblRiUnoEVOndPJ7CFgsFrkMsgiwE1LECZkj+XBPBwHlBxhxcDGqksMcjUhnZeg5JE+ZyG2jA5BcDjloV5jeS0tL5SqMov6C0Whk2LBhsnVNpBF+uWIjeZt1JPv2Z17ESlJCzeRpLsWeeT45M41E9vv50sW/ZCKtZnjtzy0wIJfIYeVUH21DZ9RQtS6ZtvwO9OG78Ug2Bg8eLD/XkyZNOqECpKheWXzUxLptJQzo78bbp4qmtipa2+1YrP5MH3khESHh3H777XLNiU8//VSuOdGXm0IQ+vLs98Gxi+qQf//731m2bBk33XQTv/3tb+UI5jPdnJKVNqkWDV74qULRKIqEZ3oKevT9hA9969atso9d1EkQeghHi6ooeOZJ3AUHaIvLIGXnZ1jShpH63Ev4x0aye+8uHv7jfJxOl/wRjYmJkaP5RYpkRESEXHNBtOoiF0ueKCfN8jCO5m1E+EUT529gv/YKvKfPYdQl/pxE16jLsD28w8WKhW04YvMIyCin9UgEYZZBzLzCn5ikn1b1dLo8HCysZ/veKmZPScPpbmLH4R00NoHFHMLc84YRG+nH8OHD5KqV9913X593RSoEocuWsnLh7oqA2B2IiGYRwPjss89yzjnnyDunM9ckWj3VHHKswlsKpL9hAr4qxd1x5vDvHXcSYj9Lly6Vqzj+8Y9/JGdAOs27dlKxeDFNR/JI6p9A4KQp1KX0Y2/pQfIL8ti4fhuTx05n7q/mERUVJZNjt8eNyWyhpdhK+dcNBCVGkLu0lSkJn9D8zas4PX4khUawR38jflPPY8zcQNRnKfXP7YID250UFXTQ7m4mOjSQARlBxKed3KohLAhFR5v5anMp44fGERPlTU1jC3sO1dNh9jBneiahgT48/fRfWL16NX5+fnIZa6FUKTKgRCppX2sKQehrM66MV0ZAvADES1WIpLz44otyAZj/Va72dENW4z5MbvVy1q/ZRHJWDNkDckgyjCJak9npinunu0/K9XomAgcOHODhPz1EUqiaKy4+jwEjZ+E6cATX0TJ0SSkUG3Ws2/YVnkO1uB0OLCnBxCUmMnfG1bgkO8u2v0dBdRuu1n4ErAjGY/NgNPgTPqQ/KqeDkYbXaT2wiu2uy4kYdyOjLgkgJu3spkh63GA1S1jawS8QDD6qTgcSWu0uistN5B6sweijQxSRcrkkMlNDyUwNQ6NRI1yRQkdFuGLmz58vBz1ecsklsrVREIa+RBQUgtAz3wtKr38hAmL39eabb8oWhDFjxsg/hZm1q5uEh2r3QXY3LWPf3v14+3kxOHsw6V7TiNIMQH2sYK3SFAQ6hYAIKly77EP2f/kSKdG+ZJ5zFQmDpqH3CaSxtZEPP3wTdX49mhYHbpWEb4g/LdFaInL6U28tY+3B7ZitJgLq4sl0XUBzgx7fIgOhkcFkzB1K6a42WmpK8EsL5rLfDiY8Qc1ZKgjZKTw6c5DL5aG4opnSqhZZYTU9KYSIUCNeuhOfPaHeePDgQdasWcNjjz0ml9MWlgTxr680hSD0lZlWxvkDBEQ1PBHhLKRXp0+fzq233ir7ZkVKVNc1Cadko8lVzoG2VejVRrIDZuCrCkHXw+Rvuw4j5cqdRcDcXMWhdW+zfct67JZ2kmNCkAJTaFAnsD8/H7WtieRWb5pNbfj7+xDk40NzhIbmJDe11iqaLCrwNKKxekjYNxd1XTQajY4pf8hkxNh0juxu4KOPlpA80Mhv7rsW9Zn0xHUWhJ9xnIhHsNmdssXOx6BDo/nxXEZBElpFefmlS3n++ecRwaFCkvnyyy+XUyZF3IYgGb21KQSht86sMq5OISBU1nbu3ClnNYiHX0SEC7LQtSQBPDhxYkOUedHKyWe95M3bKdSVg04LApKE2+mgvvgb8je8TVtjJTVtKj7dUk5hVQdZQ4YQnxnKwNgkYsrcHCnIY1VjHgPOyebKOTdSZCrng/UvEB8cRGr8RRRs8EI6oqIj1c5v7p7GiJR+fL1+PTfeeBMvvfQis2bNOi3d7okXEUGhwuUg0kJFsaht27bh7e0tWyFFjEJvbQpB6K0zq4yr0wgIcRixQxA670IbQVTJE2lfXR+TcKo17To9JOXAPoOAhNtho3TnEhpLd5M46jI0AbG4PRI6nZ5Wu4mPlr2Jtt6MR61hZ8EB9F4BPHz/ExS21/H+xkWMS+lPvGEkrU3eNGua2Ftfxvx5FxDm68sbr78ufwTFB/G4lkCfgfZ7AxUkQWgsCLfO22+/Lbsl33//fbmmQ9e/K84O6gpBODu4K3ftZgiImISVK1fKgYtiZyCqQU6ZMkX+XWkKAt0dAY/bieRxo9bq5dLnTslBnbuGl5qepqqlnHH1U9Ga9JTuq+TjDz7jXy//ixFjxrB4+y5Kitrw9/ijQ4fD42Tg4FCmDk+htaVFTvUT2gmi+mFfCs472XyLTYXQVBHYiI3F8OHDTyAJgkyIglriZ08uN68QhJOtBOXvfQYBsTMQJkQhoCRSnF599VV5d3BmUyD7DNzKQLsIAQ8eShyFPNs8n3JHKXbJgk7lxeNhL1C7vpG77ribV155hfPOO4/KynZyd9ewt7oMb7wJMwSQlhrCmDHR5OXl8dBDDzFnzhzZ595bd8k/dxpEdchrrrlGzoR68skn5RovxzEScQtCtVVsPC666CLZZSkypXx9fX/u7c7KeQpBOCuwKzftrggIE+KHH37I448/LjN/IaokshyUpiDQkxDYaPmKN00vkOyVyl5bLg6PnSsCbiJ6T6pcJlp89MXOV4gstbW52bWrluYmG/3Tghk4MARJcnL//ffLtRlEuXTFevDD2RcBjC+88ILsnhSbC1HDQhABEbQo/iY2G8It09HRIRMHEQQtxNmEcmVPaQpB6CkzpfTzjCEgghW//vprefeUmpoqpzgJTXelKQj0FASEFaHQcYhnGh+Ww2FvDrib0b4TaaprlisbCvO42PnecsstzJgxE5fLm7Y2O7Fxx6oh7srN5cEHH+Sdd94hISGhpwz7rPRTaCb85S9/ka0FogkyJTIcsrOziY2NpaCgQI5rEhVlBd7z5s0jPDz8rPT1VG+qEIRTRUw5vk8gIEiCsCQ899xzciyCIAs95aHuExOkDPKkCNgkK5sta3FLLsb5TMFX7SefIyo3CvfZihUr5CJN99xzDxfPuxh3kEjBdWKpsvDYHx6Vd8SPPvqo4lo4KdInP0CotwrMRUVZYbn51a9+RWRkZLe3zCgE4eRzqxzRRxFobGyUCYIgCsLVMHv27D6KhDLs3ojA8TLou/L3cNE9l5A4NhlJJVF+sJzPn1nMgr++QVqqYjk7XXNvMpl47bXXWLx4sezaEeWnBw0a1OUp1b+k/wpB+CXoKef2egREIJKoKy98iHfeeadc2EZpCgK9BYEDxQdZsO1dVEY1UTEDaTC1UpT3DZmD07lp5LXEe8X2lqF2i3EIi42oJvvEE08wYsQIOYX0TCi4/tzBKwTh5yKnnNdnEFi7dq3sjxWmwWuvvbbHRSL3mYlSBnrKCFS5allatYKV722gzhNEi92Ct6qFK++azAjjYCb4jD7hmh5JQpJArVKh+nHxwVPuQ187obm5Wd50COvkxx9/LLswu2tTCEJ3nRmlX90GARGF/PDDD8ua7KKwk6j+qDQFgd6AQJnzKO8dXsl7H28gzOlHo9pOi8dOVlYM98yaxfTAiQge4HJ7qGxuY09JJa1mG5kJkWTFR/2gfkFvwORMjEG4G55++mn27NnDqlWrum2ch0IQzsRqUO7R4xEQWQ0PPPCAnPcsUpW6Woq5xwOmDKBHIGCRrKxu2MxHm7/mm+3lWBxO/IMNXHXRKK5Nu4AErxiE1SC3qJLluUfk38U/QRjOzU5l7IB+eOu7snZJj4DxlDsp0iCFZVK4La+++mo5pbQ7irIpBOGUp1Y5oS8iIPLBFy5cKFsRRMCiED1RmoJAb0DAJtnZbtrLwwvfoer/2TsLKLuK+49/nr91d8lqsvGNuwshBoQQnBCkSKHBpUCxFvjjVrRIgaIhWKBREuK22Ww82axk3f25/c9cSltaKCRZeW93hpOTc8i7c3/zmbn3fd/MT2obOXdsNvdO/y2Ban9sdhe5ReWszD3GhL6pDEiOQa1SU9Ni4uPNefSKCuWc0QOICPLvDig6dQwid8Kjjz7Ku+++y86dOwkND8XlcmBz2tBqdOg1BjTqrq3uKgVCpy4JeTNfJrB//36WLl2qPNAJCQm+PBRpuyTwIwJWl43f3HkdW3dt5/G7HmHBmWcr/15c3ciHm3OJCQvmgvHZGNRuHG4nTreatfsKWLe/gMWThzE0PUE5ipDt5AgUFRUxevRo3vrob/Tqn4zL3qj4dggRFuYXRWxwEuouFAlSIJzcfMpP92ACYhfh/PPPV0KTrr/+epkXoQevhe42dI/Hw4aNG/jtb3/LO2+/oxQrE86Ih0trePe73Uwf2Ivx6Sqa63ZR11TFkfogtpeEU1Rn56oZo5iZ3dtrz9G9ea6q6xq44vJbuWTmEqIyjdh6Q0JIBFE6HRZbC0H6UML9otBpdKDt/LLSUiB48+qRtnkdAVHESYQqCX+EpKQkr7NPGiQJnCoBIYBvvPFGKisrlWqFISGh5FfU88GmXYxMaGB0UiMOwmm0gMZRwpG6AL48FMTiaRMZ1zdNRjWcJHjhy7G3sIoDywsJPx5IQHwg6rN0FAc2MiQskkS9geaGKgLqjYQGhaNLCUWl61yRIAXCSU6q/HjPJiBenKLCnfBFGDJkSM+GIUffrQgIxzlxfPbQQw8pjrgiw2Kz1cm3ubtJMWwhs1c2QVHjUblacZqLqSpfz6qCWGaPPZuU2J9OHSwKmlvtbsCDQadWwiNlEzTAZLGx5c0SbAfacMTWQn4k6hg9TfNacVBFb2MI/fTJOGos6D16QgfHo40K6FSRIAWCXK2SwEkQeOedd5RfWevXr2fo0KEncaX8qCTg/QREeeIZM2YgUo2L1MADBwzA3FbOgYPvUG5OQuuXTLjqADp3FeFGEwGRU4iKn4pO998FiNqsTg5XtLKxoBSP1sHQhFjGpMbip+taxztvmQWrycG3e4txrzbhbDKj0wVRm1SPY7CNCH87oXWQoUui1WLGz26gsrqKQfNGE5TceQ7SUiB4y2qRdvgEASkQfGKapJGnQeCtt95SjtDOO+88Hn3kTwT4Oaku+Ywdha0cqI0m2OAgLqCR4QlW4nvNQh/YH5Va/6M7Wh1uNh2qZ8W+Eg4Yd9BgLCWldQg3DZnMiLQI/A1SJAhguQ2VlBeVY9ygQ9NXT1lEDc5gP+JtbiwlZWQFJxOnjwGHir+u/5jzllxIXK/Oc5CWAuE0HiR5ac8jIAVCz5vznjbipqYm7r33XqVmgEgQds01V9PWehBz0x7MZhcOt5ZAg52Q0N74h45ApflXiKPwY6iqqmbXsSrezCnBHl+Muv9einVFGOv7k1A+jvsnTGdEYpz0WRAJqDxujjdXYzJVU24zY1cZ6BMaTbIxgFZbEx67kzBLKH5+QagjDKg00gehpz2Pcrw+REAKBB+aLGnqKREQvgjHjx9X6gXkHszjnhcfwj8rDL2jjlSHmThNIDpjIsbgAajURuUe4miiuLhYcW4sKCyioEVL84A0nKO3YFJVgtoPbR8XfvmjeTzzWuam9UOjlv4ICjuPh1aHmbrWUmwOK3qNFhFVotMYiAlOwE8XcErz2B4XyR2E9qAo++gxBHJycpg9ezaPPPKIUpdBq9X2mLHLgfYcAuILf9feHH777O2kTB9An4EjiIuNJ1qvYmxAJnGGODSq748VSktLWbNmjVLKeNWqVcydN4+o9Gzy/RJoiyrG2Wcnxx1HsZX0IuhwFn8+bzFT+mRIh8X/WE5Wp4U2azNOl11JlBRgCO5ScSDMkwKh5zzzcqTtQEBkP8vMzGT+/Pk88cQTXpketR2GKbvo4QTceDhsKuaZzW/ReqSNodkLiYiLpc1YQlSgg0lB2ViKm/j000/ZsGEDffr0IT4+nlEjR5LdJwN9Uw27a1WsrFCz23qIWnclqY5e5Lz+Cg/dfCUXX3CeFNc/u8ZEjIN37K5IgdDDXwRy+CdHQAqEk+MlP+2bBFweN7vNR1lVmYdfSRwmh43AmCgCQ0IpbtxMyeebqdqcT3p6OlOnTlUiekT68XBnG45Vb2NpbmJfSCb7wwdh0kcSatAyMCGYZa89jam1WSlUFBIS4ptwepDVUiD0oMmWQz19AhaLRfm1tGDBAh577DGMxu/PYGWTBLoTATduDlqLWd14gEzVQKrqXKi1akxaM5XV22jdlM+03qOVrKLJycnotVo8tWXYVryKJySKkrgBvNOgpw4905KimJwSS1igH2++8Tqvv/46K1asIDY2tjsh65ZjkQKhW06rHFRHEcjLy2PmzJl8/vnnjBkzpqNuI/uVBLqcgMVtY1XLLvLMxaR5hmJygkVfxNTgLDK0cfjpjKjV33vVe2wmHF+/gbOhmqp5v+P5o02Em+qx2mwcMUSxKDOW+clhvPvWXxQ/hddee43IyMguH6M04H8TkAJBrhBJ4CQIfPTRR1x77bVKqVaZKOkkwMmP+hwBDx5qnU3sMxewx1REkCaAEYHpDPRLw6D6jxLPVjP2Fa/hMLXQOPdGVueXsq2mDT9rCwajP2f1iad/YgIL588lLS2Np556iuDgYJ9j0tMMlgKhp824HO9pEZBhjqeFT17sIwSEODA7rDTY22hzWvCoPIQYAojShaBX/4c4EGNyOnDu24Bz2wq0Uy/AHBLHytIm8guOc0Gsml7DJrB81Xruu+8+XnnlFSZPniyLO/nAWpACwQcmSZroPQSkQPCeuZCWdAwB4UNvcdk42lSKy+3CT2vA5nIo8fpxAeHE+0eg+ikve7sNx3cf49i0HFVkIi5TM6rIBPwWLEUVHs0jjzxKQ0MDN9xwA6mpqR1jvOy1XQlIgdCuOGVn3Z2AFAjdfYZ79vhEeGOdpZlycx2x/mGE64PRqtW4PB5a7CaqLU2E6AOI9gtFr/7vHCAuUwtN+7ZhzV1PTP9haAaORxUWy6HDh7n77ru58MILmTNnDkFBQT0btI+MXgoEH5koaaZ3EJACwTvmQVrRMQTMTjv5zWUkBUYRZgj8506B2FUQrcnWRqmphlj/cKKNof80wu1xYXO0ItI0r1+7maNHjnD22eeQ3CtFCX98//33Fb+d+++/X4l6kM03CEiB8I95Onr0KAkJCQQG/ndVMt+YSmllZxCQAqEzKMt7dAUBIQIabK2Um+roHZqAQSnA5MHhdmF12pUjBqvbRqW5gQhDMAkBkWhUappbmiirOUZ9ywmaW2tYt2orrzzzCaNGjlHSNffr14/bbrtNSTB20003yeRiXTG5p3hPKRDEI+DxsGzZMsaOHauIBNkkgZ8jIAWCXBvdlYBwTCwz1dHmMNMnJAm1So3T46LZ1kadrRmH2/29SHDaCDME0SsoBrXHwTeb3mTNZ0cJto/FYTxOrfED9m6rYHT/c3n5z39RykZ/8MEH/P73v1dChGXzHQJSIPjOXElLvYCAFAheMAnShA4hIHYQaiyN1Fib6B2ciEGjQ4gGm9uJxWHD7XFjdzupMTcSYggiMSCcqvojLF+2gsMre+FoDseg19IW+QX+WVvJiJrGdYv/wE033YxGo1EqQ8bFxXWI7bLTjiEgBULHcJW9dlMCUiB004mVw1IIiOiF480ViiNiYkCksovwQxMCot7aTGNTNeEqPSEhUXy5/l3y1mowHZxClWMNKYFzUUUcQj/ibSZNmEagPZt7772fWTPPZMzoSbSaLcTERZCemoTR+H2xJ9m8l4AUCN47N9IyLyQgBYIXToo0qd0IiB2DBlsLFaYGArV+hBsDMWoN2F1Omu0mrFYTIU1NBNgdqAPDuO2pOzHGmtGUnYunPBt3aBHq9FVE965mYvZiSvd7eO6pVxiVPRG9LhC7w0FoTCjp/VKYe+ZEAgP92s122VH7E5ACof2Zyh67MQEpELrx5MqhKQSEn0GzvU0JaXR6nOjUWlxuN2qXk1CzjVCPGpXThctm5uutq9nTtBvhz+huSMFlrEYfXUaAtheJkYNpKNLw7Wd7GTFqJAMG98bjdJG35wjaID9ik6NZcNY0wsNlRkVvXXpSIHjrzEi7vJKAFAheOS3SqA4g4HS7MLts2JwOpRiTHzo05lacNeU47RbqmhtYvnMHFTWNrP7uEzKytahUaqoK/Bg5djaB/gaaytvQmmOZd9504qIjOLzvOEcPFNJmNuPwUzNpygjOnDlOZlXsgPlrjy6lQGgPirKPHkNACoQeM9VyoP/YTRDHDiJzolqlApcLa00pjRVFrMjZxYnqFvYWHqPB3ETFkQO0VjdgM6vpP3gQc885i+YKK04znL3oDPQeA99+s5XqqnqcLheayAAGDM7kN0vO+WfRJwnduwhIgeBd8yGt8XICUiB4+QRJ8zqcwFcrlrPz4GYa7HYC+vXGEB+FrakFj8vJN0++Tf3xMiZOnMjISWMoz6+lpcLGWQvPYMTIwRw5UsSODbl4NFBrMTN+XDYLzpra4TbLG5waASkQTo2bvKqHEpACoYdOvBz2Pwk8/9rj7D6WR++zZlJl9dAYl0je4y+TlRjFmAvP4MT63dgrG9BotVhNNuxVOsJ0USQlx9FU10KvzET6Du/D12u2cNnFc+iXlSbpeikBKRC8dGKkWd5JQAoE75wXaVXnEfh229dsLTuKY1B/KoIjqD50nNCsdPSFBWTFBWOvrObIF2swav3RGzW47FZULVEEqKJJTI3DCbjwMG/ORDLSEtHp/rumQ+eNRt7pfxGQAkGuD0ngJAiIjJtXX301X375JePHj+9WzlUOuxuH1Y0xQINaozoJKvKjPYlATWMFfz+8if1JcRQdr8Dc3EbM6KE4qmvop3NSlXeIb/70GuMnT2Bgdh8qag6htUWQljACtcZIQKAfkyYOJz4mErVarjNvXjtSIHjz7EjbvI7AgQMHmD59upIVTggFnU7ndTaeikGWNhclh5qpK7OSNiiUmBQ/1Fr58j4Vlt39GpO1lW92fMGJYA2lUb1o9mgwl1VS8sZ7TDhrKse+283x73YzccoEMvvEU1pxjCO7y7jxmtuYPGUqBoMOjfpfCZh8lZeocOlxu5WxqIQDZzdsUiB0w0mVQ+o4Ana7nfnz5ys1O1544QX8/f077mad0LPHA/XlVjYuK2LtF7vRG9VER8YxbWF/Bk6JwD9Ybv92wjT43C3yS/fz6aZPsaYkYQ9PgJZWtK2tFG3KpSL3CHa7FT8/D1PPGEdaQl/eee1jxo+dyNKlS7tFsaaa+mZ25B6nrqGVjJRYxg7rjUbj+6LnPxeiFAg+92hKg7uSgNvtZu3atTz77LOKQEhLS/PpXw/iSGHFa8fY8OV+6owbCdCH4m/qS5g+lQW3ZDJwciR0zx9HXbmMusW9t25fzYFjeTRr9ZiDPFQeLKbswHE8HjutLXUMyO7NwvkXMi77DJ575nn27NnDE088QVJSkk+Pv6Sinm++3cPBDWtxt9bjjOnL+RfOYnR2Jv5+3St9tBQIPr1UpfFdRUBU/rz22mu56KKL0Gp991e2qdnJCzdtoqDwCI7YHMylkUR4hqB2BDF2QTwX350tBUJXLTIvv6+nwknle4c4Xn6E7Rk5VDbXcKKoGL3WitsNg/tN5c7f3Y9Wo2f79u08/vjj3HjjjUrVXIPB4OWj+2nzWtvMfPTJGg5v3sCMwCKS/CxsbIgglwzOv3gBk8YNQqvtPjsJUiD45DKVRnc1gUWLFjF06FBuvfVWn/ZDcNo9kj2HVgAAIABJREFUbP2ilLUfHcYZXEBdfR2mkggiQxK47A9DGTY1uatRy/t7GwGXBw47YI0Zmjy4SiwURxRzOKGA9/NeJtTfQkO9hT59Z/LA/c8q2RVbWlq48sor6dOnD9dffz3x8fHeNiposYDNCaH+oNP8pH3FZbV88vIrJJWuw2VrItigJyUYvqpLwNJ/LncsvYig4O5TX0IKBO9bptIiHyDw9ttvK5EM77//Pkaj0Qcs/hkTPdDW5GDP6ho2fZlPS0sTgcF+TF6YyagzUxSfBNkkgR8RsHpgkxXeaoFRRthrw9Fg5bvkjbxe/iitZhOREUb69BnCeeffRO8+o5TLxfHCZ599phzNDRs2zLugnqjDs6cYj8WBKiEM1YQ+8I8IC6vVyoYNGxSRszv3IDu2HaK3toHJUc2kB6k50mpgXWEMoVEDWDRvMgn9EogflIgxxPeFghQI3rVMpTU+QqChoYHFixczb9485W9f3TL9Abfd6qb8WBttDU6iU/yITvbj3yr9+sisSDM7hYCo+9zi/n4X4W+t4AHHEj825K/jz+/dQUioCuGv17ffRK64+g9ERCQoZtXU1CgRQDfccANLlizxnp23/aW4D5RxdPlxLLVmEkZHEj26F3tCbLz2wTscOnyIiooKAgICSEvPQBeUQEOji1mxFlIDPezZpqWmRIvd1UxW/3Qi9RHE9k9g6l1nEhgZ5NNHdFIgdMoTJW/S3Qi4XC7ELsJjjz3Grl27CA0N9fkhetzgcnrQ6lQ+/VLz+YnwlQHUuaHQjsh85MnW0Wxr4W9/e5m1q9/AZLKT1f9MnnvuFeWIQTTxzFx22WWISKDXXnuNsLCwrh9pmw3XmgNUryrk8y3byIiMZHDvRALD9Tx6aCVHtK2cOXs2AwYMQK/XExISglqjp6S8ka8/3wgbCwnVhXDGrbN48qWn8Q/x5/c33EXh5mM0lzUx5tpJxA/2XadMKRC6folKC3yUQHFxMZdffrmSd/7+++9Ho/npc0sfHZ40WxL43wScHmX3ADfwD1HZ0FhHYeER1q1bx9ixk5gwfizfb0VpcLs9vPzyy4o4EMdzycnJXR8B1GrBvfogZesL2LXhGEmpkSRHBREUq6VySAzqocnExMYquwdOp5v6OgsFhQ202hrYvmwlrn2NzF16NtlzhlB0opirr7qKp598hoSgOHa9uQW1Rs30e+b47HGDFAjyJSAJnCKB1tZWXnzxRT766CNeeeUVRowYIUXCKbKUl3UnAh5cLitqRwFYD6HShIFxIOhiFJEwa9YsRo0axV133aV88XZpEwLnaCVV32zj0IYCItxh9J6YiF+/WDxTeuP20+J2q5WojJITLWzfUYrD0Mj+lg3YlpeDycXA64dz1hnnEKIK5rcXX0ffXn2YPXM2ReuPUVtQwzkvXEh4r8guHeap3lwKhFMlJ6/r8QRETgThuCQiGtra2nj++ecZPnx4j+ciAfR0Ai481sN4TFtQqf3B7QSNP6rAsaBN5JZbbkXsvr3++utERER0OSynxcZHj73IwGY/MmOTMWQn4ZgQSQU7KarNpb44BWtNGjp3JIlJQRR5drDz6HaMn0O9sQH3BDV3n3cnwa2BPHbeg+iaNKSmpGJvtWIIMnDmHxeQOiGzy8d5KgZIgXAq1OQ1ksA/CHg8HkR9httvv105ahAe2uKcUjZJoEcS8DjBXoKnbSOqoDGgjQVnPR5LDrjtqELmsu/ACc4991wefvhhzjnnnC538P3b3/7Ga6+8yitPP0/fzAwa9cfZ2fxHqqpb0BCMIbCVhuP9aM6fTHJCHH0zE9h8dDPH/7YNV42VBQ9czPipY6gorWD+tLnMnj6bJZcs4cgX+2goquWcFy4mON433wlSIPTIp1gOuj0J1NbWKs6KQiiIZDDi5efLyZPak43sq4cR8FjBcgCPLR9V8ExwNeBu2wrOWsUXQR12IU4iGTZsuFLs7NFHHyU4OLjLIAnHySuuuAKbzaYcF4ZGGtlUez2FhW1U7p7OhedMQB1czu6aJ2g8NpKaA2NI7RVNTHwAOR9voHV7FfPvPIcBM/rz1DNPsnLVSjZt3ERTSQObX/hWGdesB+ejD/LNUGgpELpsacobdxcCYhehoKCA2267DRH+eNNNNzFt2jS5k9BdJliO49cT8NjAehS3NQ91wHhQB+CxFyr/T3g0ih0EtyqMt956mzvvvJPly5crO29d1fLy8pTsjpdccolSfK3Vnc/G8jvIXd2X6SPOJiB1EzXWrTRYi2kr7U/jnotRa3RkpsYjtJB5+xHMBVWkz8zinkfuYebcmZw1ZR7F2wrQGXWMvmoiYSldf4xyqnylQDhVcvI6SeDfCFgsFrZu3cpDDz1EU1MT1113Heeff753hHLJmZIEOpOAuw1P22bwWEAXh8ptxeOqR6VPB+MAUGmVZ0TsIMTGxvLxxx8rz0lnVkRUgi888PJLL/HKyy/x4IMPKjt/ZncZ60tv4dDuYM4adQP6sBOUt26loOlbTKWDaT5wFm6HH4lxEQwZnEByYiBfP/oNOz7ahtNqJbpXKEkJ8aSOS2f8DdPQ+fl2tVcpEDrzwZH36vYEcnJylIxxwgnr7rvv5owzzvDtTIvdfsbkADuEgLsZTNtwO2pQqXSojP3AmAWq72swCEEt/HVeeuklbr75ZqWmSVRUVIeY8p+dikzRZY1Q2QLvv/USNQU7ueOW3ymp0z242VH+LHtKPiU7YSHxkanUW45QbypEUzeDkiORVNeYmT6xP/2z4tm35TjvPb2S/EP7ifZEkJIaw/yl0xkwoy9GHz1W+HdeUiB0ypKUN+lJBPbt28fvfvc7goKCeOCBB7wvrWxPmgw51q4j4LGD26TsGIijBvjvtN2i4NkXX3zBM888wwUXXNDhtlodcLga1h9swtNWQUlpGYWH93LDRVM5Y9L3EUgtbS2sO/AWZS1bSc8IICIgnUT9fOorg9m9t5DoyBDGjexDUKCRay6+lYNbyvDXBRMZmMTZSyYxfdFQohJCOnVHpKPASYHQUWRlvz2WgMlkUkK43nzzTa655hp+85vfeE9a2R47K3Lg3kjgwIEDPPnkk1RVVSlb/CJ1uTh26IhmtTvZfKiBdcd1RDV/x4SQXA6Uu/ioIJNzZk9myYxe6DUouRqqaurZeXAnJTWFhBnT0KtCqK1vIzTYnxmTBhEdFcLq1asU/4UhGRPICB1DSFgwS35/hiIOukvrdIEgHLo686ypu0yUHIdvERAvPJFzPj8/X/mFlJKS4lsDkNZKAp1AQEQRiGdERBCIQk7Cb0eEDMfExPzi94TIQ/JzTXzPrF69WolOEMWW1q5dixMtDca+RCVmMkv1Llps+OlU1GnS8fS5hLMmDyLET/XPLptbLezJK6Kyph6dRktifDjpKbGKOBD9i+qUpaWl3HXHPSRFpaPWqDBbaqk4UUb/YQOJT05Co/Xt7KqdKhDMZjMnTpwgKyvrFye/E9amvIUk0KEEvv32W+677z7S0tIUJyjxt2ySgCTwYwLii768vFw5jhOhwhMmTFAcGIVI+Lkm6jmIDKZCYPxUE1/gok/R98CBA4mMjCQgJIL+Uy+lsrqBefr3qSw5ikGrxhE5ElvqImaOyybQ+OMvdKfThcVqB5UKf6MejUatZJcWqaKFkHn0kUeYO3cuuNx8+Mo77N+Ri9agQ8iMM86bz+R5M3x6ujtVIIhqXqtWreLCCy+UceI+vWyk8b+GgDhqeOSRR5SjBrGNunDhwi5PCvNr7JafkQQ6m4D4Ii8sLCQ3N5eNGzeyc+dORCrzn2ui7kl2dvbP/tAU/37WWWcpDsLh4eHKH61WD4FxrD9kwlqRQ5ZpOcfrtJhTL2HSyCwGJgei+UeJ55+7rwkP2zw23vzyM/wP5vOHxVcSGx7J6j98iGlbDdEX9yFscDzH9h1m/65cJs6ZxowFczobZ7vdr1MFglB7YutVLAKRj1smk2m3eZQdeSkBEWcthMHkyZOVpDDil4xskoAk8NMExC9/IaxF6vKf2x0QV4pj6sDAwJ/F+MO///tx9tG8PHZ+t5HUIWMp1g0gJ7+B3E1fcuXsLC6YNxGd5l/HC//Zsdg1qMHFl24zX9SVU37iBFGxsdzniSdyRSEnnt+BISMEXTO0DVKxtW4PhWUFZA7I4vanHsA/sItrTpzigutUgSBsFErxyJEjlJWVMXPmzFM0W14mCfgGAbEV+vTTTyulob/66isyM30zJ7tv0JZWSgL/TUCIDofVyqt/+hMtjc0Y/PxYeOOt6EOiePqJR/HXOrnht9cRHR39s/jqcPOJu40ij4OkLXv54PW/kHz5RSQm9Gfs43m07dhHfN9kDEddmIMcbE86RlH1CZIz07jzqfsJCA7yyanpdIEgKDmdTkUkiN0Ecd5kMHwfGyubJNAdCYhfRDNmzFBKQ4tsbdJJtzvOshyTtxJorq9n+RtvYrfa0PsZyd+/n5FTpzL57Hk8/efnOHzwEPfcdQ/Zg7J/NIR/d6g/5nHwlquVRJWW0L2HeHn/bhg7HF1iApfVqYm98mvUNTYCxscRc0EW+47uY/v6zUyeM53ZF5yNSv3fIZ7eyuvf7eoSgfCDAQcPHlTOmWSZXF9YKtLG0yEgEiaJ44aKigrUPvqyOJ3xy2slga4iIHatbWYzLz/0MGaTCb1ez2W33YIjxs2jyx6h4lAld19wN6P6jVZMdNgdWCxWTCYzQUGBGIwGCrUe/upqJUKtIXnPYV5du5KW/hkETxrNFcYopmyoZ/fnG9hyaButQVbUGg3nX7uY8bOmdNWw2+W+XSoQ6urqOHr0KAkJCSQlJSEcS2STBLojAXHE8H//938IUSwFQnecYTkmbyYgdgOO5eWxa+NGBo8eReKw3myzbua10pegWM1Vfa5hZuosTA0mcnbmsX7NJpoamuiVmsyY8cPpM3wQu4M0rHaZGe7RkbfhO1bbWslMSeEqQzjjY5LQeFQUHM0n/+BRsscOIzG1Fzq9TLV8WuuisrKSkpIS/Pz86N27t0xLe1o05cXeSkAUc1q0aBGitGxGRoZ00PXWiZJ2dWsCQihY3Gbern6Dr6q+pOZwDfo0HVmZWZxbehHb399DfXUj4RGhZPRJY//eQ7S2tjEouz/zz59LfVIkH7lNtLgcmHfvpez5v3Bg/Ubuv/9+Lr30UiV7andqXbqD8ANIEa8qQlvELoJw4hLOIvKctjstMzkWQUDkeheZ4m699dYuLXErZ0MS6AkE3A4XrWY76PT4GzW0NTciSrMfKz7G8oKPKQjPxxMN8XFx9DZkkX9/Jdo2HXfct5TefTPQG/S0trRSXFjKEw8/x4ixw1j8m4uwBPtjxk2MR0tFQQHXXnONclQuaq/Ex8fTt29fRSh0h+8wrxAIYrGKs9k1a9YoBTsGDRpEXFycPHLoCU9xDxqjFAg9aLLlULuUgLu2jvpV3/G5Op2GsGjiqraz7+A2qqoqlQRKY8aOIWZINIx2kR01hIqv61n2ypfc+cBNDBuVrXz3WMwWzCaLEm65asW3rPx6LdfceDkTp4770dhENUrxR+yGi2SAIrX6VVdd1S3Sq3uNQPiBuBAK27ZtY/bs2cqxg2ySQHchIAVCd5lJOQ5vJuAqK6dg7U7W7KhgS8JAih063IW7CHAUs3jOMLL6ZDJi5Agc4j+PA5fTxQevL2P/rkPcfPdvSctMweP2sHLFOnJ35Smh+WUlFRTkF3HxkvO4/JqLf7Q7II4tRIbgoqIiJSna4cOH+eSTT0hNTfVmTL/KNq8TCGIyPv/8cwYMGEB6errcRfhV0yg/5AsEpEDwhVmSNvo0AYuF1g8+Yfv+Wl4duhhzTTGW+iaaU0awyLaPmy8fhiHQD4u5CaulBT//ELT6QN55/QNyc/Zz853XkZaRisvt4psv1pCzPVcRCBXllRQXlXDR5eex5JpLfvL4QAiF5cuXc8899yhZHMVRotgR9+WjBq8TCGJxVldX8/XXXyvlP/39/X16vUrjJYEfCEiBINeCJNCxBNwtrTQ/8gStHh21193C418coa3FxSW7PiLLaCXllhtoPFREiSUHc1ALfkHhDBh5Njk5Zbz24l+58w9LGT5mqPLD1GYVhZ5syg7D379cw6oV67h26RWMnTTqZwfR3NzMX/7yFyVrqqgBIXwR+vXrp+RBEamhIyIiOhZAO/fulQJBnPkcP35cqZQ1ffr0dh6y7E4S6BoCUiB0DXd51x5EwOmk5ZkXse/Nw//BBzjvDy+QFZnA1bnrCImLpqnfNGpW70WdHUjYef1ps9dgt5kJjBzMqy+tQKvTcsNt15CenoLOoMPUZqL0RDnPPvoSvftlKLsH4ZFhPwtUfHeJLMFCJIgQfvFjVxw5iGquixcvVpKlBQT4TtplrxQIgr7Yrnn33Xe56KKLZEhYD3q+u+tQRSlbEQoldsaEp7PM+dFdZ1qOq6sJuCqrML3xDvVbt/P17t2MSssgMSOTWkscdfUt2P1tGGsDMI6IRTMtkPLGvUTEZBCTNpPPl63l6JHjBPj7k9k3nf25B7Fa7UydOZ6555xJZPQv7wCI766WlhalnoQoNX3o0CEl1booQCXeAQsWLFCKR/lC81qBIOAJb1NR/VHEl+p0vp1wwhcWg7Sx4wiI4mQiz8dzzz3n02eSHUdI9iwJtB8Bd2Mj5nUb+Oqe++izcCH9LrqE+pxyDv3pA9pi3axsyEedqWPSyF44NPXEJg9g/JybcLh07N6Ry8ov11JX20Bm3zQmTR1H9rCB+Aec2nG32FUQIkGEQW7ZskXJhSKc8H2hebVAEGDFMcOePXsUpw/5q8sXlpS08acIiJoj4s+f/vQnKRDkEpEEOpqAx4PHbObu3y2lyWbl+ddex9zQyKo/v8ymVVsoiHfgFxpAdIiRoalhDBk2mSHjz0erM2K1WGlpbqGltYXQ0BCCgoNPu16Qw+Fg9+7dXHPNNYpv3c033+wTUXpeLRDEGrJYLMrWTFhYmJIfQTZJwNcIiK1GUbn0lltu4dxzz5UCwdcmUNrrswR27dql7EA//PDDzDxjJt9uXM1b775EkN5Og8mBxe7k+suuZvYZCwkMiVLG6fY4abWVU2Xaj582jGj/fhh1P+938GvhiGiI+fPnK5mDRbSDiNLz9ggHrxYI4ixHZKjavn27IhTELoJskoAvERBrWDgsPfLII4r/gfBolk0SkAQ6h4DwARDPnMigKCoIi9w6uftyuP/xuwj003Hpggs4a/5lBASGKV/WDqedJnsR3xY9hFqtwuOCqIC+jE++GZ3m1I4YfhipeBfce++9/PWvf+WPf/wj559/vtfvIni1QBCRDDk5OUpOhKysLHnE0DnPVKfcxWo2UV5aQmBICDGx8Z1yz664iXgpvPTSS8ofkd9DpBKXTRKQBDqHgHj+1q5dy0033URKYgZ9Mgbg8rhw620MHT6QubPmEBUZo/i7lZaWsOPw51hCdlOx38iU0YsoqVFTZT7AyCFxzBq6WNlROJ0mjhpuu+02JfPi6tWr6d+/v1cXb/NKgSB2DcQfsT0kdw1OZzl657Uel4OivO289eoL9B8+hnMvuRqdX6B3GnuaVokX1IMPPsiBAwd49tlnSUxMPM0eO/5ysVsns5h2PGd5h84hIOopfPjBp7z35kfojBqmT59GbVUjqRm9OPf8OcquwQsvvMD7H7zDzCsiCY/xY80bLpptVozhM0EdyNkXOlk0fS5D0sYrOwun00ThNlGTRRw5iig9b87143UCQSg5AVDEj86ZM8er4Z3OIumZ13rwOB1YK49QuG0d+/IKiIwJYcC4ScQMGIfa4Dvxwb92/sS5o0iQMmLECKXcc2Rk5K+9tNM/J5yCRcpYEaIlbJZNEugOBE4UlfDgPU+g0rlZs24FgwcNYfSIiRw5dIzElGgqak4oAn7UqBFMWxyFf5gLXc1F3P/YN9S1lhEcbqK5JoPLFmVz05XTCAzUnxYW8U4QAkHkQxDCJCYm5rT668iLvUYgiF9aBw8eVIRBcnIyaWlp8kihI2e+C/r2OO2YSg5QlreLZavr2bLtBP0z9Sw8M4V+48YRlDEMlaZ7hbOKl4Fwrh01apRXCwTx3BUXFyvioE+fPsozKJsk0B0IHDtawCN/eJoZsydRVVNGeUkNRQVl1NXWE5cUQfbw/mRkpDN91hmUqY5ytH4tVAeTt9vJl59V0NLcxuih/bnmsjMYPTQFPz/taWMRu4nCcXLHjh1K+XdvbV4hEMRLSYQzit2DYcOG+Vw6Sm+dXG+zy20zUbfrG1Z/W8kXa8uxWaoJDYpn1EAj8xcOJWHkVNSG03ME8roxe7lA+EGYNzQ0YLfbmThxInr96f1C8rY5kPb0bALV1TW89+YypQDTtFkTaWtt4/PlX2NuM3PpkvMZNWEUTR4PR51W8p1V1FuOkN66E3dbK8vf87BxRSV33TSL6668rN1A/iAQhOPy6NGj263f9u6oywWC2DUQFRxDQkIUZ0RvPo9pb/g9rT+Pw0rr0S188+kW3vu6BA060pPjmTUxlGET+hMxaALIHYTTWhZuuwdnowuNvwZNkEqJ/tmwbgMqtwoPHty4Sc1IVTy7q6qqlAQugYGBSnl14R/h7WFXpwVHXtwjCYhdvPq6RqWWwv59h5XMvFExkUyaOpb+g/qyQ6Viu6OVYkc1jR4nAZjJxEaarRlVbgPXXX4bjz/2FJcvvqTd+OXm5rJ06VJiY2OVug2i8qNarf5R/063E4fLiV6jQ6PWtNu9T6ajLhMIoqiFyFUtwlDEi0mknzUajSdju/ysrxHwuLE31/Dqw7djagqhqFzL2GERzJmfTVjWCDQh4izu9ByAvA1JZx0xiFBg01EHkeXJuM0ebE4bZZ5Cjuhy2bZ5CzN6z6CqtYr1x9aTmpmqZHITLyfhEyE8qQ0Gg7ehk/ZIAu1KoL62QREIVouN3lnpJKYkkouKlXYHBlopd54AlYEWtxUVdhYZexG+v5wzps3gz3/+M5dc0n4CQUQziIyK9913n+KfJGo0CL+EHwR6WXMF20p2UdVSQ9+Y3oxOHk6gvvN9tLpMIAhxIBxDpkyZ4jN5qdt1tfbQzjxuN/t2bcLP1Mz+nFz6DB5In5Fj0IXEgqp7iQMxxT8IhJEjR/L444+3q5Oi+PUvdt88btj9yT7cZg0N7jpqj9US2hxDsl8ajqhm6jWlxIfEIX6R5NfkU2wvZvGNi5k0eZIiEmQa8x76MPbAYbtcboQzrl6vw+SBj2wO5Xhhih5yHS3sd1RS7XaCKo57A0Mx7TnA9GnT2l0giKO9xsZG3nrrLSXPjzhiF7sIsXGxnL34XA60HaHJUkeE3orDA+kxo5iQOkERCZ25y9dlAiEvL0+JVhCFK2TreQTcDjsOWxtavT8afffdOfpBIAQHByuxz+0Z5vj0008rjo/n9L8Y25wm9vfeSqO6BqfZRev9EFYSx42jbiU6MZD9VftICk8iJDCEkGEhTLt0Gn4Bfj1v4ckRSwL/INDkgb/ZHIi3z5kGLfudLnY4zBS63Dg8Bh4NMlKTk8O0DhAIP0yCzWbDZDJRV1fHF198wbKvl6Md6Edmehqj42NIS9XhcFvZUlTD+k+P8uajb9A3I6vT5rDLBILZbFaiFkS8tfA9kE0S6I4EhEAQudc3bdrExo0b2zVRkkgi9n+PP05JVBEhvVKxbE6jrHEbpqH70fSyoX4jjKm2eZyVcS7NESWUNZdiijKx5KYlZA3qvJdMd5xXOSbfJ+AEvrK72OF0MlOnIUOroczl5gObg3SNhiUGHfk5uztUIPxAUewoCJGw6+BuHvniCQakhpMdE06b2kFidJDysY3bmrjjsgdJiU/tNPhdJhDECH+olS2yyyUkJHTaoOWNJIHOIiAe/Jdffln5pS8yp4kQwl9qnn+UOxf+GP/KyeLB5XLgsJsAHSr82b4tl9dXvE1BdBGxaxajzk3GjQvTlA9puWwT4VWRnPX+9YQTzgHNNg65c5hz0RwuvfJSGUL8S5Mg/71HELAB39idbHW4EM+dyeNhrE7DAr0OfxXk7O4cgfAD7EZzE+/s+hC3x8awiHAaGveh1cORVhiTfjZDk4bip+u8nb8uFQji5SlemqGhoUqcuGySQHckIGKdr776auWIQaQM/19NvKQcTjetJrvi1RwUoEWjVuNyWqko3c2+PR/hcfVG47yA4wf9OVZUhalRi67NiMlWh6Y2GKfJzsFnLgN9FQvevoHpSXNpGViBKsnK9NnTFC9u2SQBSeB7Ag7ghNvDTruLLJ2aLI2aH4KtRQXG6dOn8+KLL7ark+LPsReRRkdqjvPh3k9xuUwMDjdQ1lZPYtQY5vSdh38nigNhY5cKBGHAypUrFYHgzbGg8kGSBE6HgNPp5IwzzlBCeMU543+GM/3Qt9XhorLWQmWtSUnn6vZ877cZH6mnvuQrDud9S33TcAqqkzBq/MiMSeFY6TFyGnYS3ToDfUUCGn8tFk8dx858DGvNXm5pe4ghicPRD3EQnBBIXFYMWoMW1Wmmiz0dHvJaScDbCLgBOyCk87/L52PHjil1HETKf1GquTOay+2isOEEm4q2UtFcRnbCIMaljCXULwRVJ0d5SYHQGTMu79HjCdx55518+OGHbNmyRck5oNH8OK7ZZndTUNZCq9lBTLiR8FCDEp1QU2/h+IkCGss2o3XNZVP+EaoHv0igp5nphmzaahP4y9efYuqlpVfJRdijKolyjyS8oi/Gplzmz+xP9IgAguMCaSxtIigqkNh+0RiCZDKkHr8oJYBfJCD8At58803WrVvH22+/rTy7ndWEUBCFpbRqHeouivCSAqGzZlvep0cTWLZsGXfccQeXXXYZt956K0FB3zseieZyeyitaqO20UpaYjARIf/KSeBy2Vm76gNqrcM4VllNQdKT+HusNLta8FMbOC9lCV+8spP31v+VpHPjiO4dSfre4fQ+fBn2+L4MG1pPZpYG/1ACBssCAAAgAElEQVQ9lkYLwXHBRKaFow/oXimte/TikoPvUAJlZWWMHz+ehQsX8vvf/75HheV3uUDYunUrwhdBpFiWiZI6dJ3LzruQgFjjixYtUvIgiMxp4ljth9ZmcXK8tIWgAB29YgPQatTYHW4sNicWi5OVy46hDjMSkGTmqOYjShryaLU1kKJLIKSuN39/ZyfVVdVU19egs+kZGDWUcy85jwFjp5OzLooRY6zEx7YQlhhMSHxwd8tF1YWzKm/dEwi0tbVx++238/e//51Jkybx0EMP0atXr54w9K73QRCRDCLcUUQyJCUl9QjocpA9k4DwP7jnnnsQuwn/7qzY3GYnv7SFuAg/4qNEIhRoaLFRUWumptpJWaGTgPB6jAEaVAHbWV72Bv42NcOcY9m8voyWVodS+XTF1ytY+e3XLDj/bJ546GlCA2JYs8xFXYWT2RdoCI0GrV4rBULPXH5y1KdBID8/nz/+8Y9s2LBB2QUUTsc9oaBZl+8giDlbtWqVEuYo8yGcxgqWl3o9AZE5bejQoUp61SVLlvwzI1qr+fsdhPBgPYkxAWhUKhqEOGhwsn2Dh9AoCEpoxm5vxFT/NlaVBUtLAMv+lkN0VCJ33X23ki552eoPeeXjl5h6wWj6pKQxWN2HlhI/tq7pT/Y4f8adqemOySq9ft6lgd2DwPHjx3nuuecQBZZEqvLbl95BgCMEtUZFaHoQam33ywQrBUL3WLtyFD5AQGxV3nbbbUrVUlEHPiUlRbFahDUWl7disbtIiQmkclslFXm1mEyw71gcYy+KQJPQTHgwaM1HOLLhAAUHa1j2zZcMnT6KW++/k2q/Inbt3EddgQWnvprGkO8Q2RsHNPShcvelBEf25tJbgvAP6l7VMn1g2qWJ3YiA8Ed44IEHFKfFS6ZcwXDDBPwM/oy9cyABMcZuFx0kBUI3WrxyKN5NQIQ77tmzR3F0uu666zj33HMVgz0eaDHZKSpvxVZvpX5bFRqbi+YGF2W1Ovouiiepj5GYIA17vtjAnn27KfGrwnbCjKtaxaDZU3AnmHE26lDXi+BlO63+xzgR2kyqtRcB+Quwm7TMu/Qw/UfPRmf8l4OkdxOT1kkC3kdgX94+Pnz2U0w5LjRuLYkBKYycN5Ssc3oR0TcE1Y+LMnrfAE7CIq8QCC0tLUr4l6hqJZy4ZJMEujOBd955hw8++EBxevqhiZDG/auLOV7QhCY5kOBQA5Y2N811VlxFjYyYFE199THWrf0E2ygrlswIrPUq3JsC8asegS40nIDgarCrURtbaGuJp8UWisoTRLgrDaOhmZHj3iAi1kjfMYvxC4jozojl2CSBDiPgtLqpOVzP1mfz2H9oHxGqGAZMyqLf+alEDw5Fres+CsErBIKYyc8++0zJpijKPssmCXRnAoWFhVx44YWEhYUp3tGiGIzH5SH3w6OUHa4nc2EmrQ0WPBuLMBW0UFDjYPjlwbg07+LS1+GIUKHSaTmsiaKgPJq46n4U6g6gbqojtm0Mg4b3xxmo5osTfyNZP4TY45dgaXUwburHNNVsZtCk64lKGtKdEcuxSQIdRsDj9uCyu6k73MyGp3aSk7eb5HMjuPi6CwmPDu1WTsBSIHTYMpIdSwI/TUAcNYjCTffffz9RUVH88aGHSUtNI391Gfnryhh2YSahJgt8eQBHSTO5FhW9rjyKLt7Bts3lHDU2MmRCODEuE+X7AggLXYA5tph1VV+iC0gkJb4PFY5i/N1ahjYP4tjaCbicDgYOeQdzSwF9R15M75EXirMIOUWSgCRwigSEqG8pN7HkqiXszc/hyaeeVJwXu1O4vhQIp7g45GWSwOkSqKioYNzw0UwZPooZU6cxaNQYmvZ50H9XSG+VlcaQIIwldYQa3egWJOE+ZwLvPf4WuYdzcYzTkuKwMTm2hYGTzqbiEFR+u5eCaAsH+lUwJvNMxupGcGjrZjavHEVExAESkz7B6TDTZ8SFDJhwNSr1j7M5nu545PWSQE8ksH37diWVut1u56uvvlJqN3SXJgVCd5lJOQ6fIuByuaitqOTpex+mpq6OuMQEMlMzyMoagH9pIGF7ywgymfFzW7BFO7GeOxu/wcFccsHFuOvMjBo0FE2Qi3HjYIB/DM3fhNFcWYrWPwQiQ+h1yxwMMTF8+1kbRUcMzF9soqn8UyoKtzBwwrXEZ4z3KV7SWEnAWwlYrVZFGNx9991KhtRnn31WqS1kMPwrI6q32v5LdkmB8EuE5L9LAh1AoK6ikpXvf0pNWysrD+yhJTaGUX36k25xMG/emcRGxKNdmYerajOHYqLZWzcfT9Qenn/qdu65YSizpvTF7VDTtstN4Tvh2FXJ2PqsI7JvENElvdC06vBcMZevPteTPdbB4NF1HN3xHm63k/7jriAgVJZX74Bp7bIuxa9Xk8lEQEAAer2ss9HZEyGODXNycrjyyisRyf9EvoSJkyYRFBqGU63BT6vBT6f1uUM9KRA6eyXJ+/V4AiLtcmXRCVZ+sJzwwf3Isbayu7Iaj8tNnM3ONZMn0b9/XwwaE/bSxzC7hnH3g3NYX1HFsN7beOM+ByrLMVqPBVD4QQqtB4NwugNR6fX4h2wjPNCDxhbJzujpOFPDmb+kiPKja2isPsrwWXcRFvu/S073+AnyQQAFBQVs3ryZyZMn95g0wN42TeK5Fs72Igma2D2YM/8sJi68gKbwWIbGRjAmIRq9xrciHLxGIIjFLRK7iJTLfn5+3jb30h5JoP0IeDzUVVaz6es1FLqdFAfoaWpqpNxkwmO3E1VWRoDDQWZ6CtOHVdDm7MXv35lDfpGLuMRkbr3IyIwRHtzH6jjxzjHsRQ043JG4jEH4x1rR1x1G53BzPDuQyEG7cbtrCYnKYMDE3xAUmvh9DWnZuhWByspKampqSE9PJzAwsFuNzZcGY7FY2JuXx86cPXyzO5f9DhURQ4YzOj2Vq0cMZmBMBEatxmd2ErxGILjdbt544w3FwSM1NdWX1oS0VRI4aQJOh5Oa8kq2rvqWYreDnTgJ9vfDr7Scmv15isOTSuUhOrSVFsNFfHcwFWtzPgTNJSXYwuWTA5g5uRjPseMU/CUAZ2UAETOjafbo8SsqImGoCuf0KjxqN9HJQ5RdA51BfnGc9ETJCySBkyTg9njYX9vIn7fvZff+vYS01VAZkky/9N7cMz6bAdHhGHxkJ0EKhJOcfPlxSaC9CIgtyZJjBezdk0eFRkVqZhojM9IJ/0cpaKfTxfLPVxDi18qHm/uz64iBQE09gwI3MzrDj15J+XgcmbQdmklYVT3+jiaCg+wEZoQRe/0YNCFGPHhQdafUbu0FX/YjCXQQAVG+fVt5Dc99t5Xa4wdoszupD00gOTaOhyePYGR8lLKL4AtNCgRfmCVpY7cm4HI6cbnc3zuX/eTuv0ep37B6h5PMsG30Csmlpc3N869upbQykbnzLmPO9HGE2O0YgtQYk0JR+em6NTM5OEnAmwm4PB62FZXx3LdbOFRXy6CUFK4bM5yxSbFo1b5zxCcFgjevMmmbJPBPAm48biseWxVut4W6Rg9vv/s5yz79HJ1Op9SoHzduHP7+shiTXDSSgDcQaGxt4/Ptu3j1ux1cMX0il40fiVGr9QbTfrUNUiD8alTyg5KAdxEwm8189913vPLKKzQ0NHD99dezcOFCRTDIJglIAl1LQOwiFJWW8fAjjzJoQH9u+u31Sil3X2pSIPjSbElbJYH/ICCStIhMbkuXLkV4UAuxIHYSukOSFjnZkoCvExD5ER5++GH27dvHI488Qt++fX1qSF4lEN566y2mTJlCWlqaT0GUxkoCXUlAJMgRmdwef/xxxY/h/fffl89QV06IvLck8G8EHn30UVatWsVjjz2mZFj0peY1AkFAE7+AvvzyS+bOnatkBJNNEpAEfh0Bkbp5586dLFq0iKysLN5++20SEmS2xF9HT35KEug4AlIgtCPb9957j7PPPlsm+2hHprKrnkFAHDdcdNFFil+CeIZee+01NBrfCKfqGTMkR9kTCQiBsHr1amUHYdSoUT6FwKt2EAQ5KRB8av1IY72MQF1dHQ888IDyQhLbmSK6ISUlxcuslOZIAj2DwPHjx/nNb36jCAPxLPqaA7EUCD1jncpR9jAColjMihUrCAkJQfj2iPBHuZvQwxaBHG6XE1izZo1yZH7vvfdy3333dbk9J2uAFAgnS0x+XhLwAQKNjY3KEcNLL73E+PHjufDCC5kxY4aMbvCBuZMmdh8C4rhP7OjdfvvtzJ492+cGJgWCz02ZNFgS+HUERJ4EEWIlHH+bm5t5/vnnmTVrlkym9OvwyU9JAqdNQFTZ/MMf/qCEHos8Jb7WpEDwtRmT9koCJ0FAFH1atmyZcv4ZHx/P7373O8U3ITY29iR6kR+VBCSBX0NA1Fdxejxo1Wola3pJSYkiDAYMGKA8g0o6dR9qUiD40GRJUyWBUyEgdhIOHz7M66+/rjgvTp06lYsvvpjeGfFoVTVK+efQ8L4Y/CJOpXvKysoQv5T279+PqMr6U61Pnz7KUYcMXz4lxPIiLyfgAUx2G7UmEzaXg0CdgaiAQNwOB0888QR5eXncfffdDB8+3MtH8mPzvE4g5OTkILJPDRkyxOfUlk/NvDS2xxE4duwYn3/+OQcOHAB3PVNGJqOqqSUiNYi0wSPIHHQRen0IP1MxiqamJk6cOIFIzHTw4EHl2EI04akt+ty7dy+DBw9G9RPpZBMTExk4cCDp6ekkJycruxhqtbrHzYEccPck0Gi1UNHajMvtRq/VYnM4CDIYiQsKZu3fV/LMM88wYcIEbr75ZkJDQ30GgtcJBPEL5OWXX2bx4sUyF4LPLCNpqC8R2LF1NZ//9UGshXWUH3CRlBZG0jAjI+bMw6UfiAuDIhJE4jLx5S9CJ0UTjo9FRUVKZIQQCyLvgmjifFVsnfr5+Sm/kH5KINTU1LBp0yZFWAhhcNVVVyl1I6RI8KWVI239KQI2l4vDdVVoUZEcFo7HA3WmNmrNbUT6B6JtNfHiCy8o6Zaffvpp5bjBV5oUCL4yU9JOSaCdCJTmb+CTPz3G0V2N2LUeHGWtGEOg/yI1a3JUnKhwKy+5sLAw+vXrR2trq3Jn8eWfmZmp/AIKDw//Z0x3RkYG2l9RpU4IjCNHjnDPPfcoAuOvf/2r8rL8KUHRTkOV3UgCHU5AHC3kVVfQKySMyIAgSpsbqDWbsDodBOuNDI5NYO3q1UotBuGHMHny5A63qb1uIAVCe5GU/UgCPkHAQ0Xxd+xY8Tq7v6mhodiMXqWm/8w4wvvV4fSfhkeVAiq14i+Qmpr6z1GJ1M1CGJxu+/bbb7njjjsUR8lnn30WITBkkwR8lYDN6WRPZSkRfoGkhIVhsttpsJipamshxGikX1QcmzZuROQmue222xg7dqzPDFUKBJ+ZKmmoJNA+BKyWOo7mvcLRrQfZ/10TmYMyiB/YSnzGMDL6XYzeePoi4H9ZKiIr/vKXv3DnnXcyb948ZSfB1zLMtc9MyF66AwHhoNhoMVPUWI9OrcZfr6fZZsWo0ZISGoFRo1F8EDZu3MiTTz5J7969fWbYUiD4zFRJQyWB9iEgQrGsllqOH/iIQzmfERjsR2rWLDIGXIJeH6pENXRkE/cXfg2iAuWDDz7Iddddp4gFedTQkdRl3x1JQKzpNoedE02NmBx2Ivz8SQwOxaDVsuKrr5QsinFxcbz44ouKo66vNK8UCG+++aZSbCYiIkK+NHxlJUk7T5mAOI/fvn07jhAX1r52HGoHUwMmEaOJRqVEU7dvE1FC4lf8lk2rWL3yA8VhMCVt2CmHOZ6KdeKFKsZ94403Ks6PIrpC7iKcCkl5jbcQEDsJdpcTh4hkQI2qzUph3n7ueeB+CuuquOmO27jgggt8KjrP6wSCmGwRty3SxF599dUybtpbVr+042cJOBwORcj+Gke9n+rEg4eV61Zy64o7ME2xEdIvlHtj7mRWwEyC1UHtTl6EEosUsDNnzmTPnj1KCtjIyMh2v88vdShKVL/66qvKccMbb7yhhDb/VBOCRqPWoLKrQBSn1P1Sz/LfT5eAEHAiikX8LZpY2waDiG6R7RcJiN2EE5Xkv/op9oIazNiJnjWajHNnoA/yR+VD4b1eKRBE+JTIIS+qYAUGBv7ifMgPSAJdRUCIg127dimhf8Lj/1S2yV24WNu0nv8re4qm441Yoqzoow3cF3MXC4LPQk375gsQX7jCbvGL/ZNPPlESJ0VHR5+S7afLfd26dVxzzTX88Y9/VH5d/VQTgqZvWBZ+OwyoktUwWv29UJCtQwiI96/NZuPjjz/+ZyirODefOHHiL95PrKlTFcq/2LkvfEBkUmxuI//FT2g6VE+YKgNncBstnlJ0g1Loc/6ZBEeE+cJIFBulQPCZqZKGehsB8SIVHvnil7Co2HYq4kCMyelxUuWs4b3WD9hYv5kaWw3+Bw1c1/s3LMo+D42q474Njx49SmFhoeJZLUROZ7cNGzYoWR1FMZubbrrpJ2//1dtfEbE3jAhXGCmxvTDM8ocsNQR0trXd935i17ahoUHJhCmOu8Tf8+fP/+d2uFgj4v//ryZyWojzdRHt8kMTkTDiqLinNLfZRtvGfVR8sA+rORiLx0ZGWBI2Rz2uuDZir5mBoVfcz+Ui8zpMUiB43ZRIg3yFQEtLi7LTtXTpUiVJ0Om2ZncL7zd/RFltGa0fNJEanKKc0XfkLzKxmyC2+RcsWKA4UXV227p1qxLJIASKcFr8r+YBzzoXdVtqeGvT21w28BL84wIIXhAGGe3vn9HZ4+/q+wlfFJHnori4mNzcXEXsCsF2Kju3QlSI+VQydf6jJSUlMWXKlB5TIEwIBNPGPGo/y6e2RUVDaz2DInvjVpkw+1eTcONsArN6dfW0/+r7S4Hwq1HJD0oCPyYgBMKf//xnrrjiCmJiYtoFjxuRpMgD/yhpoNF03O6BMLirBUJ1dbVSZVIcIyxfvvy/v0hcgA08q524jjlodbSxOySXEQtHEhrrOylr22VxtGMnwr9ARJJUVVVRWVlJVFQUQ4cOVY6dTie7pVi7P/gtCHNFsSJRqyMlJUW5R3f3Y/A4XNgLyqn6ciPFJa2E1IRQ5ipHG9rGkImjiJw/AU1Y+/sVtePS+FFXUiB0FFnZb7cnII4YxBa5aKKMsi+2rhYIgpk4phFHDMJRMTs7+6cximSOu13YIxyc8CtVvmhETQfZTo2ASHktslr26tWLvn37dqgz+KFDh6ioqCAoKEipx+Hv739qRvvIVR6nG9u+Asq+2sb+nXlYnBZ6TxxC9uKz0SZG+cgovjdTCgSfmi5prLcRENuqIhvgLbfc4m2m/Sp7amtrWbNmjRLR0BWRDD8IBFESV+zGTJs27VfZLT906gTEzpc4ThC7XllZWafe0UlcKdaZqCgqanaIoyxRvKujd8dOwrx2/6jH7qR04y5Wv/E3vsvdxdQrL2LJ7Uvb/T4d3aFXCgRxDiYUroiPnjRpUkczkP1LAqdMQKxV8etXFGHxxfb1118rmd3EFnBX5SEQRWxEwqRFixZx/vnn+yJGn7JZOBz+f3tnAh5FlbX/tzudHZKQAAkJgRD2gIAk7IiCEZDNDXBkdEB0FGcURWdUVBRFdERHPz9n/BB1EFFBB0QRQRbZQoCEfQ0QluwBQshCOltv/+ctxPHPENJJOt1V3ec+Dw88D9VV9/7urapT557zHsYcMHvFmY1bDwyK5dYGgyL5bHfnLYeS4mL88P1KRVb85mFDlVoMv5Uudyb7+l5LlQYCB8PF9Nlnn+HBBx+s79jkd0Kg0Qlo3YPwxRdfKNsjrvIecIJYIZJpjqzJMHPmzEafM0++AKtqsiw3i2RFRka6BEVhYaESm8DYBxb/4h93bTSG3nzzTcVL99BDDynaPlraYhEDwV1XpozLKQRoIHDvnJHaTPGqb6qjUzp7jYuowUCg+5nbNHx5zZkzRyniJM3xBPjVfujQIUUDY/DgwY6/QB3OSM8bPRmMTWC/EhMTlWwdrd0/9gw5OztbqeJI5dC///3vmoqdEQPBnhmWY4TAdQjQRb5kyRLMnTu3QRHgroCsBgOBRhallqlT//LLL2uqHK4r5qy+18zNzcW2bdsUGXu1uPZpHNAwpLLnoEGD3Lay508//aQ8H2gAS7nn+q7g3/xOthgcAFFO4RQC/DJYtWoVgoKCFHEZLbWvvvoKI0aMcLmYTXJyMl566SX84Q9/kG3FRlhA1DtYu3Yt+vfvr6Qbqqkxk4Zf2cyqYBwMvXFMtXQnbwIDQ1nqmfoS06dPV2J+tNBU7UHgV9ldd93lEBEaLUyG9FGbBGjM8gG3bt06pfCRlholdRua++6I8aanp+Pxxx9Hz5498be//U1znpjrMlDKGdgavUpmTX3gV3pqaqqilFlTvQtHzGFDzsF7iFsfmZmZSoxE3759QZGlhmgyNKQ/jfHb+fPnK9Lms2fPxk033dQYl3D4OVVrIHCkFPH4/vvvFSEaV0VYO5y4nNAtCXAvdfXq1ZozENQyGQzmev7555X9aMYjsDaEFtoVYaDrvcisFSborFbo/LwBL8fW1bCHEYMCWSGXBpgjFD/tuWZ9j+F2EwMYaXAz4p/pkO7SmOY5ZcoUZZ3zw1cLTdUGArXBuUfKevFiIGhhOXluH6kWx310PoSl1Z0AX7Q0DMjwnXfeQZ8+fep+Eif/gl+8DFBNSUlR/r7aSLBVmVCdfhaVu07CaqyCT2xL+A/oBH1wIKB3jkw0gwEZd+Dn54eEhARNaA/QSOD9RKObmRYMWqV+gtYbt1Luu+8+ZQ4++OAD1W31XIuvGAhaX3XSf1UQ4NfB22+/rXypSasfAZaeZiDX7bffrsQhqF1IhwbC0qVLFcOGHzJUdmRxIjabyYyqPWdQdSgLhrbNofP3gelYLvTNAhFwUxy8WgY7pWDPlQDACRMm1G9SXPgrGglUKqX6Yrdu3Rq1JokzhkkjePny5UqgIlP4qRqq9jgLMRCcsTLkGm5NgF88/Irky43BitLqR4AcWZeB+9AM6PptVcD6nbHxf8Uv9CceewybVq/GvLffxqjx4+Hl7Q1zTiGM6w/CEBkG/34dlRLA5ozzqEhKg/+Azgi4pVujbzeUlZVhxYoVGD9+vOq3Fq41U3yhck1s2LBB2W6gXoLaX6i1rTgKRVE1dNKkSYo3Qe2aCGIg1Daj8v9CoBYCFPrZvXu3IjbECGxp9SdAA4tBityjfeCBB9Qdi2CzwZKXj/0LP8M3i75Ak779MeapJxETHYkmFYBx02H4dmoF79hwVB3Ogun0OZiyCuHfpz2ajI0HDI1XiIvubMZvUSWTX99aD/bbunWrUsshLi5ONSma9V3lFExie+utt1wqUGZP/8VAsIeSHCMEaiDAr5yVK1cq6UuUrtX6F46rJ5pfWPQeMOWNWzZ33HGHapmaT52Bcfm3yD54FFtDWuBIixYIC2iCfp07IKFdLAKO5gPeXvDr0wEwmVGdno/qtBwEDOoK3/jYRo1DoAgR6y0whbU+pZtdvQ6uvj4NHsqC05PALQct32eMsWGsDben1B6EKQaC2u4E6Y/mCDAtq8YqhJobjes7zK9FytMy4n7RokXKl6PamvXCBRTNexfnjOVIGTwMB4oKkbZtK5qafNGr10B07hiBQR3aISi3FJZSI/Q6HawmC/y6RcMnLhq6gMtBd4wRcHTGBoW7SkpKMHDgQNXHcdR1XrmVx20Hbj8xDVKLhsLPP/+MadOmYeHChYouBRUk1drEQFDrzEi/hIAHE+AX1iuvvKLs01JbwpW1Iq41DQVr1+Him28j8+m/4EjTULTLz8L+zakoKPVCRNsOCGzqj743xSG+fWvgzHlYq8zwjgyFT6dWyMzNxvq1P6G6oghdwjogPv4mnCnJR6/+NZS6rsM6YOT/nj170K9fP4cbHnXoRqMdSk8Cx0f9DkqbayFO5WoYTOmlmuL999+vxCNQYK3GZrPhzL49KMrLRnDrtoju3BU+/v6NxvfqE6vaQKisrFTcZAwEcrV2uNNmRC4kBIQAmOJMVyzdsHyQsiKemlzl656fDdu/N+Disy/gQvsI3G6twJ5NR5BTWo1qgw3e+iaI698RQ0b2RiD1D2zArv17sWffXuxOTUWrAMAUa0NcbEfcWjYK2edKET2yPVp3b1je/5o1a5SXJss4u0Nq4LVuBRoJ1MihdDRd9FozErgtSY8j45UoLR4aGlrjHX9o715k/vANfPIycMTijfteehURMbFOe0Ko2kAgBZZ8XrZsmVIFS5oQEAKeQ4BFnFgil5H4jGCfN2+esv+sBpfs2tfeh3kJcCkkHGemRaLnDS0RZdVh54+pKC4wQudnRv/+sRh810jofxFHokdkwYIFeHj0KHS4pwMO9jyOcqMRMRdDMDivLboYpyL0pnDo2tYveHHXrl2g+5ols7VWVrg+q5reEsZatGrVSvEmaKXZayBYiotwfPFH2PXzOlSWlSEmOBDdbx2ByClPQBdwOZ22sZsYCI1NWM4vBIRAvQjwQUpVPdYQYJ0G6tczgHHixIn1Op9DfmQFirYX4eiCvchPSkYTtEbZDdEoHRcGY6wel45lwHwyA8YjO9Dz3tsxaeqUXy97/Ngx/LDwc7TtHoHUG/dh+0/7EXNrKEKiAtC10B93HZ2C8OBhMAzyA+rhRaYWA+ssDBkyRJNpjXWdnyuehMOHDyM8PFy1MtJXj8tqs+HeSZPQrk0bPP/cczV6ECwXC3Dii4+Rm5KMzIIL6B0eiuhhIxB692Tog0KcIt0tBkJdV6UcLwQagQCj9/mFTNf666+/rqSmSbtMgPLL33zzDT7//HPk5+crcQk0FKgO6Oz0PZvJhoINF5C7NA+rNy1DJ692aOLjDf/WJ1DejfUWrDhbbcSCpE146M9/xv1j7oKluAzeLZrBJywIRbuyUJyehTlVM2GMD0TL0CD0ONsZ/U/diOFGXUkAABiMSURBVKiSjghu1hlet/lB18J+pUUaUtT45wvT02rXcPvZaDSCRgIDFlnDQa0CW1YAedVASlElvtmSjPR1K7H89RfRLqIGWXGLBWu/X4FTPyxDu+pSfJWWgVkfLUSn+ARAXz8vU12fKWIg1JWYHC8EGoEAX3xMl6QG/eTJkxWXurT/EOCLgIFpY8eOBaP0R40apXgVXMHJZrHBVGjCxkmbkX0yC/8ufBvjO4bgzokT0GzC3dBFRaKsuhLZq5Jw9uM1MBSWIziuHTrNmgx/aziKUk9hgddkbCgzI9I/Gn0P9sBNXWPRvKI7WkXcCEOiD1AHA4H78UwBpOaBVooAOXptM7Nh586dSsBf9+7dHX16h5wv1wQsKLAiYud6tCvIxILW8Rif0B2/C/dFTRU6LNXVsJQboffSodpkhl9QCPROzHoQA8EhUy8nEQINI8AXIL+U+TeD8dSwz96wETXOrzMyMpSv5ffeew8333yzUviG4jnOrtViLrXg+wXfI75nPAyRNgSH+CCgSSD0gQGoqKpC+sqNOLp4JYpb+SA/xIyWZ6oQ3yQWNzzyILwy/LEt6Hmcab4J589WIDzID0UHIxB9YBpGjB6N0HHNAT/7+FHuef369WBAN40melU8tdGAZIos0x9pOKrJk1BsAbbkXoQ5NRktz2fC12pGlZcPTvYYiPbdu2FgkDcMNTmNbEo50MtNZ79nyRHrQPUGAutos0oeF/9100EcQUPOIQSEgOoJ8JnA0tp//etflT33GTNmYNy4cb/WQXDWAGxW2+U8/N88swvKLmJr0joUv/8jEoYOQ+vf34ayU3k4unMnKr7fjYiEbrhhwgPQHffGrqKVOOm9Btn7fBBj7o/omBj49m2KIXfYp8Z5pRDTxo0blbx6But5euN2Cw0mFnhi4CK1NJy9DXWtOcitBpIyz8Fn0yr4V16Czssbzbx0OBrbC1U9++LBFgb4Or/QZ63LRfUGAkdAMZFNmzYpD4FrNd4oLJKiRdGMWmdIDhACQuC/CNClfCV4kaJATIkcPXq00z0Jv+2YDTbsyjqEhd9+jLHJ3uh9zxgExnfAyQ++RUnKUVSeL8L5WD8M/+dstPSKgSmpEunH0lFWVYTTTVJxqOlO9Ol2J+4ccz/0utr3mBnFn5SUpHw4scCVtMsEaCRQZpoCW6xgGRwc7HI0Z03AsiILti5dhN97lSPcVIlNzWKQ2284bmnZFGOb6eDrXOeAXUw0YSDwi4F7bDVZgtx7evXVV8XDYNeUy0FCwD0IXNl35r3PbIdHHnkEjz76qMsK4FhtVmw+lYrP13+B+46Fo31Qa5QMjsSaE9tgPpGH1vvLkNbFC4889yI6tY+DrgrY8tNPWLzqXXiFl6CiyoQbe/fAyIGPoEN0PLy9at4u4JYCgzb5MmQKuBq+ktW0qvjReOLECSVNnrEZrhba4iZBWqUNS0/koUnFJRxJ3oaWg4aiR2wbTAjzhp8KvQecT00YCLUtPJbQHDBggOJWkhulNlry/0LAvQjQxf7iiy+CCnUs9DRy5Einbzdc+XLdkbUP83d8hTH6OPTcWYWikovIM5TBr6AC6U3KsGuwL166Ywa6hHdQJiG34ASWr30f27Ylwcdfh6ZBvkgc8CDG3fYQvL0uyzFfqxUXF+PDDz9URKRYZlratQmkp6eDfxiT4Ovr63JWybkX8EnqERzJO4dp427HxKimaKJS48BtDISTJ0/i0KFDSExMVKVuu9y8QkAINC4BupTff/99RWGPgYv33HOPS4yEjKIcLN77nTLYUYZuMCSdRmXWOVyM8sW6toXo1LkbJvS4Hc0DL6vncVvibGEGvlw5F0eO7seRPWcxccx0/OXpZ2sExnRGvvT+9a9/KQWtpNVMgB4Wep/pcaGBwAwHV4tIvfPBP/C//zcfm9f8iNi2bVU9fW7hQaiurlYeDlOnTkVYWJiqgUvnhIAQaBwCO3bsUPQRuDfPYk9UFHR2XJLFZkV+6Xl8c3A1Thdmo5VfKJiqdq66GL3adMPEHqMR5NcEut9ENpotJuSeS8eizz9F0uY9mDH9WSUou6ZGI+izzz5TUj5FL8P+tcQsIapNBgQEoE+fPvb/0MFHfvDBB1i8eDHo+WbGhZqbGAhqnh3pmxAQAnUiwCJPFJxi4N78+fOVB7Ar0t2yivOx5vgW5Jeeg0HvhdjQNrit02C0+MVzcK1Bcc/81KlTShXGmgLruLfOYkWsUUHvgSvGVqcJUdnB1BlZtWqVkvXhbOPxCorHHnsM9HozhkTtmSdiIKhsAUt3hIAQqD8BupQPHDiA3/3ud4pxsGTJEpcFqFVbTCirNsJL54VAnwDFUGhoY9DdW2+9pRSvY9aGq15yDR2Hq35fUVEBqpayzge9L5GRkU7vyvjx4xUDlgae2j3ebmEgMJo5MzMTR48eVdJ9JFDR6WteLigEVEXgH//4h7Ld8OSTT2Lu3LluIzxF7wHTO/kFfL0qgKqaDJV1hlvSaWlpSjVIGpEsAObMRgOBgaWzZs1Cs2bNnHnpOl/LLQyEK6Nm0M6UKVPEQKjzMpAfCAHXErh06RJSUlKUl17v3r0b3BlKV8+cORPbt29X0h+feOIJpfyxlr+4+WJjbAWLMd1yyy2aHkuDJ7iBJ6DqIr0xDPakm5+Bi87YruEWErcYWL6cSqDOVgCtKzYxEOpKTI4XAkKgTgTo9q/txcwiVdwb5sP6tttuq9P5azq4rKxMccdTlpmuZBZ86tWrl0PO7eyTUAuGHz8PPfSQksbpjJeZs8foiusxpoNKvTS+6H2m8mJtrba1fPXvqbhpqbYo98DXy78G42S4vdBW5RkMHIcYCLWtBvl/ISAE6k2AXgEKGfFr/nqFhPigpheBNShYi8IRjYbJuXPn8OmnnyrbDCNGjFAMBubE1/Uh74j+NOQcjMCn9+Dxxx9XShtLcxwBrrszZ85g3759SkEwFk1jhshv1wi3sfmHHi56cK7MAdct1xkbjbar15VS/TPlAvKTC2AI8MKr383CDTffgGf+8kydU/LtMbQdR+XymdzKQGA9dOY/22MFOhqknE8ICIH/JsDiSmvWrMHw4cMVbXxXNHonWLuBMQnMg2cVSKa5MS9eK40vB+bysxiT1owbLTDmi55eBHKmkXD12qBSJ2M/GN/GrSr+fUVjgWmnNGwZW/D/GbeVgHeuP/zLIpDdDDCUmuB1IhdDpvXHDaPjoDfYr5BE42TLli3K9pszpaPdykDYvXs3WN1MzTXBtXCzaKmPNivFZgA9dcx/0TK/YtHLg1RLM9m4feVDn4GL9GR07dpV+TfTCcVV37jcPfbsVuDCwSLs+/IENkZX4oA5G63z9OhX0AIdWoeh34zu8Gtes1Lm1dzoQWJgKgMbnVni3K0MBLqK6EV4+OGHVR/84bE3jgMHXnIe2L/RhsIcKwbd44UWbWgsWLB3717Fwo+Pj3fg1eRUWifA1DbGObBcNLcehg0bhgceeEAxGNQeLKZ19h7Xfxtw4XAR9i09hW2hRcivLET7kz5ofykYUd3C0PupOPg2u2wg8IOG6ZcUcKqpUR100KBBGDp0qMO24OyZE7cyEGhlMZOBBVvkhrdn+rV7THkJsHuNBeuXnkXOMRvGTYtAv9EGtGzHIi3HFQOhS5cu2h2g9LzRCJw+fRpvvPEGfv75Z3Tu3BnTp09XXLfcVxavU6Nh97gTV5yvRN6GfOw4lo1dTcsQaLThlvIwdE9si4hbwqH3ubzFwK0Npq/GxMSoTjjJrQwEWmEURrn77rsREhLicQvSUwZstQCn9wNfv2lEyt4N0JmDEd08AaMeCcDwqXoY7PfceQoyGedVBHJychRvAj8ouP3AZwazBFq3bi3bDrJaHEag6mI1Tiw9hbSkdBjLjbh52kC0GRIFQ6Dh12twW5ziXiw2xgwVNTW3MhAYaEKVLIpg3HnnnXKjq2mlObAvNBAqy4C9G0zY/O8SlBf5ImGkHvEj/RDd0Qv6/9x7DryqnModCXA7ilHrzE+ni5ceBeany/aUO862a8ZkLrdg43cbsfTfS/DES0/gxvgbXdORelzVrQwEjp/iFwsXLlTchowslea+BCwm4GgyUHrBhl6JOgSK08h9J7uRR0aN/h9++EERVmKUONX1GMTYo0ePRr6ynN4TCDAD4YUXXsDs2bMdpvPhDG5iIDiDslxDCAgB1RNgsBgrQTI2Ydu2bUrwGPeFGcRI5UKRNlb9FKq2g2IgqGRqxIOgkomQbggBjRLgVuX58+cVb8I///lPUMvhrrvuUlQM4+LiNDoq6bYrCbCy6LJly/Duu+9qyivllh4E1kqn9rpsMbjylpBrCwFtE2DQ86ZNm7BixQqlTgS3G+69916np5ppm6L0nmW8ubXAANiXX37ZqWmKDaXvdgYCb+rk5GRlMiTNraHLQ34vBDybwBUJ6MOHD+PDDz/E1q1blVLSTKV2pmCNZ8+CtkeflJSkGAjjxo1TqotqqbmdgcB9Q24zbN68WUldkiYEhIAQaCgBpqJRUvejjz7Cl19+qTzs+dBXe7neho5bft9wAhTmYoEmblFRnEtLze0MBMKnZvm3336LSZMmaWkupK9CQHMErLBB94vG9S9K15obQ106zI+PV155RakAyCJU1N/XUk2HuoxVjm04AX6wzps3T9mqmjNnjlIDREvNbQ0E7htOnDhRtBC0tBqlr5oiYIIVZ22V0NtsMFRbEWjWaWp/tb6wud3w1FNPKQp4ixcvRps2bUSBsb4w3fx3LBT23HPPwWw2KxVFWXZcS80tDQROxo4dO5Rymj179pSbV0srUvqqCQIW2FBkq8JX1Sex93wmglbsR9qG7fjpux/gpbe/Sp0mBntVJ/l8YUQ6q0K2a9cOixYt0tyDX4vctdhnyno/9thj6N+/v+J5ogT8dZvNBqupDBarDXrvAHh5uVbLxy0NBE4A63sz93Ty5MliIGjxzpI+q5rAcWsJFlw6iBMF+TBm5sOnRwwGV4fg6ahBCIBrH2rOAMfyu6+99ho++eQTxVjgC0CaELiaALNfWGjpj3/8Y61b3jZLJUwlZ5CX+r84W1SJVr2moE3nQdDpvf5TqtbJiN3aQGCgIvXVpQCLk1eVXM7tCRyzFOOppK+Qey4fLVq0QOt+PTDAEI4HfTvBD3yguX9jrNOMGTMUTyUDFq9Xjc/9acgIrybADJg1a9bgvffeU+JVBg8eXDMkmwXVF4+h6MQKnEhZArPFgk69RyO8zzMwBIYDOtfcU2IgyLoWAkKgzgQsViumz3oO1nv7o0X7aEz074gu+mAY4N7bC78FRS8Cc9ypjfD000/jvvvug4+PVAqr82Jy0x9QlZMCScx+ef3119GyZcvrGAhmlOdsQc6+pUhJ2Ym2LQ3o0OVGhCU8Dd+wbuJBcPQayc3NVeIQbr31VklFcjRcOZ8QYJlaWJFjNUKvA4J1vgiBzy/5DJ6F54477lAq8fFLkVHq4rH0rPmvabT79+//NXOB2wy1NZu1GqU5qTi5YRZaRschrNskBEQOdJlxwP66rQehvLwcx44dA/++rmuntlmT/xcCQkAIXIcAc9zpQRgwYIASsCgKrrJcSGDDhg1KgaZnnnlG8TLZ08pLzyHv6FpExXSCX/Me0BkC7PlZox3jtgYCiWVmZiI1NRUTJkxoNIByYiEgBDybQGlpKR5//HFFnO3kyZOyzeDZy+HX0dNwZOYCjcZevXppkooYCJqcNum0EBACaiFAlcV169Zh2rRp+Prrr5Uy0dI8m0BJSQneeecdUGZ55cqVCAoK0iQQtzYQsrKylCIrVDuTfUFNrk/ptBC4JgFzBZC1yQybDWg92ADfYNeCysnJUbYYGK0+depU13ZGrg5mEPALnn9TFtvPz8+pVE6dOoWZM2ciISEBzz77rFOv7ciLubWBQBWrffv2KUWboqKiHMlNziUEhICLCFjNQMEREza+UIyApr6ImxiADmMN0Hm7qEOAUh6aWQw0EhixLs21BJhdQvc+Y0Pi4+NrFyhyYHcppLV8+XLFm0SdjNDQUAee3bmncmsDgdbjkSNHwD1CCVR07sKSqwmBxiBA4+DcHgtSPynE9t1bEWKLRFynHugzIwCt+updlS6O4uJivPbqq8jKzMCyZcuB2hTzGgOOnPNXAnzuHzp0CMOHD3f6C5qB8TRO6EVgTSAtN7c2EDgxaWlpYMpjYmKiludJ+i4EhAAAmwUwnrchL8WETW/nwmStxI1jotHzoUAENNdB7yIRx9LiIvzfW3NQcDAZf331DYTF9YUhoKnMmYsIUKOChZIobey07WWLBTBbUHDxIuJ63KBUbqQXQctNDAQtz570XQh4IAGbFai8COybXwGrxYYeU/3QNEoPnYs0mmwWM4rTDyD5708hI/0EYmJj0WXUJLS/cxp0hvrte/DlRlGJK5UyPXCatTXkyirYjp+Bdf8JXGjRFInTH8VfZr2oSP1ruYmBoOXZk74LAU8lYAMsVYANgMHXlVoyNpxNXY/jX/0P9HET8fJbmzB8YGcMiDiIqL6D0G7MgzD4N7F7lsxWC3LLL+BwYYYiOnVDWDtEBITC21WuEbt77sEHFpag6rMVyDtwCAjwRVFWPtItVeg55xl06RuvaTBiIKhs+qpMlaioroCfjz98Db7Oc4+pjIN0RwhogQC9B0c/n4fzx3Pg3Wc2Xn/4ImIicjAi4SNExkWg631/QlBMV7uGUm0xIaP0LL5J34wzl85Br9ehbXBL3NlmELqGxrh9lUy7IKntIKsN1Yu+Q9aGrZibsgreejNyS02Y1e1mJEydBMOkUYCOpp42m9sbCBkZGWDJTaabqD0X1WK1YN3+1Vi/fw36dxqM0Ql3INAvUJsrS3otBDyBgMWCA18swncf++JgViLOl6xGqM9QtAjMxN1/SMeQaYloEhljF4l92Wn48tA6FBpLACsQFNYMVh8rLl0oxtzEPyEqqIVd55GDnEfAdqkcee9/ihUbv0fa2TMICwiGudKIoRFdMXDEWAT+6fdAoHNTLB05erc3EAgrOTkZRqNRiWhVa6PXYMfxbfj0p4+wYedaRLWKwrP3voTxA++Fwat++5hqHav0Swi4E4GCY6fw4/tHsWuLFw7kWBAV0h69emZj7J+jEJfYBXqDfZGTPx7eio92rkDT0BDojSbYfL1gDfBGWWUZ3rxlGuKax3hkrQtVr5XyKpxbvBxrFn+CrQVZaBUWCn+LFQNadcRN438Pn3tuA/y5B6bNJgaCSuYtrygP73z3BlIObMfR/UfhE+mFWxNG4MNHP0VwQIhsNahknqQbQuC/CNisKMo4jW9m/Q82bB6L+ARfTHisFO2Hj4G9kZM22LD5+G58tvsH+IUFITKkJfIKzqJMZ0KIfxM82fse2M4b0bx5c4SFhckkqIiAOe00Vj/6LLKq8mE0VaBT6064fcgI+N4zArp2kSrqad274hEGQnZ2Nqqrq9G+ffu6E3LSL4yVZci6kIklWz/Hl2sW49Z+iXh4xJ/QLbo7AnwDxUBw0jzIZYRAfQhUVVZh+6ZdMOYVole//gjv2Bzevl51OtXFS8XYnXsM+8pOI7e8EPn5Z9EjpjOGxcSjV0gs9qTsQtu2bZU/0tRDwGI247sPP0YXvQ8MZUa0iG6DZkMHQRep/S0hjzAQ1LOUau9JVkEGktK2YHDXIYgOawO9vm4PmdqvIEcIASGgVgImqxlHijKRVpQBG3S4sXkHtGsaAT8vH7V2Wfp1hYDJDFwyAk2bAN7u8dwWA0GWtxAQAkJARQSsNiuM5kpFAyHQ21/iDlQ0N57WFTEQPG3GZbxCQAgIASEgBOwgIAaCHZDkECEgBISAEBACnkZADARPm3EZrxAQAkJACAgBOwiIgWAHJDlECAgBISAEhICnERADwdNmXMYrBISAEBACQsAOAmIg2AFJDhECQkAICAEh4GkExEDwtBmX8QoBISAEhIAQsIOAGAh2QJJDhIAQEAJCQAh4GgExEDxtxmW8QkAICAEhIATsICAGgh2Q5BAhIASEgBAQAp5GQAwET5txGa8QEAJCQAgIATsIiIFgByQ5RAgIASEgBISApxEQA8HTZlzGKwSEgBAQAkLADgJiINgBSQ4RAkJACAgBIeBpBMRA8LQZl/EKASEgBISAELCDgBgIdkCSQ4SAEBACQkAIeBoBMRA8bcZlvEJACAgBISAE7CAgBoIdkOQQISAEhIAQEAKeRkAMBE+bcRmvEBACQkAICAE7CIiBYAckOUQICAEhIASEgKcREAPB02ZcxisEhIAQEAJCwA4CYiDYAUkOEQJCQAgIASHgaQTEQPC0GZfxCgEhIASEgBCwg4AYCHZAkkOEgBAQAkJACHgaATEQPG3GZbxCQAgIASEgBOwgIAaCHZDkECEgBISAEBACnkbg/wFamyTfoMO6NwAAAABJRU5ErkJggg==;" vertex="1" parent="1">
                    <mxGeometry x="40" y="30" width="484.26" height="420" as="geometry"/>
                </mxCell>
                <mxCell id="4" value="" style="shape=image;imageAspect=0;aspect=fixed;verticalLabelPosition=bottom;verticalAlign=top;image=data:image/png,iVBORw0KGgoAAAANSUhEUgAAAGQAAABkCAQAAADa613fAAABJGlDQ1BJQ0MgcHJvZmlsZQAAKJGdkL1Kw1AYhp9E8afopDiIQgbXgouZXPzB0KFQ0whWpzRpsZjEkKQU78A70YvpIAjegTeg4Ox7ooODWTzw8T58fN/7nnPAdpIoLRf3Ic2qwvOPBpeDK2f5jVVsWuzihlGZd/tnAY3n8xXL6EvbeDXP/XmW4lEZSeeqLMqLCqxDsTurcsMqNm8D/0T8IHbiNIvFT+K9OI0Nm10/TabRj6e5zdoou+ibvmoHjw5dejgMmTIhoaItzdQ5xeVA6lEQck9JJE0YqTfTTMWNqJSTx7EoEOk2DXnbdV5PKUN5TORlEu5I5WnyMP/7vfZxXm9aW/M8LMK6taCyx2N4f4T1AWw8Q+u6IWvl99saZtx65p9v/AIR6lB6XyMg3gAAAAJiS0dEAACqjSMyAAAACXBIWXMAAAsTAAALEwEAmpwYAAAAB3RJTUUH5QkCCiASRu5aVwAAAoZJREFUeNrtXEmSxCAMw678/8uaQ6r3LCzyQiac5tBNIyTbwiQjQDkdUkoppeKDpWYuzjzfQ1uWwBggzTMAJPfQul1kDhtOtE3fkzPyDkXmBgIiGJutkDX91iVFMY0dR2nha+mZZLasy0EDmJxBrz0SeTEjc0prKz6yQFFJFbIhFiXXBug1+PhvpvEG4mhR1B+GTUnVCBgWZ5KwGGFDUT+tr/ZfjKAsfsENU0uz2IsDhzNg1hi5aDuIB+uu7Nk40filc6AQgEgKViiMCLFx1zuPAOyfreuQYcdMIoYR0PYURYbK4zKu79/lt3XKOD2AQWkd8YHTzzF/mp5+Ubk8kM2KSR2p9bkgZrtwr5W8srecPTi8LCXB2KogrVfiKYC8bAo+IEgGRtq1j6GkbBzs0hH8fd9PI60jjmqiJTWQLQuEWYHsezr4AhH6AyDbCdqFEeZjUntuWW0X//6X7bXp3Q7qqR+WnDhnLWbof+Yv+gmxbLglNJwcezk3jhE8TQeoAhOPGJGKCiA0USEia4ES+N8ihU2MnJs82S1qPTCMpFXjVTm8IENB7Ieyv1FqvdDzA9S09yO/YFqzGHyAoDO6JA8jMgh6BEr4CZH1GEESG49cQPp3V6pi6OiINsnBSmaR1rjAFvZSZOD4VHu1ioxZ630DRiym2shDXGWViJFtKNIANX0Te0JGxtLD5EBg73693ytRD9onB+L71qJJp3GPDczHCNzFZiYtEJ/lCq8jcAx9Nxtv/bqf43kE12CkXEVaFwRy//OKKwORGCC9TeuEjPDuER/zSZS0rKp9yPsjTCgPTia7ekuXtZhXbysnoVdvTFZC6wgLCorEPxt/mcoO0iwJLAqnD/YHAaCm4Aw7qJwAAAAASUVORK5CYII=;" vertex="1" parent="1">
                    <mxGeometry x="620" y="80" width="100" height="100" as="geometry"/>
                </mxCell>
                <mxCell id="5" value="" style="shape=image;imageAspect=0;aspect=fixed;verticalLabelPosition=bottom;verticalAlign=top;image=data:image/png,iVBORw0KGgoAAAANSUhEUgAAAGQAAABkCAQAAADa613fAAABJGlDQ1BJQ0MgcHJvZmlsZQAAKJGdkL1Kw1AYhp9E8afopDiIQgbXgouZXPzB0KFQ0whWpzRpsZjEkKQU78A70YvpIAjegTeg4Ox7ooODWTzw8T58fN/7nnPAdpIoLRf3Ic2qwvOPBpeDK2f5jVVsWuzihlGZd/tnAY3n8xXL6EvbeDXP/XmW4lEZSeeqLMqLCqxDsTurcsMqNm8D/0T8IHbiNIvFT+K9OI0Nm10/TabRj6e5zdoou+ibvmoHjw5dejgMmTIhoaItzdQ5xeVA6lEQck9JJE0YqTfTTMWNqJSTx7EoEOk2DXnbdV5PKUN5TORlEu5I5WnyMP/7vfZxXm9aW/M8LMK6taCyx2N4f4T1AWw8Q+u6IWvl99saZtx65p9v/AIR6lB6XyMg3gAAAAJiS0dEAACqjSMyAAAACXBIWXMAAAsTAAALEwEAmpwYAAAAB3RJTUUH5QkCCiAZ0TyD3wAAA2NJREFUeNrtXNt2wyAMQz75/1/WHtptbRLAGHFZz3jr0pLIsmxjyECm4EBi4/dTCt/sbZZ0M5PFp+TPpNeb4RY2b69EYFzHkeTjwdS7/b/ZYxczJSN0AWHBvfKPHANTYxKkwv7lz/dwW8AgayyBRmpKqV1n9bdnxfEEAUpGzhMy8Fu6oxRuYFAndro9Oacluu/Ai9aewUXBiCrS5figwx8sbTHYkV+YuAIIqs7jv/L6nU0Y6R//QEY7IBrD+YKo5a2a28oYg6MixRJW2BTLnozkidSsIlpzQ4C/d9fCJU9zmIMlqYtdNDKybopzU+elIHY4bxEH3mTxWqFSilrlCuj68Ag7ogdMefajd0GjilCpmjlYhHv4iuc54bamnFLJL0yIkALPW//+ypE2Ha3Ni22BeMBImw/rCpX3dt+fKONzHcpXkDKxY3iMy8n/8fdDc4OVinn8XcjIrLyT6VsqF1bzwAxe6q5skdl40v+7KJ8MBJ8BpOS69hkK+VOMlA0lBLJ2f+LYV9JsctxjRxAM1AnHvjp4LRLrgeQY7yJeJd1XtvD210Z149EYGPKPG2yZasJhfY1CcdVsa2Ccv6M4NRSipA0Gi1c0FcER834fDN4CwpBlsrVOhue+djzTc0hFYG12gesUQu3xOKB5YS3y9HszO693qZZhXZxt699S0wGz+skeNOgiWi1D4Vp1KO0Wnl/4W091pHw8KICsWxJRzQjfFLEGCjSuRTnZc93L7m2DiT0R6sXORa0EhXvZqCgye9jIJDWTExtfBS1hROFeWMKJja6BZkExXTmnPsAhca01SunxBRtBNBawYuOroHiWhwZI+5SUQIk5mM1dWUe0AgUjbe6F7FJ5fCFp/imj6ZFdb4d4TTH45MPv+4fonKsGxtWN9zZuru05dJ7rhkNDQSCpuI+Rh3H3WZlNQHqPD9fAnIGgaTunF475fbYcFCG2cOnuYY1EEmNpK60nP+V2X5q33uACoegki/NIG8l0OQIHqKRrM7Tn4dT/n6Bjn332KwDlN+EWvqvbl1WoY2RdXQwPIzOPvELfjdcU3yuH3YdXTBPwsjyy65getTAojB+zH52SInIaEMgtPgwIilGdTYLnSiC/sY2Ljy4LXGunvZQNwq8mm2yRR6g5i/IZULbJ7L1QvgDbFT+jfHsSPAAAAABJRU5ErkJggg==;" vertex="1" parent="1">
                    <mxGeometry x="620" y="190" width="100" height="100" as="geometry"/>
                </mxCell>
                <mxCell id="6" value="" style="shape=image;imageAspect=0;aspect=fixed;verticalLabelPosition=bottom;verticalAlign=top;image=data:image/png,iVBORw0KGgoAAAANSUhEUgAAAGQAAABkCAQAAADa613fAAABJGlDQ1BJQ0MgcHJvZmlsZQAAKJGdkL1Kw1AYhp9E8afopDiIQgbXgouZXPzB0KFQ0whWpzRpsZjEkKQU78A70YvpIAjegTeg4Ox7ooODWTzw8T58fN/7nnPAdpIoLRf3Ic2qwvOPBpeDK2f5jVVsWuzihlGZd/tnAY3n8xXL6EvbeDXP/XmW4lEZSeeqLMqLCqxDsTurcsMqNm8D/0T8IHbiNIvFT+K9OI0Nm10/TabRj6e5zdoou+ibvmoHjw5dejgMmTIhoaItzdQ5xeVA6lEQck9JJE0YqTfTTMWNqJSTx7EoEOk2DXnbdV5PKUN5TORlEu5I5WnyMP/7vfZxXm9aW/M8LMK6taCyx2N4f4T1AWw8Q+u6IWvl99saZtx65p9v/AIR6lB6XyMg3gAAAAJiS0dEAACqjSMyAAAACXBIWXMAAAsTAAALEwEAmpwYAAAAB3RJTUUH5QkCCiAl/lP/WAAAAslJREFUeNrtXNmSgzAMizL5/1/Wvu1QKCF2fCRMeersUIoi2ZZzLMgivlBKKUXxxY8nzHz/erWScvF/OKwAJQE5ArABlAjkDpAOUpvROV0A6WJwkhEYqrxMMVK1L3/8hHx9aoCseVU9H89/jbzMspZl6GvyF2SVHadyxum0OcIuPYHMjqBMus/PrhY/cqwAMBMVRXFolLVoEvhnZs9gesMkkNazJ8JUUesL9Em+1Q6GFS9Uyde4IOqhPA8ULWOEA3fQrUwy2qLwYM1hOlC8vaPZ8hHR1k4FOyZ/zt+LOXaIDLWT7jaeawHRjy4G7oBBi5beWGEXaUUJrI2/CibaJwyCoz8QPRdwsZgT0tIGfEzeajkRAnOoiZPYGzIymx64MxAKbWeVPxwJoPj4q3WW9jgw/d6mahW8Gi+QriEi1ePex0udCcIMsd3xAtIqSlgyr6Ydl9zQd7HxXAJQtdHtKxgpb5HWC4Hgx8iLgSAHiHbSekFG7NYRnyYt3KWVW+1NY8QWioyTZZbeZhOAedayXHrjZdoIsenXcxURsXXECsr1xe+guBVEP0fMiHV2eygc3C3kalHoEvI/05hv60c4+TESG/ROc78r9ot1FxiM2QqY3703bxDcVVq4ccLe4mr7c2HOiD+MHifNR1KbFkSEwbjnpO3PhREjcMpRUk6qHYxXmMZIGI6tbjQb4a3uy/qRbU2jNmEscFZXf+INl8/qJ5E546k9FOYeI5i4mwbFdJoReVHsuWS9vMKXp/tmXz83aRLs/Nikz5R+xSj9Ho+6XuUhObRK5cSFcWPFoQMUHHgao2ME/6c4R16AbmbfoI6MbQ6kYKTD/+dDL7SjHXHzANHPb1wHCEJGXAa5aQpclGwkUJqfsbafYBACwRKbLaXvUqNhjI12f8MBnhhBKcuw8d2/Dc39riSpM3eCVd3VYEiTTc0daQ2U727tD4lg0uKoObTRAAAAAElFTkSuQmCC;" vertex="1" parent="1">
                    <mxGeometry x="620" y="300" width="100" height="100" as="geometry"/>
                </mxCell>
                <mxCell id="7" value="" style="shape=image;imageAspect=0;aspect=fixed;verticalLabelPosition=bottom;verticalAlign=top;image=data:image/png,iVBORw0KGgoAAAANSUhEUgAAAGQAAABkCAQAAADa613fAAABJGlDQ1BJQ0MgcHJvZmlsZQAAKJGdkL1Kw1AYhp9E8afopDiIQgbXgouZXPzB0KFQ0whWpzRpsZjEkKQU78A70YvpIAjegTeg4Ox7ooODWTzw8T58fN/7nnPAdpIoLRf3Ic2qwvOPBpeDK2f5jVVsWuzihlGZd/tnAY3n8xXL6EvbeDXP/XmW4lEZSeeqLMqLCqxDsTurcsMqNm8D/0T8IHbiNIvFT+K9OI0Nm10/TabRj6e5zdoou+ibvmoHjw5dejgMmTIhoaItzdQ5xeVA6lEQck9JJE0YqTfTTMWNqJSTx7EoEOk2DXnbdV5PKUN5TORlEu5I5WnyMP/7vfZxXm9aW/M8LMK6taCyx2N4f4T1AWw8Q+u6IWvl99saZtx65p9v/AIR6lB6XyMg3gAAAAJiS0dEAACqjSMyAAAACXBIWXMAAAsTAAALEwEAmpwYAAAAB3RJTUUH5QkCCiArGevSXwAAAhxJREFUeNrtm9tywyAMRFmG///l7Uvjuk1sg7itKLwkmclMOKwkFhGDDHID368lU4thkSEJwnoQBBzC6oRYzkg4VuD8ju5CC+SLnL/Wgs4SPlljcif7fwNhGxAK1a4dWkpVi1sRsV1kkRxx737RLtn97SRxDT0EQawb8eoWxdNpXRCkxt9Fne0QLc/sXlsPQiCowpABqcUQAanH+AhChxgCirQ6UkcVDPoGaRfOUT3Jc3vRu0E3KqyKer+69Qrekr2+CETlRC8Zqc2EOF0V2G91UfHDrfUwKYLqSbbHMICgMgt6XVekVgi8/A46mRIjCLImwsx15yhFEP7e8pZNg7d6cERo/ZRTfFjf8imMOqalax183SOmq2B6T2Dqg+Bmmj4wDq/lHSOE6PMvNEb36wE0rqHHgyJwo8dKzQeuAhI2yAaZBYKtiAwI1wktugmuzr1fDFM39Ud4febcZLcFV35baHjVQvb3ru+YoBFaT8GB26rXu2BkNbGfulo5vaveh+bMbnzpenL46SblTgxmgDGj4H4E1QA9NUmWcIGgjTFtiHWT77M1DnW/PdWbYuPhH4TdUIYrwpOVcWTj60x+iRvAjKenn2/oUVwmMOcxcJhDUgzEmu7UA7HjUBHEikg/IKUw0iBnZ/Z0eJMHudeIc71WjS+gkmnsoZBDkM+qOFXk3czsGysdTZZRBN5BuJoiG0QzS7YiG6SDz2II4Qs9KorJxU0U0AAAAABJRU5ErkJggg==;" vertex="1" parent="1">
                    <mxGeometry x="730" y="190" width="100" height="100" as="geometry"/>
                </mxCell>
                <mxCell id="8" value="" style="shape=image;imageAspect=0;aspect=fixed;verticalLabelPosition=bottom;verticalAlign=top;image=data:image/png,iVBORw0KGgoAAAANSUhEUgAAAGQAAABkCAQAAADa613fAAABJGlDQ1BJQ0MgcHJvZmlsZQAAKJGdkL1Kw1AYhp9E8afopDiIQgbXgouZXPzB0KFQ0whWpzRpsZjEkKQU78A70YvpIAjegTeg4Ox7ooODWTzw8T58fN/7nnPAdpIoLRf3Ic2qwvOPBpeDK2f5jVVsWuzihlGZd/tnAY3n8xXL6EvbeDXP/XmW4lEZSeeqLMqLCqxDsTurcsMqNm8D/0T8IHbiNIvFT+K9OI0Nm10/TabRj6e5zdoou+ibvmoHjw5dejgMmTIhoaItzdQ5xeVA6lEQck9JJE0YqTfTTMWNqJSTx7EoEOk2DXnbdV5PKUN5TORlEu5I5WnyMP/7vfZxXm9aW/M8LMK6taCyx2N4f4T1AWw8Q+u6IWvl99saZtx65p9v/AIR6lB6XyMg3gAAAAJiS0dEAACqjSMyAAAACXBIWXMAAAsTAAALEwEAmpwYAAAAB3RJTUUH5QkCCiA56lKjFwAAAqlJREFUeNrtnNFyxCAIRb2O///Ltw9tp5tEjQhE02H70plujEe4gMQUZPoXn5xSgARIgARIgARIgARIgARIgARIgARIgARIgARIgARIgATIS0Hw86P/wPXKMjYEFyGM3z17TuBzFCYajTdlEb09oLanGsRm/Xj43Q+rpEc/VNuodXXxdSwfmMUWgQlM6wq0nurKAy+6t0N1QjCzS7Fe67on177BH/nzFKYXgWBAlhiUrUY92V8XuPF5HJzsO3HKi6Jsaw9eVrPvMPhAOY8ig1GKvS1wVIQtDccS1WQre/C0ghSOwyoin3AtXNa0J+seGrt/cwbBRa69KehC60NRCxOr+WkDPAOCAbcaKSjwoQSaTV9pkXu3aluFTg6WR9ZSkkfu9v9eNTXaRwEhwuIwLl1CAHpnGiV+TIHW+KRrWd+Q5ptokdj9UB6PWtrSYUz6FqNRtgekYEfIIc3ZWL1QEEKpnEY961g0IpBKb93opp8zki4QYzz86nqNFFQFnIC4zSM+1Wut/J8Dgrz5QLdinJ0+TA8Kksw+vwWW2MQmTWL2tQt9B7cXuOVWLRqX0LsaK71GinCotYjWNjjELjaj3ej+ExZv9Mx1cHGwrXYa2SbyYPkIJiBz63luXuuKyKXP2c8oGpiyAgDdEnQueJSU1toEF+ekOM9wFQgv4fess/H23e9YZbU+xr/XLo643rXaNpGiF8upzO4pLA53FA9Hma3BNPkdfi8dywp+7fag+MtZbp+ZTIJ9XgPX6Wyjo4DcQezrgfJ+CHg/iKYNselxWbwdZF7weVep4/2uNYcSZ+N3s8mmFpGjDJ6NtyokZgIxdSBYMu25zVbjidVqBMke5W+uB5B9EO5RznMtWOj/ptvr3f+/FhpdAb4tIY4G4ldm9lpIzm/TQiuzfAEwMOi6+J6WzwAAAABJRU5ErkJggg==;" vertex="1" parent="1">
                    <mxGeometry x="730" y="80" width="100" height="100" as="geometry"/>
                </mxCell>
                <mxCell id="9" value="" style="shape=image;imageAspect=0;aspect=fixed;verticalLabelPosition=bottom;verticalAlign=top;image=data:image/png,iVBORw0KGgoAAAANSUhEUgAAAGQAAABkCAQAAADa613fAAABJGlDQ1BJQ0MgcHJvZmlsZQAAKJGdkL1Kw1AYhp9E8afopDiIQgbXgouZXPzB0KFQ0whWpzRpsZjEkKQU78A70YvpIAjegTeg4Ox7ooODWTzw8T58fN/7nnPAdpIoLRf3Ic2qwvOPBpeDK2f5jVVsWuzihlGZd/tnAY3n8xXL6EvbeDXP/XmW4lEZSeeqLMqLCqxDsTurcsMqNm8D/0T8IHbiNIvFT+K9OI0Nm10/TabRj6e5zdoou+ibvmoHjw5dejgMmTIhoaItzdQ5xeVA6lEQck9JJE0YqTfTTMWNqJSTx7EoEOk2DXnbdV5PKUN5TORlEu5I5WnyMP/7vfZxXm9aW/M8LMK6taCyx2N4f4T1AWw8Q+u6IWvl99saZtx65p9v/AIR6lB6XyMg3gAAAAJiS0dEAACqjSMyAAAACXBIWXMAAAsTAAALEwEAmpwYAAAAB3RJTUUH5QkCCiEF3Cbu0QAAA7NJREFUeNrVXNt25CAMQz78/y9rX7ZtJuFiG5swPLVnOgHZki9ACrJ0By4/8/YJu7/NBh5Pixgy+pAdUKVwAHI24kFMgZTCy7QIm5QFgU/7vzpSR4anPbFoW4T6RqxkiPXLZiB3iuFAiolPpAi36EYgGdJn2JMEjqk/oazTIwKK2AnC5lK8cBgERTxc/xT+Kt1ioIgvEPLDLwxQSpDYPYGQDWB4TfRyXYoVzOfiGSbc5fDLxRTF8t6QFvvXAio2fUeREKmW/51OPMcjEXXQGzqp80jCwyGoShRuKw25SEvhtLwYk4yHeKZeBcshybit21vSCKdgcnY/fryHxbhX9ZbXiN+jKDZJyRUg2pqIxsV5YFnJKhlcj3kGVoB4priXjgxSji0l13Lw0BIZ5wL5W74mWvJ0j1hKJVkPn/Et1ZNO81JJyteMsfir3VrZXQdcpZLY4jfSyYWpsNt+qV5FRPkRN0NQKX7ONdL3CcLSXevZMHj16ReJcvrqoY+nEYMdCJRVmFVfWOoTr36pvT9gQpxqG4NLfvk9q2mfIcJVTo8go7PsKBPVcfVpn6gHnAnKmoRfGOrOt7uWAZBr3flV5ctVI+uyxmtGkJx0t39f69cjCIsfeTp4sdVFushT+hGoNIKTPXKvYTFsBzJ6miAgbFTPHHoDAfGRT2rFJz90a9ZViqGURsmf0rNT0U16oWBErZNu+fibBN7L9sgpOV2StbbuBQrJaV6p2qzw9yDJecSS9uh4Igffk/d4HcuERCBUkgenA9HTC6cD2Vn2JwOhWieIAZJ3v0EfvbB0K0nepw5DSCb3mvWdrYN2V3OYRzRHDvdkZ6fZYWeIn7zQ7kXi6pG3r8X8zM9BA93/Jk881W1RcdRz8hyxt+ZnY5ft6Ru0xH4alDYcdCKezB61Gwo6Ma31Is5HYLifj2SI3nYSMjs4bWcg0Volu1T5tP98D0aREBkMBkF6GRtERlbBq2WLBgr6Ghnbk25/+K4ZULEq6kqUM8+tnu+bJBeNO6iJfCCYxqG4OCg7YOzoYyQHAhqlBFJNVjP1wAcU65vv+m/ULBnvjXbwXQXcAyG11YUTABwwLO8mmjpE/395gPHO47X+1ca+aofhvS8EUwWsm+0vFko2jPwGwQBkBQbU1m3ZWZ99jP9h4NwhuTC8jbNdh6IlVow38gqV7Qc9fOtSzYo/InZknvVWO7OkbJmOk5jnesIzGd/jWo1efEZ00wCv+6by+4SKZ0iUhL8oj5wau/gmkFhjsJTyD8GQU+2oCzHBAAAAAElFTkSuQmCC;" vertex="1" parent="1">
                    <mxGeometry x="730" y="300" width="100" height="100" as="geometry"/>
                </mxCell>
                <mxCell id="10" value="" style="shape=image;imageAspect=0;aspect=fixed;verticalLabelPosition=bottom;verticalAlign=top;image=data:image/png,iVBORw0KGgoAAAANSUhEUgAAAN0AAAFJCAYAAAAfRCj7AAAgAElEQVR4Xu3dCdxXw/4H8G8uJXt0i0KlRVmia7+h7rUlWUulFJVEska0CQmPJamQZCtLES4ucZX92tcbSbJkvZKUCIn+r8/87zyv85zOMnPOzJmZ88y8Xv+X++85y5yZ8/7NnFlrHHHEEWvatm1LPriVApMnT6ZtttmGDj30ULciXs1j+/nnn1ONioqKNUOGDKnmSeHe4//lL38h/FhOmDDBvchX4xj/+9//9uhczX+Pzs2c8+jczDcWa4/Ozczz6NzMN4/O4Xzz6BzOPF/SuZl5Hp2b+eZLOofzzaNzOPN8Sedm5nl0buabL+kczjePzuHM8yWdm5nn0bmZb76kczjfPDqHM8+XdG5mnkfnZr75ks7hfCs1ur59+9KsWbPotttuow4dOjicTdFR9yWdm1laWnQA98gjj7BcWWeddeiOO+4oHTyPzqOzJgWC4HikygjPo7PmlZOKSOlKOg4OLySqlJdddhndddddhH//7bffSlXieXRS77rQwZ06daI33ngj9dj999+fZsyYkXpc1AGlQhcE9+CDD9K0adNoxIgRtHDhQnr//fepS5cupYLn0WV65xNP+vDDD+m+++6LPGbRokX0wAMPsL+1a9eOZs6cmSkCpUEXBrfBBhvQTTfdVIlu0003pZdffpmOPfZYWrVqVSlKPI8u0zuf6SSA69y5M61Zs4ZWr15NzZs3r97osGzB8OHD2fwylHAAhxBGh38rEzyPLpMf6ZOC4FDSDRw4kGrXrl290b3yyis0e/ZsOvvssyvBxaHj8ObMmUN77LEHHXzwwdKZYMsJHp3+nAiDa9SoER122GEeXVzSR5V0+rOpuDt4dHrTOgoc7ujRJaS7R6f3pSzz1Tk4POP9999PKOF48Og8Or8amGL9SeB8SZeS2LpKOnxIP/zww6lZ3bNnT6qoqEg9LusBZa5eXnzxxfT000+z5vs///nPWZNI+rw0cB6dIXRjx46ln376KfLu7777Lj311FPsb71796ZrrrlGOuNFTygrOoC7/vrrWfP8DjvswFoJi4AnAs6jM4Qu7rZz586lo48+mpYvX+7Rif5yhI4LguN/KgKeKDjECSObENZbb71MT1l453izZs3ol19+SY3sKaecwjq28wRd1cuoOAXBYcXl0aNHs2FovqQTz0EObrvttqMffviB9bs2bNiQbr31Vq0lngw48aeJP7JwdFtvvTX9+uuvLEb4Nlp33XUjY3fuueeyvpA8oSh0YXDdunWjnXfemQ455BCPTjADg+DQWnj88cezfRpuv/12Gjp0qDZ4RYNDchhFxweNxsETzK/Yw4pAFwWuRo0atNNOO3l0ghkYBofS7W9/+xtDN3XqVPrjjz+0wDMBzhi6fv36ERocnnvuOdIJTze6OHBIWI9OTFwUOJwZRIf///fff6dhw4YpK/FMgTOGbsCAAeyXC9UwwMOI7enTp8dWNcWyb+2jdKJLAufRiecY8h6fG6hSooTjIYwuDA/D+Fq3bi1+o8CRJsEZRTdy5Eg2Wrt79+707LPPaoGnC10aOI9O3ALAoTpes2bNKidFoePwMEukVq1abEUA2RAEh66Ixo0by14i9/FGvulQ0gEdgk54OtCJgPPocr+Xa1Uv81+RyAZwxks6npC64KlGJwoOz4WuAszxq1Onjor3JfIaZe0cj/qmy5uItoCzBl1UiXfPPfdk7nzkGaQSnQy4vC+I6PkenVhK2QTOKnQ64KlCB3DHHHMMLVu2jA0uRgMQvkNMB48uPQdsA2cEHQax7r333rEd3xhic9xxx1U2ruQp8VSgsxUcMs+jS0b36aefsnVxEEw1mkTFsPCGlPTfpv8f26YCXl50NoOzGR0WgkJtYMmSJanZ/cQTT1DLli3XOi6u9TL1gv87wFZwRko60URTAS8POtvB2YwO054wAAKhadOmiYv8nnrqqVS/fn2l6AAOC1BhloJNJRx/SCtLOh65ILz27dvT3XffLdW4khWdC+BcQIc1aN566y266qqr2FhKmZC1pLMdnNUlXRBejx496JlnniFZeFnQuQLOBXT4fp8yZQpblFUWXhZ0LoBzAh0iiRIvCzxZdC6BcwHd888/T5jKdd5557FhfjLwZNG5As4ZdFnhyaBzDZwr6NBIgsEPsvBk0HFwSBMs72BiaJdM1dnqb7rwg4RLPOxREB6zFzxHFJ2L4FxCh7jKwhNF5xo4p0q6uG+8JHgi6FwF5xo6WXgi6FwE5yQ6RBqjzLHSFm9ciYOXhs5lcC6ik4GXhs5VcM6iE4WXhM51cK6iE4WXhM5lcIWhQ18N9hvo378//elPf5L55kw8Nq3Ei0OXFxx2df3555/phBNOyL2OS57EKGIYGFodMeYU8x4322wzoeji+w1L6GFUUb169SLPSfvGi0OXFxw2AFl//fWpY8eOQs+i4yDtDSkAd9RRR9HKlSvpiy++YJMPVYYkeFHo8oJD3Hv16kWPP/447bvvvqzDPu8CSlnTQze6UaNG0aRJkwirc2Er6bp162aNaiq8K6+8kqUrD1Ho8oLDtbFY1H/+8x+2WttJJ52k9HlEL6YVXRAcOkmPPPJI0XhJHReEh8y68847WatmGJ0KcLxqi7lyGDdoEp5OdEFwGEoVXEpBKnNSDg6WeEF4YXQqwCEqeAdQai9dutQYPG3oigLH8xTwMNQIoyA4vNtuu61yU8jPPvtM6fQc3A/jC1Hi7bfffgw63xdP5UuZdC1d6IoCx58tCl4QnSpw/H6m4WlBVzS4OHjAcMkll7CNIvv06aN8PpxpeDrQFQ0uDh4WmMUSfMg/DF5GUNnxbRKecnSmwEXBw/cjFr7h/9UxAdUkPNXoTIHjeYfBD0OGDGFDxjBDoEWLFqzBSjU40yWeUnRBcJio2qlTp6JqWlXuAwjYLYevJI0/7rbbbqxBR8eMb9wPa6JgU5GTTz6ZxowZU8hzq0SH6ThoXcbCrphuo+sbLi1hUNW84YYbaPHixZWHosFD19AulHgYkI0Fj4tqXFGKbty4cYW9cGmZZ+rvu+66K/3jH/+gDTfcUHsUVKI755xzaNq0adrjbPMN/v73vzOAuoNSdChZMD3+5ZdfZksyoD9LZb+caGLw+nq4pMMS3aq7LBCnwYMH00MPPcQ2ucCiqaqb1uOeWyU6VO3OOOMMNunziiuuqFzmQDTNVR13+eWX0y233FLlcqj2BrsTVN0L18G2ZyhZ8f0IcM2bN1d5+chrKUWHOwThoU+kaHjBbgFUKd944w1WtcR/0SKGX3OV8AAO12zVqlWh4JDWKtHhehwefkDGjx9fODyAu+666xiAFStWUJs2bWirrbZi33j4XFAND+DQTdGgQYPCwCGdlaMzCS/cD4eRFFjU9r333qNBgwZVdieogmcSnA50JuEFwd17771szVDgQ6l3/vnnK4dnCpw2dLgw9qBDUy+qmkWUeFEd35MnT67sp8PQH/xS8n68JHhAil8j7KSK86KCaXC60OG6aBg688wz2RbPKHn4ilq66l1hcE2aNKmywjNKYJXwTILTio7D69q1K7300kta4cWNNAmPSEHVl8PDR3PcNx5+XS+44AKaP38+bbHFFmu9azaA04muSHhR4HD/8IgUVfBMg9OOLgxPx9jLpKFdUWMvAQ8lGPYFj4OXhg7fbxjIW2SjSVQpo/qbLnyPYImHpRcwBlNliAMXhY5XffOWeKh1ffvtt4V+w4XTTMs3XfgmqGqikxOj1FX2k6WNpYybZZAGLw0d9hTHftNFD/sKp6tudLzEQ//jJptsorQlOglcHDoV8NBAg3dwo402Uvn7IXWtQtBJxUjw4DRwuEzSfLokeGnoBKOo/bAi0Ol4iDRwSehUwNPxTDLXdBKdCLg0dPh7GB66N9Bw4tHJvEJyx4qAS0MXhod+RXwyuBKcQycKTgRdHDws/5DUkGJL5rpW0omCE0HnMjyn0MmAE0WH4/DNiVngvHEF+6BfdNFFsa2XHp18CsiAE0XnKjxn0MmCk0EXhoeZ4Gj4iesykH/l9JxhQ0n38ccf0+abb564lIMsOBl0LsJzAl0WcHHo0PGNDvuogBIPw434dBKPLv3H4sADD2RD4DBtKipkASeLzjV41qPLCi4OHR4Y2zgFB0NHvSwYvPzYY48VMlsg/dWOPsKGkq5t27YMHZbjCIes4LKgwznoV8S3OMZq2ty4YjW6POCSqpfff/89mzeWFNCKWcT0nKzgcJ7N6PKAy4ouCA8zBhAHG1s1rUWXF5zsN12el9/UubaiywsuDzoX4FmJTgU4j66Yn4Jw9VIFuLzobIdnHTpV4Dy64tGpAqcCHYc3dOhQ9o1nU1XTKnQAd/TRRxPGNqpYRChtL4NiXkt9d7GpeoltjvkEVMyHw/ScPCFtLwPRa6NxxTZ41qBTDc6XdKKvZb7jUL1ctGgR2woLk05VgFNV0vEnsw2eFejygsOYSTQRY9Iq1rrkIa6kmzdvHluYtnPnzjR8+PB8b53Bs20p6RYsWMBSAauIxZVwWImtTp06wqmlqqSzEZ5xdHnBIVEx1wt9b1hGDeMmObwodAAHbEuWLGGbXGCSravBNnRJ6Yj8mThxonBSq0Zn0zeeVnRvv/02YUm6uKACHL82ljfHMudYfYzDC6MLgrv66qtZH47K+X3Cb5SiA21Ahz0Bfv/999QnwmJQmJMnGnSgswWeNnSo6l122WWEqkfUFsUqwcXBA7IRI0bQwoUL6csvv6ws4coADs9sAzpRRLLH6UJnAzxt6PjCs3jZw+h0gIuCh9kC2FkHC+xgdSlUKcsCzqOTZVz1eJONK4Wj0wkuDA8Ji4DhXFhyoEzgPLp86EyWeIWiKwJcHLyygfPo8qMLw8PnEOZV6g6FoSsSXBDe7Nmz2QrP2AjQ5UaTqBfBf9Op4RGsahYBrxB0H3zwgdKRJmqS2v2reHTq8lAG3qxZs1j31EEHHZQpAtrRoSkffTSqhnZlesqSnuTRqc1YUXiHHXYY22cem61kCdrRYX3BH3/8UclYyiwPWOZzPDr1uSsCz3p0SJa99tqL7WsQ9U3Vs2dPpYuYqs8Ge6/o0enJmzR4TqBLShqMAMeGhD7Ip4BHJ59momdgOY9hw4axaUHhxhVr0aFfDEtYpwX0oW288cZph/m/R6SAR6f3teDwsPQDtrTm3QnWotObHP7qSAGPTv97EAXPo9Of7tbewaMrJmvC8DBn0MrWy2KSo3rfxaMrLv+D8NasWUP77LOPfV0GxSVH9b2TR6c+72+88UbC/0UFwMNUJoR27dp5dOqT3/4renTq8wjrvHz66aepF27RogWbKZ8laOsczxIZf45cCpQB3aOPPso2aETJEQxx8+mwm+8zzzxDHTt2ZHsouBg8Ohdz7X9xLgM6YMMmJNdeey116dKlMjei0AFcjx49WFfUI488QltvvbWTuefROZlt/x/pMqDDC9inTx+2aUsQXhhdENzdd9/N9k9wNXh0ruZcSdAh+aPgBdGVCRx/3hoVFRVrhgwZ4vDrVz2jXoaSjudcGB5WasM6mhiCxauUrpdwwWf16Bw1WyZ04RIPK4y1bNmSLWKLb7iygPMlnaPYeLTLhi4ID9uZIaCxpEzgPDqPzsoU4FVNDIYvGziPzspXTjxSZSzp+NMvXryYzbPcYostxBPEkSN966UjGRUVzTKjczhbUqPu0aUmkb0HeHT25k1SzDw6N/ONxdqjczPzPDo3882jczjfPDqHM8+XdG5mnkfnZr75ks7hfGPomjZtukZm7zCHn7dUUf/6668J+765OsWlVJkh8TCYDFujffv2a3baaSeJ0/yhNqQAprfUq1ePrSvqgzspgD5IP/bSnfyqElP/TedmxvlvOjfzzX/TOZxvHp3DmedLOjczz6NzM998Sedwvnl0DmeeL+nczDyPzs188yWdw/lWanQLFiwgTPs/8cQTqU2bNg5nU3TUfUnnZpaWFh3AYUk3dCCj4/+uu+6ivffe281ciom1R+dmdpYSXRAcz5YywvPoPDorUiAIbscdd6T33nuPrrrqKho+fDitv/76pSrxPDorXjnpSJSqpAuCGz16NGF3lQsvvJAWLlxITz31FA0aNKhU8Dw66ffdihNKg+7DDz+kzp07s284gDv55JPp5ptvphEjRjB0m266KT3wwAN0+umnlwZemdF99dVXbCOPv/71r1ZAURmJUqCLArfOOuvQTTfdVAUdEi4I784772T7jLkayooO4I4//nj66KOPCLvoHHXUUa5mUWS8S4Fu0qRJNHLkyMoSDuAQotAF4WEPaawg7GooIzoObu7cuSxbNthgg9LBKwW65cuX03fffUeNGzcmDi4JHf62aNEitkWTy0u8lQ1dGFyDBg1o5cqVtGrVqlLBKwW6uJIqrqRztWQLx7tM6ILgsNninDlzqGnTptS3b1/q378/gzdu3Dg6+uijnc8+j87hLCwLui+//JJ69epFqFICHBq/DjnkELaByNSpU9kmkGWC59F5dEZTIApczZo1Kbw/HYf322+/sX3sXC7xPDqjr1y+m5ehpAOeF154obKEAziEqJ1Yg/CeeOIJ2n777fMloKGzPTpDCa/itmVAhz5VtFCi/5SDi0OHfwe8e+65h40w2nbbbVUkY+HX8OgKT3J1NywDurjUiCrp1KWc2St5dGbTP9fdPbpcyWfsZI8uQ9J//PHH9Pbbb6ee2bFjRzbkTFfw6ORTFtXTpUuXpp7Yvn17beuJenSpyb/2AW3btiUMrk4LZ511Fvv20BU8OvmURVfEm2++mXrirFmzaPfdd089LssBHl2GVPvkk08Ie2JHhcsvv5wefvhh9qfevXvTNddck+EOYqd4dGLpFDzq888/J6ywHBVuu+02mjx5MvtTqdDhhYx7YYMJccQRR7CdOPOEokekABwG6KJVDbMdunbtWhp0X3zxBb322mtC2XHAAQew2fp5QtENKbfffjsbv/vLL7+UDx02bo/7pQlmEvaaPuigg/LkW+yA51wXjTk5CG7GjBl0+OGHs1EVZSnpHnzwQTZdSiSg3y1vH1qR6Dg4TP9C7QSTnktV0gXR3XjjjbTLLrtE5iPG3QUHL4tkdviYokq6MLgmTZoQ9oYoK7qWLVuyEn3jjTeOzJZGjRpV6XPLkndFoQuCw//+4YcfqFu3buVDh+oXWgBRBbnvvvti4WXJrOA5RaCLAoc4lBUdwM2fP5/9oOBHMw5e3rwrAl0YHBpOsMJAKdENGDCAtttuOxo8eLBWeLrRxYErMzoMvxo7dizhvzrh6UYXBQ75Vmp0+GjFsng64elElwSuzOhefPFF2nLLLdlYSZ3wdKKLA1ct0OEhOTx8xN57771Kq5q60KWBKzu65s2b04oVK7TC04UuCA5dBHvssUeVmnDpSzr+tEF4aPnbdddd834SsPN1oBMBVx3Q4Rl1wtOBLg1ctSnpdMJTjU4UHJ4Ji+pgOYj69esr+QGJukiRneO8ywDVS5R0PAThdejQgW644QYljSuq0YmAwzP99NNPhD5JNPbVrl1bS94VPiIFXQZoSME3XTioLvFUouPgMJsZ1WB0C5gONqDjJd7AgQPp8ccfJ1XwVKITBVdUfhpBh9YvjNaIClgW79xzz2XrVOataqpCZyM4pF2R6F599VU655xzWBfPVltttVbWocRTCU8VOtvAIeEKR4eBwqie1KhRI/aHRRU8FehsBVc0OtxvyZIlVLdu3dh8UwlPBTobwRlBJ1qEq4CXF53N4EygE8k7VfDyorMVnNXoELm88PKgsx2crehUfePlQWczOOvRcXjnnXceG7ki+42XFZ0L4GxGpwJeVnS2g3MCXR54WdC5As52dHnhZUHnAjhn0GWFJ4vOJXAuoMsDTxYdRpdgWzS0ekeNNBH5Hi3qmMJbL/M8GL7xZKqaMuhcA+cKuqzwZNC5BM6pko5jlYEnis5FcC6hi4J3/fXXJ84uF0XnGjgn0QWrmqhKTJ8+PXaspgg6V8G5hk4Wngg6F8E5i04UXho6l8G5iA5xxszs0047rXLIWFyJl4bOVXBOowvDw1Lbbdq0qfLJmITOdXCuohOFl4TOZXDWoMOIfAyC7tKlC51yyilSbS38Gw9VzTC8OHQ2gXv00UfpyiuvZDvCYj1NmVDE2Evscot0nTZtmtK9A9JKvDh0ecHh/cLCWNj5Z7PNNpNJbmXHGm+9BLjOnTsTtkwaP348HXfccdIPFwcvCp1N4PCgzz77LNtfG9NI8ELJwNONDuAuvfRStlstZhBEDXSWzqzACUnwotDlBYdbDxo0iA2ywDKBeD4T8IyiC4JDHwvq+llXAMMv8ZAhQ1g/DS/xwuhsA8ffv5kzZ9LZZ58tDU8nuiA4pG3r1q3z+Io9Nw5eGJ0KcIjEjz/+SGeeeSZbENgUPGPoVILjORqGh+ko2NVz4cKFbHIllo2zaT5c8E3MAk8XOoDDFlaYUaATHH/+KHhHHnlk5U6sqsDx+5mGZwSdDnBR8LAJxP3330/9+vUjDBGyFVzWEk8HuqLBxcGbN28e7bjjjmxzSB0jTUzCKxydTnBheKtXr64sTBo3bmzNjO+keppMiacanSlwUfDwbxjkvmrVKm1Du0zBKxwdXhRs4oCwww47ZP6GS/vAeP/996vsmYDGANUNAWlxyPr3Dz74gLC3dp06ddjWwPXq1Yu8lEp0HBx/yVErMBFQ1fzss8+q3Br4dO26ivl/ixYtYvfr3r07TZgwQftjF46OL6uOxWbzrneflDpPPvkkhUu6Vq1aaU9QFTfAwjhz584lpNXs2bNZ62FUUIkOqzWjGoew//7704YbbqjiUTJdAy8l8PGAFt28G5LEReTbb7+l119/nf0ZezWMGTMmU5xlTioc3a233kpDhw5lLxLW20C9XXW44ooraNy4cWuVdFEd6Krvnfd6ANejRw+2vB02UUn6oVCJbtmyZeyle/rppwmNGGh0MgGPN5rw3XOQnljsKG2sZpZ0Bzh877/00ksszdG6jf3PdYfC0eGBdMLj4FA9OvDAA2nKlCk0atQo1vmMX0ub4cmAQzqqRIfrmYYXbKX8+eefaeedd2bL+fFVxlTCMwUO6WwEHYc3bNgwtsWsqhIvCA7XxLLfvMsA/TLnn3++tfBkwelAZxJeuFsAfa744Zw4caLQWE2Z0skkOKPoVMMLg0NrZbhzHH1ONsLLAk4XOhPwovrhgp3jaUPGguAwOgndDajZRAXT4IyjUwUvChyuHTUMjMPDyBV8M4UHScv8Yqo4Nis4neiKhBfX8R0ekSIKDxuJorUXCxdHhV69erHqapHfcOF4GKteBiOCbzxUNbETDL6/ZEIcuDh0+Heb4OGXGbu1pjWaRKWJ6m+68D2C33hobGjWrJlM1qQemzTSJGrsZRDeoYceyqqe4VbNNHTY3gt77BXVaBKVCFagQ8Teffdd1qIp05cGcBgtjj4cfMOhShkMSVN7gvDwq4gX2ERYunQprVy5knUPyAbd6HiJh34zdO/UqlVLNoqxx6cN7YqbZQB4GLSM7Ymj4KWhw5DABg0aFNJKGffw1qCTzc00cEklHb+XLfBkn50fXwS6rHFLOi8NHM5Nmk+XBC8NnY7nkb2mk+hEwImgC1c1TZZ4shmH411EJwIuDR3+HgfPo8vyJqWcIwpOFB2Omzp1Kl1wwQVsjJ9L8FxDJwpOBF0cPMzNTGpI0fBKSl/SqZJOBpwMOlfhuYROBpwouih48+fPZxvUxLVeSgvRcIIz6GTByaJzEZ4r6LKsvJy2MFHQQrCqiX8/+OCDPbq8PxYcHEYoYOpLuJUy7vppq4FFnedSVdMFdFnAxZV06F654447IrN7+fLl9Mknn7C/eXQ5xWUFl6Wk41F1BZ7t6LKCi0OHRZzQn5kWsGc9VgK3NVhdvcwDLg86XtXEbAh0vtrauGIzujzgZL7pbIWVFC9r0eUFlxedC/BsRZcXnEdn4KdEBTgV6GyHZyM6FeA8OsXoOnXqRFdffTUb/xYVVIFThc5meLahUwXOo1OMDmMMsZrzyJEj17qySnAq0dkKzyZ0KsF5dAWhywMOA3Ixvb9FixZVYpvUZYCVlbfcckupdVrQqmlT44ot6PKAe/nll9ng4/BitnH9dJgP984779Bee+3FZpW7GApvSIkq6fKAQ6JjJSus4oRtszDFn4c4dGPHjmX7B/Tt2zd2smNcZtoEzwZ0ecAhjdu1a0dfffUVYWEkLK/BQxS64ATUOXPmaFt1Wjdk4+gqKioICGQ7voMJs3jxYurWrRvhv0F4Ueg4OEzvwJr2GDIkGzg8jNVEh62paUGm0eUFh3R/6KGH6KyzzqJ11123CrwwOhtmfMu+J3HHG0WnAhx/sCh4YXQqwPH72QBPFzpMWEXVbaeddop9z1SA4xePghdEVyZweGZj6GrWrJm7hAu/EWF4L774YuXCRLfccgurUuYp4cL3Mw1PF7q9996bdtllF7bcRVRQCS4OHtafRO0Hs+pNLJOnqlSLuo4RdFi5GECQqNhroFGjRsqeMQgPv5aoQg4cOJC9QCrBRZV4mBS72267KXuWtAuZQBcEh/+9++67p0VT+O/BEg97yGFN1PXWW6/wdSmFI5zxQCPokKCAphpcuKqJJSB4APCs33BpaRss8YqEVzQ6neDCJR72GeDB5CJCaXmf5e/G0KG5vmHDhrFxxq6sJ510UpZnYufwEg/wdIIzWeIVia4IcFHwygbOyDcddh3F5hhpAd0ITZo0STss8e/ffPMNG22OjvgsrZSyN8e0E6xqhlbNIkq8otAVCS4ID/sLDh8+3OgiQrLvgMjxhZd0IpFy+Zgi4RWBzgQ4l/NfJO4enUgqSR5TFDzd6PbZZx9WS0DJrbrRRDJJS3W4R6cpO4uApxPd999/z9bj9ODUvyAenfo0rbyiKLzevXuzrgZsQC8TdKLDjrkI2MgjrlsA4x+L2FpKJk1cONaj05xLIvDQEY0+RbV6J40AABHoSURBVOypJxOKQJcUHww26NOnj0yU/bEmRqRUx1QHPLTCYemHqFZN29BhF9jgpoxxeYZhYrVr166OWZrrmX1Jlyv5xE9OgmcbOvGn8kdmSQGPLkuqZTwnDp5HlzFBHT3Noys446LgeXQFZ4Lh23l0BjIgDA+TaW1qSDGQJNXqlh6doewOwsPqxMcee6w1rZeGkqTa3NajM5jVHB5mXfTs2dOjM5gXRd7ao9Oc2uj4xm6rceGtt96iVatWeXSa88Gmy3t0mnMDW0T985//TL3LhRdeyGZrywRdneMycfDHyqeARyefZtac4dFZkxVSEfHopJLLroM9OrvyQzQ2Hp1oSll4nEdnYaYIRMmjE0gkWw/x6GzNmeR4eXRu5huLtUfnZuZ5dG7mm0fncL55dA5nni/p3Mw8j87NfPMlncP55tE5nHm+pHMz8zw6N/PNl3QO55tH53Dm+ZLOzcxj6AYNGrSme/fubj5BNY71ySefzLazOuOMM6pxKrj36Fjqv0bdunXXuBd1H2OfAu6mgC/pHM07X9K5mXGspKuoqFiDRUV9cCsF/DedW/nFY+sbUtzMN9966XC+eXQOZ54v6dzMPI/OzXzzJZ3D+ebROZx5vqRzM/M8OjfzzZd0DuebR+dw5vmSzs3M8+jczLfSl3T3338/Yc9xrJK24YYbOpxLa0fdo3M4O8ta0gHc4MGD6aeffqKuXbsS9sErEzyPzqOzKgWC4HjEygbPo7PqlZOLTNlKOg6uZs2ahKXmMZi7Vq1a9Pzzz5eqxCs1uv/+97+0aNEitp/3uuuuK/dGO3B0mdA98MADdM455xDATZ48mS6++GLaZptt6Nprr6X+/fuXCl5p0QFct27daN68eWzqy9ChQ0sHryzowuDat2/Ptg4DuqlTp9J3331XKnilRBcExwusMsIrA7oocMizIDr8/2WCVzp0QXANGzakL7/8kvh/ywavDOjatWtHX3/9NatSooTjIYwuDG/OnDnUunVrBz4CSt5lEAQ3YMAA2mqrreiiiy6iZ555hjD3bMGCBaWqapYB3euvv061a9emHXfcscrbGYWOw8N8NHynb7TRRh6dyRQIggMwfIjfcsstNGLECFq4cCGtWLGCfeOVCV4Z0MW9M3HoTL5jqu5diuplFDi0Vt50002V6DbddFP64osvSgXPo1PFoNjrlALdpEmTaOTIkawKiRKOdw+E0SFpg/DGjBnDznE1eHRu5lwp0H3++ef00Ucf0b777lulWyAKHYeHKicaWJo3b+5mzpV8AxFfvczwWj744IN09913p5551FFHsf22dYQ4dDruZeKavqQzker576mtpBs3bhyh+oaAVsStt946MrYYcbD99tvnf5KIK3h0WpK1kIv6ki5DMgfRNWrUiDCuDv8tMnh0Raa22nt5dBnSk6NDh/SECRNo2223LRyeR5ch4yw5xaPLkBEcHUaEoAo5duxYNpauyBLPo8uQcZac4tFlyIggOowcr6ioKByeR5ch4yw5xaPLkBFhdLhE0fA8ugwZZ8kpHl2GjIhCVzQ8jy5DxllyikeXISPi0BUJz6PLkHGWnOLRZcgIoMOA4zfffJPWW2+9ta4QrGrOnDmTGjdunOEuyad4dMqTtLALenQZkvrTTz+l33//nZo2bRp7tm54Hl2GjLPkFI9OY0bohOfRacw4zZf26DQn8BVXXMH68tCPp7Kq6dFpzjgiwhjbe++9N/VGZ599Nu25556px/EDPDrhpMp+oA54Mui+/fZbNu0nLdStW5f9ONgQbBjw3LZtWzYxGKFVq1a0/vrrRybNfvvtx6ZfiQaPTjSlch6nGp4MukMPPZSwdEBa6NOnD1tx2IZgG7oTTzyRRo8eHQtPJs08OpnUynmsSngy6J599ln67bffImOPZeBmzZrF/ubRVU0ilHSbb745rV69mv1oqYInim758uVsHRysHpAWLr300sSGvbTzVf1d29SePBFUBU8GXVx8AQ5rZm6yySa0bNky6tWrly/pAokFdKhWYhoXwKmCJ4oOnwVYpPabb76JzMIPPviAVq5cyf72r3/9i9q0aZPn1VRyrpXo8GQq4OVFFwR31113scm2hx9+uEcXgW7KlCnsxVcFTxRdkgLUTgYNGkQ//PCDRyf6c5EXXh50YXD4fsIvuke3dvUS6QJ0CKrg5UXHwSFORx55JE2bNs2XdEXAy4oO4C644ALCCmIo4QAOwaNbO9d49ZKjUwUvD7ogOMzlxCyX4447zqMTRZenqpkFXRw4jy46x6LQqYCXFV0YXMeOHWn27NkenQw4fiyvamIG+n333Sc0VlMWXRI4j04OXV54WdAFwU2cOJHQDYTg0WUR979zZOHJoEsD59FFZ1zfvn2pSZMmsR3fWb/xZNHFgfPocoDLUuKJohMBx9FhrzQ0UdsQbOgcF0mHLPBk0CWB8+hEckjgGNESTwQdWrXOP//8tRpNoqLx9NNPE75h8GFuQ3AFXZaqpii6NHAencI3VQReGjoZcAqjruxSLqGThSeCTgQc7osOdAy4xmYyLVu2VJb+WS9kTec4EgZDibAwrWhIg5eEzgS4999/n5o1axY5qVf0mYPH2YgOg5/R2BU38Fm0qpmGThRclnTl52Dp/QYNGtAGG2yQ5zJrnWsFOoA79thj2e6bo0aNknpAwMMsdYz8D7dqxqELgsPS70UNDdp5553ZrkGozkbNppd6cAv3MnjkkUfY/n+PP/544qrdIvCS0BUBDnmB7gZMwsacT5XwjKPj4BYvXszQhDcHFHkR4+BFoTMFDs9x4IEH0jvvvENnnnmmEng2lXQcHLCMHz8+dcPGNHhx6IoCh/zCkLZHH32UunfvrhSeUXQqwHGUUfDC6Dg4DF6+5557CivheByxuxBGRmAQrgp4tqCTBcfTIwleFLoiwSGOS5YsoZNOOomARCU8Y+hUgouD98QTT1RuCvnwww+z0sUUuCC8Hj160Pz583PDswFdVnBp8MLoigbH46cDnhF0OsBFwUN1DmMC8Z142WWXGQenGp5pdHnBJcHDaBJ8p/O5jJgtgBAcaSLy6aHiGNXwCkenE1wYHlYj42GLLbYwUqWMy3RUNfOWeCbRqQIXB++FF15gG3aiOm4SnI4Sr3B0qDa8++67tN1222nblw4J9eSTT7IuCB6wriZmCdgUAA9pgYDZz6eddppU9Eyhe+WVV9g3zo8//khY+2SjjTaSinfcwfjGwzqpPNSvX59+/vlnNh8O/5vP9lByswwXQYn32muvsTPxrXf55ZdnuAqxb8QaFRUVa4YMGZLpArInIeHwsiHssMMOtM4668heQuh49ImFSzqZPkChm+Q86PvvvyfsaoSAztthw4ZJXdEUOozMwQz6X3/9lY3kUb1QE5B99tlnLC3wDY5+PxsCfmSwnisCurhuuOGGTNEqHB32Bu/cuTN72S688EL2664aHlop8SMSLumwVBwG59oQAO6EE06gl156iWUgthKL61COi68pdIjP5MmT6ZJLLmHro+C7a9ddd1WWrLfffjudd9557HoYdjd9+nTptFEWmf9dCOAw5hZLDqK2hpbxOnXqZLpN4egQS53wODj8Ardv357th9evXz9CRuIX2QZ4KsAhHU2i0wUPHev4IeZLLOA+qhY7yiSEiFWjVYFDHIyg0wUvCA79cK+++mpllwGqAtddd51xeKrA2YBONTwODtddtWpV5eeHqsWOsqBTDc4oOtXwwuAwtCvcOY4PX5PwVIKzBZ0qeBzcmjVr6Prrr2eLP6FmctVVVylb7EgWnQ5wxtGF4WH4EJqIZcOdd97JvgFQpQyONIkaBmYSHr5ln3vuuczfcOF0MV29DMYn+I2HjuyGDRsKZ2MYHProgp3jaUPGhG8keSBGDWFsbt5vuPBtjVUvgxHBN96AAQOoS5cudMopp0glTRw4XCRuwLMpeECHlxG/4rKNJlGJYhM6XuJhIac77rhDaDkNnBMFDv8eHpFiAt7AgQPZmpnYZyNro0lUvlmBTkpZ4OAkcEno8DdT8LI+qwvoZJ8tDlwUOvybCXiyzyRyvLPoguDQpBzVZJ02idV1eLaVdCIvHD8mCVwcurLAcxKdCLi0ko5nvsvwXEUHcKi6IaDRhK/aFUSbNJ/O9RLPOXQcHEYqzJgxI7FTNq2kcx2ei+hEwCWVdDzPXIbnFDoZcKIlncvwXEMnCk4EnctVTWfQyYKTRedi44pL6GTAiaJzFZ4T6LKAy4LONXiuoJMFJ4PORXjWo8sKLis6l+C5gC4LOFl0rsGzGh3AnXvuuWykSVqjSVRztWhDStS5LrRq2o4uK7gs6FyCZy26vODylHSuNK7YjE4U3CeffMJWzA4PG4vrMsB8tl9++YWNeIka1eNCq6aV6FSAU4HO9qqmreiC4DC7o0OHDlGVCfZvGBr34YcfrjUnLwoddt/BMEFMTsaiUy1atIi8ru3wrEOnCpwqdDbDsxGdDDik7ddff029e/dmQ7yCk2HD6ILgMDAeO+ImBZvhWYUOg2UHDx6c+RsunAl5vunC17LxG882dLLgeBpHwQuikwXHr2srPGvQqQansqQLf+NhzQ407Jhe+sEmdFnBxcHDmjGYT4dSkFcpRUq48I+ljfCsQKcDnA50waqmDfBsQZcXXBQ8TKnB/gH4L77hsoCztcQzji4IDuuX7LLLLol1dZk/qqxeBu/Lq5qm4dmAThW4MLy3336b/ROW98sDzkZ4RtFxcBi8jM1DVILTVdJlqWqir/HUU09lO8CoDKbRqQYXhoetqlSAsw2eMXS6welGJ1PVxBZZBx98MF1zzTUqzRldDUwXuCA8rH251157KU0zG77xjKArAlwR6EThlQ0d+shQciOk9cMpFaPoYqbhFY6uKHBFoROBVyZ0roOzoapZKLoiwRWJLg1eWdCVBZxpeIWhAziskovByzoaTaJqHrpaL+NqOXGtmmVAx8FhXcobb7wxcWiXolpgIZcxUdUsBJ0JcEWXdEmtmq6jKys4UyWednSmwJlCF1XVPOKII5xtvSw7OBPwMqPDArFYgBO7tsQFrI6L4TxFVimDcSm6ehm8d7CqibGFXbt2da7LAOD44r9lqlLGva9FVTUzo8Neb6effnrsnmqmwRVV0mE59+AOM8EMfeyxx9jcLwSMIXSpn666gSuyxNOCzgZwRaHr2LEjLV26NPWjHxthYNdSlSHLiJQVK1bQmDFjWKNWvXr1IqNTXcFlgYd8bdeuHe25557CWascXRDczJkzqXXr1sKRyXogpn5gRnHfvn2rbDAZV71cvnw5jRo1ivbZZx/q1q1b1tsaPy8LOrQcY6FXbCMWNUuiuoOThdepUyeqVasW2wdRNChFx8FhLCUiUQQ4PCh26jnrrLPYvt3YiITv7BqFDuB69uxJ2Dcbu7XyHT9FE8ym41Sj8+Cq5q7IN55RdKbA8WTCVspAFoQXRhcEh2UCMJgW63O4GlSi8+Ci34I0eMbQmQYXB+/mm2+u3IkVx/AS7phjjqEJEyY4DQ7PowqdB5f8s5sEzwg6rMqEboGiq5RxyTRy5Ei2CT1KPASUgG+88Qb7jkGVsizgVKELgps0aRIdcsghrhb8WuMdB69wdM2aNaMFCxZYA46nOofXsmVLmjdvHtu7Gv8tEzgV6JB3vB/Og0s3GwUPG5kW2pCyevVqFtMpU6bENpqgYzypAz39UbMdweH98ccf7AJlA5cX3ejRo6miooKljQcn/o4B3gknnMBqTyeeeCK99dZbbPBHYa2XHF1SlFHNO+2008SfSuGRgIcFhA444AC67rrrnP+GCydNnm86XAtLIXhw8i9cEB7O3n///YtBB9m8FEmKNloJeRO+/OPlP4NXL/Nfyb4r5EWHNV6SZmajL7N+/fr2PXhBMULHN1agjgqA99xzz7E/FYauoOf2t0lIgSzoFi1aRP3796dly5Ylpm2rVq1o4sSJtPHGG1fbPOjXrx/NnTs39fnRR9yjR4/U4/gBmTvHhe/gD9SWAlnQaYuMv7BwCnh0wkll34EenX15IhIjj04klSw9xqOzNGNSouXRuZlvLNYenZuZ59G5mW8encP55tE5nHm+pHMz8zw6N/PNl3QO55tH53Dm+ZLOzcwDuv8DY7lFcqUC9TAAAAAASUVORK5CYII=;" vertex="1" parent="1">
                    <mxGeometry x="920" y="80" width="215.13" height="320" as="geometry"/>
                </mxCell>
                <mxCell id="11" value="" style="rounded=0;whiteSpace=wrap;html=1;" vertex="1" parent="1">
                    <mxGeometry x="1230" y="70" width="40" height="40" as="geometry"/>
                </mxCell>
                <mxCell id="12" value="" style="rounded=0;whiteSpace=wrap;html=1;" vertex="1" parent="1">
                    <mxGeometry x="1270" y="70" width="40" height="40" as="geometry"/>
                </mxCell>
                <mxCell id="13" value="" style="rounded=0;whiteSpace=wrap;html=1;" vertex="1" parent="1">
                    <mxGeometry x="1310" y="70" width="40" height="40" as="geometry"/>
                </mxCell>
                <mxCell id="14" value="" style="rounded=0;whiteSpace=wrap;html=1;" vertex="1" parent="1">
                    <mxGeometry x="1350" y="70" width="40" height="40" as="geometry"/>
                </mxCell>
                <mxCell id="16" value="" style="endArrow=none;dashed=1;html=1;dashPattern=1 3;strokeWidth=2;" edge="1" parent="1">
                    <mxGeometry width="50" height="50" relative="1" as="geometry">
                        <mxPoint x="1400" y="90" as="sourcePoint"/>
                        <mxPoint x="1440" y="90" as="targetPoint"/>
                    </mxGeometry>
                </mxCell>
                <mxCell id="17" value="" style="rounded=0;whiteSpace=wrap;html=1;" vertex="1" parent="1">
                    <mxGeometry x="1230" y="130" width="40" height="40" as="geometry"/>
                </mxCell>
                <mxCell id="18" value="" style="rounded=0;whiteSpace=wrap;html=1;" vertex="1" parent="1">
                    <mxGeometry x="1270" y="130" width="40" height="40" as="geometry"/>
                </mxCell>
                <mxCell id="19" value="" style="rounded=0;whiteSpace=wrap;html=1;" vertex="1" parent="1">
                    <mxGeometry x="1310" y="130" width="40" height="40" as="geometry"/>
                </mxCell>
                <mxCell id="20" value="" style="rounded=0;whiteSpace=wrap;html=1;" vertex="1" parent="1">
                    <mxGeometry x="1350" y="130" width="40" height="40" as="geometry"/>
                </mxCell>
                <mxCell id="21" value="" style="endArrow=none;dashed=1;html=1;dashPattern=1 3;strokeWidth=2;" edge="1" parent="1">
                    <mxGeometry width="50" height="50" relative="1" as="geometry">
                        <mxPoint x="1400" y="150.0000000000001" as="sourcePoint"/>
                        <mxPoint x="1440" y="150.0000000000001" as="targetPoint"/>
                    </mxGeometry>
                </mxCell>
                <mxCell id="27" value="" style="rounded=0;whiteSpace=wrap;html=1;" vertex="1" parent="1">
                    <mxGeometry x="1230" y="190" width="40" height="40" as="geometry"/>
                </mxCell>
                <mxCell id="28" value="" style="rounded=0;whiteSpace=wrap;html=1;" vertex="1" parent="1">
                    <mxGeometry x="1270" y="190" width="40" height="40" as="geometry"/>
                </mxCell>
                <mxCell id="29" value="" style="rounded=0;whiteSpace=wrap;html=1;" vertex="1" parent="1">
                    <mxGeometry x="1310" y="190" width="40" height="40" as="geometry"/>
                </mxCell>
                <mxCell id="30" value="" style="rounded=0;whiteSpace=wrap;html=1;" vertex="1" parent="1">
                    <mxGeometry x="1350" y="190" width="40" height="40" as="geometry"/>
                </mxCell>
                <mxCell id="31" value="" style="endArrow=none;dashed=1;html=1;dashPattern=1 3;strokeWidth=2;" edge="1" parent="1">
                    <mxGeometry width="50" height="50" relative="1" as="geometry">
                        <mxPoint x="1400" y="210.0000000000001" as="sourcePoint"/>
                        <mxPoint x="1440" y="210.0000000000001" as="targetPoint"/>
                    </mxGeometry>
                </mxCell>
                <mxCell id="32" value="" style="rounded=0;whiteSpace=wrap;html=1;" vertex="1" parent="1">
                    <mxGeometry x="1230" y="250" width="40" height="40" as="geometry"/>
                </mxCell>
                <mxCell id="33" value="" style="rounded=0;whiteSpace=wrap;html=1;" vertex="1" parent="1">
                    <mxGeometry x="1270" y="250" width="40" height="40" as="geometry"/>
                </mxCell>
                <mxCell id="34" value="" style="rounded=0;whiteSpace=wrap;html=1;" vertex="1" parent="1">
                    <mxGeometry x="1310" y="250" width="40" height="40" as="geometry"/>
                </mxCell>
                <mxCell id="35" value="" style="rounded=0;whiteSpace=wrap;html=1;" vertex="1" parent="1">
                    <mxGeometry x="1350" y="250" width="40" height="40" as="geometry"/>
                </mxCell>
                <mxCell id="36" value="" style="endArrow=none;dashed=1;html=1;dashPattern=1 3;strokeWidth=2;" edge="1" parent="1">
                    <mxGeometry width="50" height="50" relative="1" as="geometry">
                        <mxPoint x="1400" y="270.0000000000001" as="sourcePoint"/>
                        <mxPoint x="1440" y="270.0000000000001" as="targetPoint"/>
                    </mxGeometry>
                </mxCell>
                <mxCell id="37" value="" style="rounded=0;whiteSpace=wrap;html=1;" vertex="1" parent="1">
                    <mxGeometry x="1230" y="310" width="40" height="40" as="geometry"/>
                </mxCell>
                <mxCell id="38" value="" style="rounded=0;whiteSpace=wrap;html=1;" vertex="1" parent="1">
                    <mxGeometry x="1270" y="310" width="40" height="40" as="geometry"/>
                </mxCell>
                <mxCell id="39" value="" style="rounded=0;whiteSpace=wrap;html=1;" vertex="1" parent="1">
                    <mxGeometry x="1310" y="310" width="40" height="40" as="geometry"/>
                </mxCell>
                <mxCell id="40" value="" style="rounded=0;whiteSpace=wrap;html=1;" vertex="1" parent="1">
                    <mxGeometry x="1350" y="310" width="40" height="40" as="geometry"/>
                </mxCell>
                <mxCell id="41" value="" style="endArrow=none;dashed=1;html=1;dashPattern=1 3;strokeWidth=2;" edge="1" parent="1">
                    <mxGeometry width="50" height="50" relative="1" as="geometry">
                        <mxPoint x="1400" y="330.0000000000001" as="sourcePoint"/>
                        <mxPoint x="1440" y="330.0000000000001" as="targetPoint"/>
                    </mxGeometry>
                </mxCell>
                <mxCell id="42" value="" style="rounded=0;whiteSpace=wrap;html=1;" vertex="1" parent="1">
                    <mxGeometry x="1230" y="370" width="40" height="40" as="geometry"/>
                </mxCell>
                <mxCell id="43" value="" style="rounded=0;whiteSpace=wrap;html=1;" vertex="1" parent="1">
                    <mxGeometry x="1270" y="370" width="40" height="40" as="geometry"/>
                </mxCell>
                <mxCell id="44" value="" style="rounded=0;whiteSpace=wrap;html=1;" vertex="1" parent="1">
                    <mxGeometry x="1310" y="370" width="40" height="40" as="geometry"/>
                </mxCell>
                <mxCell id="45" value="" style="rounded=0;whiteSpace=wrap;html=1;" vertex="1" parent="1">
                    <mxGeometry x="1350" y="370" width="40" height="40" as="geometry"/>
                </mxCell>
                <mxCell id="46" value="" style="endArrow=none;dashed=1;html=1;dashPattern=1 3;strokeWidth=2;" edge="1" parent="1">
                    <mxGeometry width="50" height="50" relative="1" as="geometry">
                        <mxPoint x="1400" y="390.0000000000001" as="sourcePoint"/>
                        <mxPoint x="1440" y="390.0000000000001" as="targetPoint"/>
                    </mxGeometry>
                </mxCell>
                <mxCell id="48" value="" style="shape=flexArrow;endArrow=classic;html=1;" edge="1" parent="1">
                    <mxGeometry width="50" height="50" relative="1" as="geometry">
                        <mxPoint x="540" y="239.57999999999998" as="sourcePoint"/>
                        <mxPoint x="610" y="240" as="targetPoint"/>
                    </mxGeometry>
                </mxCell>
                <mxCell id="49" value="" style="shape=flexArrow;endArrow=classic;html=1;" edge="1" parent="1">
                    <mxGeometry width="50" height="50" relative="1" as="geometry">
                        <mxPoint x="840" y="239.57999999999993" as="sourcePoint"/>
                        <mxPoint x="910" y="240" as="targetPoint"/>
                    </mxGeometry>
                </mxCell>
                <mxCell id="50" value="" style="shape=flexArrow;endArrow=classic;html=1;" edge="1" parent="1">
                    <mxGeometry width="50" height="50" relative="1" as="geometry">
                        <mxPoint x="1150.0000000000002" y="239.16999999999993" as="sourcePoint"/>
                        <mxPoint x="1220.0000000000002" y="239.59" as="targetPoint"/>
                    </mxGeometry>
                </mxCell>
            </root>
        </mxGraphModel>
    </diagram>
</mxfile>